<svg width="24" height="23" viewBox="0 0 24 23" fill="none" xmlns="http://www.w3.org/2000/svg">
<path d="M17.3054 22.2V13.26H20.4614C21.0534 13.26 21.5734 13.372 22.0214 13.596C22.4694 13.82 22.8174 14.14 23.0654 14.556C23.3214 14.972 23.4494 15.46 23.4494 16.02C23.4494 16.58 23.3214 17.068 23.0654 17.484C22.8174 17.892 22.4694 18.212 22.0214 18.444C21.5814 18.668 21.0614 18.78 20.4614 18.78H18.4814V22.2H17.3054ZM18.4814 17.7H20.4974C20.8574 17.7 21.1694 17.632 21.4334 17.496C21.6974 17.36 21.9014 17.164 22.0454 16.908C22.1894 16.652 22.2614 16.356 22.2614 16.02C22.2614 15.676 22.1894 15.38 22.0454 15.132C21.9014 14.876 21.6974 14.68 21.4334 14.544C21.1694 14.408 20.8574 14.34 20.4974 14.34H18.4814V17.7Z" fill="#F6FFF0"/>
<path d="M11.0422 22.344C10.4102 22.344 9.81823 22.232 9.26623 22.008C8.71423 21.776 8.23023 21.452 7.81423 21.036C7.40623 20.62 7.08623 20.132 6.85423 19.572C6.62223 19.004 6.50623 18.388 6.50623 17.724C6.50623 17.052 6.62223 16.436 6.85423 15.876C7.08623 15.316 7.40623 14.828 7.81423 14.412C8.23023 13.996 8.71023 13.676 9.25423 13.452C9.80623 13.228 10.4022 13.116 11.0422 13.116C11.6822 13.116 12.2742 13.232 12.8182 13.464C13.3702 13.688 13.8502 14.008 14.2582 14.424C14.6742 14.832 14.9982 15.316 15.2302 15.876C15.4702 16.436 15.5902 17.052 15.5902 17.724C15.5902 18.388 15.4702 19.004 15.2302 19.572C14.9982 20.132 14.6742 20.62 14.2582 21.036C13.8502 21.452 13.3702 21.776 12.8182 22.008C12.2742 22.232 11.6822 22.344 11.0422 22.344ZM11.0422 21.252C11.5382 21.252 11.9902 21.164 12.3982 20.988C12.8062 20.804 13.1582 20.552 13.4542 20.232C13.7582 19.904 13.9902 19.528 14.1502 19.104C14.3182 18.672 14.4022 18.212 14.4022 17.724C14.4022 17.236 14.3182 16.78 14.1502 16.356C13.9902 15.932 13.7582 15.56 13.4542 15.24C13.1582 14.912 12.8062 14.66 12.3982 14.484C11.9902 14.3 11.5382 14.208 11.0422 14.208C10.5542 14.208 10.1062 14.3 9.69823 14.484C9.29023 14.66 8.93423 14.912 8.63023 15.24C8.33423 15.56 8.10223 15.932 7.93423 16.356C7.76623 16.78 7.68223 17.236 7.68223 17.724C7.68223 18.212 7.76623 18.672 7.93423 19.104C8.10223 19.528 8.33423 19.904 8.63023 20.232C8.93423 20.552 9.29023 20.804 9.69823 20.988C10.1062 21.164 10.5542 21.252 11.0422 21.252Z" fill="#F6FFF0"/>
<path d="M2.424 22.2V14.34H0V13.26H6V14.34H3.612V22.2H2.424Z" fill="#F6FFF0"/>
<path d="M10.473 0.331007L10.868 0L15.868 4.19839L15.4741 4.5992L15.0791 5L10.8668 1.46468L6.65571 5L5.86798 4.19839L10.473 0.331007Z" fill="#F6FFF0"/>
</svg>
