<svg width="60" height="60" viewBox="0 0 60 60" fill="none" xmlns="http://www.w3.org/2000/svg">
<circle cx="30" cy="30" r="29.5" fill="white" stroke="#669B40"/>
<path d="M19.3952 38.2002V28.3752H16.3652V27.0252H23.8652V28.3752H20.8802V38.2002H19.3952ZM30.168 38.3802C29.378 38.3802 28.638 38.2402 27.948 37.9602C27.258 37.6702 26.653 37.2652 26.133 36.7452C25.623 36.2252 25.223 35.6152 24.933 34.9152C24.643 34.2052 24.498 33.4352 24.498 32.6052C24.498 31.7652 24.643 30.9952 24.933 30.2952C25.223 29.5952 25.623 28.9852 26.133 28.4652C26.653 27.9452 27.253 27.5452 27.933 27.2652C28.623 26.9852 29.368 26.8452 30.168 26.8452C30.968 26.8452 31.708 26.9902 32.388 27.2802C33.078 27.5602 33.678 27.9602 34.188 28.4802C34.708 28.9902 35.113 29.5952 35.403 30.2952C35.703 30.9952 35.853 31.7652 35.853 32.6052C35.853 33.4352 35.703 34.2052 35.403 34.9152C35.113 35.6152 34.708 36.2252 34.188 36.7452C33.678 37.2652 33.078 37.6702 32.388 37.9602C31.708 38.2402 30.968 38.3802 30.168 38.3802ZM30.168 37.0152C30.788 37.0152 31.353 36.9052 31.863 36.6852C32.373 36.4552 32.813 36.1402 33.183 35.7402C33.563 35.3302 33.853 34.8602 34.053 34.3302C34.263 33.7902 34.368 33.2152 34.368 32.6052C34.368 31.9952 34.263 31.4252 34.053 30.8952C33.853 30.3652 33.563 29.9002 33.183 29.5002C32.813 29.0902 32.373 28.7752 31.863 28.5552C31.353 28.3252 30.788 28.2102 30.168 28.2102C29.558 28.2102 28.998 28.3252 28.488 28.5552C27.978 28.7752 27.533 29.0902 27.153 29.5002C26.783 29.9002 26.493 30.3652 26.283 30.8952C26.073 31.4252 25.968 31.9952 25.968 32.6052C25.968 33.2152 26.073 33.7902 26.283 34.3302C26.493 34.8602 26.783 35.3302 27.153 35.7402C27.533 36.1402 27.978 36.4552 28.488 36.6852C28.998 36.9052 29.558 37.0152 30.168 37.0152ZM37.997 38.2002V27.0252H41.942C42.682 27.0252 43.332 27.1652 43.892 27.4452C44.452 27.7252 44.887 28.1252 45.197 28.6452C45.517 29.1652 45.677 29.7752 45.677 30.4752C45.677 31.1752 45.517 31.7852 45.197 32.3052C44.887 32.8152 44.452 33.2152 43.892 33.5052C43.342 33.7852 42.692 33.9252 41.942 33.9252H39.467V38.2002H37.997ZM39.467 32.5752H41.987C42.437 32.5752 42.827 32.4902 43.157 32.3202C43.487 32.1502 43.742 31.9052 43.922 31.5852C44.102 31.2652 44.192 30.8952 44.192 30.4752C44.192 30.0452 44.102 29.6752 43.922 29.3652C43.742 29.0452 43.487 28.8002 43.157 28.6302C42.827 28.4602 42.437 28.3752 41.987 28.3752H39.467V32.5752Z" fill="#669B40"/>
<path d="M29.605 13.331L30 13L35 17.1984L34.6061 17.5992L34.2111 18L29.9989 14.4647L25.7877 18L25 17.1984L29.605 13.331Z" fill="#669B40"/>
</svg>
