<svg width="200" height="111" viewBox="0 0 200 111" fill="none" xmlns="http://www.w3.org/2000/svg">
<g clip-path="url(#clip0_20_1791)">
<path d="M32.4818 61.8723H0V0.820801H31.1184V7.29754H7.17657V27.6082H29.3205V34.0402H7.17657V55.4105H32.4818V61.8872V61.8723Z" fill="white"/>
<path d="M87.9467 61.9916L81.9987 56.1118C77.2044 60.2755 71.511 62.3498 64.9188 62.3498C59.7199 62.3498 55.6447 61.0813 52.7081 58.5443C49.7716 56.0074 48.2883 52.8138 48.2883 48.9785C48.2883 43.0688 52.3036 38.2038 60.3192 34.3685C57.7872 31.3689 56.199 29.1005 55.5248 27.5634C54.8506 26.0263 54.521 24.4892 54.521 22.9223C54.521 19.6242 55.8395 16.8485 58.4764 14.61C61.1133 12.3714 64.4244 11.2522 68.4247 11.2522C72.425 11.2522 75.3615 12.2371 77.6388 14.207C79.9012 16.1769 81.0398 18.6393 81.0398 21.609C81.0398 24.5788 80.1709 27.071 78.4179 29.1155C76.68 31.16 73.5936 33.2194 69.1888 35.2937C74.7173 40.9646 79.167 45.3372 82.5381 48.4412C85.2799 44.397 86.7182 40.0095 86.868 35.2937H92.5164C92.3665 41.5765 90.1941 47.1727 85.999 52.0527L96.5017 61.9916H87.9317H87.9467ZM78.4629 52.575L63.7352 37.9949C60.3791 39.6364 58.0119 41.2929 56.6485 42.9494C55.2851 44.6059 54.5959 46.5161 54.5959 48.68C54.5959 51.2319 55.5997 53.3062 57.6224 54.8881C59.645 56.47 62.1171 57.2609 65.0536 57.2609C70.4473 57.2609 74.912 55.7089 78.4779 52.5899L78.4629 52.575ZM65.7878 31.9509C69.1288 30.5033 71.4961 29.011 72.9194 27.4739C74.3427 25.9368 75.0319 24.1609 75.0319 22.1313C75.0319 20.2958 74.4326 18.8333 73.234 17.714C72.0354 16.6097 70.4773 16.0575 68.5445 16.0575C66.1923 16.0575 64.2895 16.7141 62.8362 18.0125C61.3829 19.3108 60.6488 20.9524 60.6488 22.9372C60.6488 25.3697 62.3568 28.3693 65.7878 31.9509Z" fill="white"/>
<path d="M118.631 55.5746H118.466V61.8723H111.454V0H118.466V25.9368H118.631C122.077 20.1465 127.126 17.2514 133.763 17.2514C139.381 17.2514 143.771 19.2064 146.947 23.1014C150.124 27.0113 151.712 32.2345 151.712 38.7858C151.712 46.0834 149.929 51.9184 146.363 56.3059C142.797 60.6933 137.928 62.8871 131.74 62.8871C125.957 62.8871 121.582 60.4396 118.616 55.5597L118.631 55.5746ZM118.451 37.9949V44.0836C118.451 47.6951 119.62 50.7544 121.972 53.2615C124.324 55.7686 127.305 57.0222 130.931 57.0222C135.171 57.0222 138.497 55.4105 140.909 52.1721C143.322 48.9337 144.52 44.4418 144.52 38.6814C144.52 33.8313 143.397 30.0258 141.149 27.265C138.902 24.5191 135.845 23.1312 131.995 23.1312C127.92 23.1312 124.639 24.5489 122.167 27.3695C119.694 30.19 118.451 33.7417 118.451 37.9949Z" fill="white"/>
<path d="M200 18.281L179.864 68.8712C176.268 77.8999 171.234 82.4067 164.731 82.4067C162.903 82.4067 161.375 82.2276 160.162 81.8545V75.6017C161.675 76.1091 163.053 76.3628 164.312 76.3628C167.848 76.3628 170.5 74.2586 172.267 70.0651L175.773 61.7975L158.678 18.281H166.454L178.29 51.8287C178.425 52.2615 178.725 53.3658 179.189 55.1566H179.444C179.594 54.4702 179.864 53.3957 180.298 51.9183L192.733 18.281H200Z" fill="white"/>
<path d="M90.4639 96.1214L85.8193 107.777C84.9953 109.851 83.8267 110.895 82.3284 110.895C81.9089 110.895 81.5493 110.851 81.2797 110.761V109.314C81.6242 109.433 81.9389 109.493 82.2385 109.493C83.0476 109.493 83.6619 109.015 84.0664 108.045L84.8754 106.135L80.9351 96.1064H82.7329L85.4597 103.837C85.4897 103.941 85.5646 104.195 85.6695 104.598H85.7294C85.7594 104.434 85.8343 104.195 85.9242 103.852L88.7858 96.1064H90.4639V96.1214Z" fill="white"/>
<path d="M82.3283 111C81.9088 111 81.5343 110.955 81.2496 110.866L81.1747 110.836V109.164L81.3245 109.209C82.583 109.642 83.437 109.269 83.9764 108L84.7705 106.135L80.7852 96.002H82.8228L85.5795 103.807C85.6095 103.882 85.6544 104.046 85.7144 104.27C85.7443 104.15 85.7893 104.001 85.8342 103.822L88.7258 95.9871H90.6436L90.5836 96.1363L85.9391 107.791C85.1001 109.911 83.8865 110.985 82.3433 110.985L82.3283 111ZM81.3845 110.687C81.6392 110.761 81.9538 110.791 82.3283 110.791C83.7667 110.791 84.9053 109.761 85.7144 107.747L90.299 96.2408H88.8607L86.014 103.911C85.9241 104.255 85.8492 104.493 85.8192 104.643V104.732H85.5645V104.643C85.4147 104.12 85.3548 103.941 85.3398 103.882L82.643 96.2258H81.0848L84.9802 106.15L84.1562 108.09C83.6018 109.403 82.6729 109.866 81.3845 109.478V110.687Z" fill="white"/>
<path d="M0.254639 103.971V90.6147H5.55841C6.51728 90.6147 7.34131 90.764 8.00054 91.0774C8.65976 91.3908 9.16916 91.8385 9.51376 92.4354C9.85835 93.0323 10.0232 93.7636 10.0232 94.6291C10.0232 95.4947 9.85835 96.1812 9.51376 96.793C9.16916 97.4049 8.67475 97.8526 8.00054 98.1809C7.34131 98.4943 6.51728 98.6584 5.55841 98.6584H1.81281V103.986H0.254639V103.971ZM1.81281 97.3452H5.36364C6.39742 97.3452 7.16152 97.1213 7.68591 96.6587C8.21029 96.1961 8.47997 95.5245 8.47997 94.6441C8.47997 93.7636 8.21029 93.0622 7.68591 92.6145C7.16152 92.1668 6.38244 91.928 5.36364 91.928H1.81281V97.3601V97.3452Z" fill="white"/>
<path d="M1.9927 104.166H0.0749512V90.4509H5.55851C6.54735 90.4509 7.38636 90.6151 8.07555 90.9285C8.77972 91.2568 9.30411 91.7343 9.66368 92.3611C10.0233 92.9879 10.203 93.749 10.203 94.6444C10.203 95.5398 10.0233 96.2561 9.66368 96.8978C9.30411 97.5395 8.76474 98.0171 8.07555 98.3603C7.38636 98.6886 6.54735 98.8528 5.55851 98.8528H1.9927V104.18V104.166ZM0.434529 103.792H1.63312V98.4648H5.55851C6.48742 98.4648 7.28148 98.3155 7.92573 98.0021C8.55499 97.7037 9.03442 97.2709 9.34905 96.6889C9.67867 96.1069 9.84347 95.4204 9.84347 94.6145C9.84347 93.8087 9.67867 93.0924 9.34905 92.5104C9.03442 91.9433 8.54 91.5105 7.92573 91.2269C7.28148 90.9285 6.48742 90.7792 5.55851 90.7792H0.434529V103.763V103.792ZM5.36374 97.5395H1.63312V91.7343H5.37872C6.44247 91.7343 7.2665 91.988 7.82085 92.4656C8.39018 92.9581 8.67485 93.6893 8.67485 94.6444C8.67485 95.5995 8.39018 96.3009 7.82085 96.7934C7.2665 97.2858 6.44247 97.5246 5.37872 97.5246L5.36374 97.5395ZM1.9927 97.1664H5.36374C6.33759 97.1664 7.08671 96.9426 7.56615 96.5247C8.06057 96.092 8.2853 95.4801 8.2853 94.6444C8.2853 93.8087 8.04559 93.167 7.56615 92.7491C7.07173 92.3163 6.33759 92.1074 5.36374 92.1074H1.9927V97.1814V97.1664Z" fill="white"/>
<path d="M17.0198 104.15C16.046 104.15 15.207 103.956 14.5028 103.568C13.7986 103.18 13.2593 102.643 12.8697 101.927C12.4802 101.225 12.2854 100.375 12.2854 99.3898C12.2854 98.4048 12.4802 97.599 12.8547 96.8826C13.2293 96.1663 13.7537 95.6142 14.4279 95.2112C15.0871 94.8083 15.8662 94.5994 16.7352 94.5994C17.6042 94.5994 18.2933 94.7784 18.8777 95.1515C19.477 95.5246 19.9264 96.032 20.256 96.7036C20.5856 97.3751 20.7355 98.181 20.7355 99.1062V99.6882H13.454V98.6884H19.7017L19.402 98.9421C19.402 97.9273 19.1773 97.1513 18.7278 96.5842C18.2784 96.0171 17.6191 95.7485 16.7651 95.7485C16.1209 95.7485 15.5665 95.8977 15.1171 96.1962C14.6676 96.4946 14.323 96.8976 14.0983 97.4199C13.8735 97.9422 13.7537 98.5541 13.7537 99.2405V99.3599C13.7537 100.136 13.8735 100.778 14.1282 101.315C14.3829 101.852 14.7425 102.24 15.2369 102.524C15.7314 102.807 16.3157 102.927 17.0049 102.927C17.5442 102.927 18.0836 102.837 18.593 102.673C19.1024 102.509 19.5968 102.225 20.0463 101.837L20.5856 102.912C20.1661 103.285 19.6418 103.598 18.9825 103.822C18.3383 104.046 17.6791 104.165 17.0049 104.165L17.0198 104.15Z" fill="white"/>
<path d="M17.0199 104.329C16.0161 104.329 15.1471 104.12 14.413 103.732C13.6789 103.329 13.1095 102.762 12.705 102.016C12.3005 101.285 12.1057 100.404 12.1057 99.3896C12.1057 98.3749 12.3005 97.5242 12.705 96.793C13.0946 96.0617 13.6489 95.4648 14.3381 95.0469C15.0273 94.6291 15.8363 94.4202 16.7353 94.4202C17.6342 94.4202 18.3534 94.6142 18.9826 95.0022C19.6119 95.3902 20.0913 95.9274 20.4359 96.6288C20.7655 97.3153 20.9453 98.151 20.9453 99.1061V99.8821H13.9935C14.0384 100.404 14.1433 100.852 14.3231 101.225C14.5478 101.718 14.9074 102.091 15.3569 102.344C15.8213 102.598 16.3907 102.732 17.0349 102.732C17.5593 102.732 18.0687 102.643 18.5631 102.494C19.0575 102.33 19.522 102.061 19.9565 101.688L20.1363 101.539L20.8404 102.956L20.7356 103.046C20.3011 103.434 19.7467 103.762 19.0725 103.986C18.4133 104.225 17.7241 104.344 17.0349 104.344L17.0199 104.329ZM16.7353 94.7933C15.8963 94.7933 15.1471 94.9873 14.5179 95.3753C13.8886 95.7633 13.3792 96.3005 13.0196 96.987C12.6601 97.6735 12.4653 98.4793 12.4653 99.4046C12.4653 100.33 12.6451 101.18 13.0196 101.852C13.3942 102.524 13.9186 103.046 14.5778 103.419C15.252 103.792 16.0611 103.971 17.005 103.971C17.6492 103.971 18.2934 103.867 18.9227 103.643C19.492 103.449 19.9715 103.18 20.361 102.867L19.9865 102.121C19.5669 102.449 19.1175 102.688 18.653 102.852C18.1286 103.031 17.5743 103.12 17.005 103.12C16.2858 103.12 15.6715 102.971 15.1471 102.688C14.6228 102.404 14.2182 101.971 13.9635 101.404C13.7688 100.972 13.6489 100.479 13.589 99.897H13.2594V98.5241H13.604C13.6639 98.0913 13.7688 97.7033 13.9186 97.3601C14.1583 96.8079 14.5179 96.3602 14.9973 96.0468C15.4768 95.7334 16.0611 95.5693 16.7503 95.5693C17.6642 95.5693 18.3684 95.8827 18.8628 96.4796C19.2673 96.987 19.507 97.6735 19.5669 98.5241H20.2112L19.2074 99.3299V98.8823H13.9336C13.9336 99.0016 13.9336 99.121 13.9336 99.2553V99.3747C13.9336 99.3747 13.9336 99.4792 13.9336 99.5389H20.5408V99.136C20.5408 98.2405 20.391 97.4496 20.0763 96.8079C19.7767 96.1811 19.3272 95.6737 18.7729 95.3305C18.2035 94.9873 17.5144 94.8082 16.7203 94.8082L16.7353 94.7933ZM13.9935 98.5092H19.2074C19.1474 97.7481 18.9377 97.1362 18.5931 96.6885C18.1736 96.1662 17.5743 95.9125 16.7652 95.9125C16.151 95.9125 15.6416 96.0468 15.2221 96.3304C14.8025 96.599 14.4879 96.987 14.2782 97.4795C14.1433 97.7928 14.0534 98.1361 13.9935 98.5092Z" fill="white"/>
<path d="M24.8706 103.971V94.7632H26.3688V96.942H26.1741C26.3838 96.1959 26.7584 95.6288 27.2978 95.2408C27.8371 94.8528 28.5263 94.6289 29.4103 94.5692L29.9646 94.5095L30.0845 95.8377L29.1106 95.9571C28.2416 96.0317 27.5824 96.3152 27.118 96.7779C26.6535 97.2554 26.4288 97.8971 26.4288 98.7179V103.956H24.8706V103.971Z" fill="white"/>
<path d="M26.6087 104.165H24.6909V94.5992H26.5637V95.7632C26.7435 95.5095 26.9533 95.3006 27.208 95.1215C27.7623 94.7185 28.5114 94.4798 29.4104 94.4201L30.1445 94.3455L30.2943 96.0318L29.1557 96.1661C28.3316 96.2407 27.7024 96.4944 27.2829 96.9421C26.8634 97.3749 26.6386 97.9868 26.6386 98.7628V104.195L26.6087 104.165ZM25.0505 103.792H26.2491V98.7329C26.2491 97.8674 26.5038 97.166 26.9982 96.6586C27.4926 96.1512 28.1968 95.8527 29.0957 95.7781L29.8898 95.6886L29.7999 94.7185L29.4403 94.7633C28.6013 94.823 27.9271 95.0319 27.4177 95.405C27.0581 95.6736 26.7735 96.0318 26.5637 96.4646V97.1361H25.9494L26.0094 96.8974C26.0543 96.7183 26.1292 96.5541 26.1892 96.39V94.9573H25.0505V103.792Z" fill="white"/>
<path d="M35.2085 103.971V95.9572H33.3806V94.7633H35.628L35.2085 95.1663V94.4499C35.2085 93.2262 35.5231 92.301 36.1374 91.6593C36.7517 91.0325 37.6955 90.6743 38.984 90.5997L39.7182 90.5549L39.853 91.7339L38.984 91.7936C38.4596 91.8383 38.0401 91.9428 37.7105 92.1368C37.3809 92.3308 37.1412 92.5994 36.9914 92.9427C36.8415 93.3008 36.7666 93.7336 36.7666 94.2559V95.0469L36.5419 94.7633H39.4335V95.9572H36.7666V103.971H35.2234H35.2085Z" fill="white"/>
<path d="M36.9315 104.165H35.0288V96.1513H33.2009V94.5993H35.0288V94.4649C35.0288 93.1965 35.3584 92.2115 36.0026 91.5549C36.6469 90.8983 37.6507 90.5103 38.9692 90.4356L39.8831 90.3909L40.0629 91.928L38.9991 92.0026C38.5047 92.0324 38.1152 92.1369 37.8005 92.316C37.5009 92.4801 37.2911 92.7189 37.1563 93.0472C37.0214 93.3755 36.9465 93.7934 36.9465 94.2859V94.6142H39.6134V96.1662H36.9465V104.18L36.9315 104.165ZM35.3884 103.792H36.557V95.7782H39.2239V94.9574H36.9315V95.5842L36.1375 94.5993H36.557V94.2709C36.557 93.7337 36.6319 93.2711 36.7967 92.898C36.9615 92.51 37.2312 92.2115 37.5908 92.0026C37.9354 91.7937 38.3998 91.6743 38.9392 91.6295L39.6284 91.5847L39.5385 90.764L38.9692 90.7938C37.7406 90.8684 36.8267 91.2117 36.2424 91.7937C35.658 92.3906 35.3734 93.286 35.3734 94.45V94.5843H36.0626L34.9988 95.5842V94.9425H33.5455V95.7633H35.3734V103.777L35.3884 103.792Z" fill="white"/>
<path d="M47.2244 104.15C46.2506 104.15 45.4116 103.956 44.7074 103.568C44.0032 103.18 43.4638 102.643 43.0743 101.927C42.6848 101.225 42.49 100.375 42.49 99.3898C42.49 98.4048 42.6848 97.599 43.0593 96.8826C43.4339 96.1663 43.9583 95.6142 44.6325 95.2112C45.2917 94.8083 46.0708 94.5994 46.9398 94.5994C47.8087 94.5994 48.4979 94.7784 49.0822 95.1515C49.6815 95.5246 50.131 96.032 50.4606 96.7036C50.7902 97.3751 50.9401 98.181 50.9401 99.1062V99.6882H43.6586V98.6884H49.9063L49.6066 98.9421C49.6066 97.9273 49.3819 97.1513 48.9324 96.5842C48.4829 96.0171 47.8237 95.7485 46.9697 95.7485C46.3255 95.7485 45.7711 95.8977 45.3217 96.1962C44.8722 96.4946 44.5276 96.8976 44.3029 97.4199C44.0781 97.9422 43.9583 98.5541 43.9583 99.2405V99.3599C43.9583 100.136 44.0781 100.778 44.3328 101.315C44.5875 101.852 44.9471 102.24 45.4415 102.524C45.9359 102.807 46.5203 102.927 47.2094 102.927C47.7488 102.927 48.2882 102.837 48.7976 102.673C49.307 102.509 49.8014 102.225 50.2509 101.837L50.7902 102.912C50.3707 103.285 49.8463 103.598 49.1871 103.822C48.5429 104.046 47.8837 104.165 47.2094 104.165L47.2244 104.15Z" fill="white"/>
<path d="M47.2245 104.329C46.2207 104.329 45.3517 104.12 44.6176 103.732C43.8835 103.329 43.3141 102.762 42.9096 102.016C42.5051 101.285 42.3103 100.404 42.3103 99.3896C42.3103 98.3749 42.5051 97.5242 42.9096 96.793C43.2991 96.0617 43.8535 95.4648 44.5427 95.0469C45.2319 94.6291 46.0409 94.4202 46.9399 94.4202C47.8388 94.4202 48.558 94.6142 49.1872 95.0022C49.8165 95.3902 50.2959 95.9274 50.6405 96.6288C50.9701 97.3153 51.1499 98.151 51.1499 99.1061V99.8821H44.1981C44.243 100.404 44.3479 100.852 44.5277 101.225C44.7524 101.718 45.112 102.091 45.5615 102.344C46.0259 102.598 46.5953 102.732 47.2395 102.732C47.7639 102.732 48.2733 102.643 48.7677 102.494C49.2621 102.33 49.7266 102.061 50.1611 101.688L50.3409 101.539L51.045 102.956L50.9402 103.046C50.5057 103.434 49.9513 103.762 49.2771 103.986C48.6179 104.225 47.9287 104.344 47.2395 104.344L47.2245 104.329ZM46.9399 94.7933C46.1008 94.7933 45.3517 94.9873 44.7225 95.3753C44.0932 95.7633 43.5838 96.3005 43.2242 96.987C42.8647 97.6735 42.6699 98.4793 42.6699 99.4046C42.6699 100.33 42.8497 101.18 43.2242 101.852C43.5988 102.524 44.1232 103.046 44.7824 103.419C45.4566 103.792 46.2657 103.971 47.2095 103.971C47.8538 103.971 48.498 103.867 49.1273 103.643C49.6966 103.449 50.1761 103.18 50.5656 102.867L50.191 102.121C49.7715 102.449 49.3221 102.688 48.8576 102.852C48.3332 103.031 47.7789 103.12 47.2095 103.12C46.4904 103.12 45.8761 102.971 45.3517 102.688C44.8273 102.404 44.4228 101.971 44.1681 101.404C43.9733 100.972 43.8535 100.479 43.7936 99.897H43.4639V98.5241H43.8085C43.8685 98.0913 43.9733 97.7033 44.1232 97.3601C44.3629 96.8079 44.7225 96.3602 45.2019 96.0468C45.6813 95.7334 46.2657 95.5693 46.9548 95.5693C47.8688 95.5693 48.5729 95.8827 49.0674 96.4796C49.4719 96.987 49.7116 97.6735 49.7715 98.5241H50.4158L49.412 99.3299V98.8823H44.1382C44.1382 99.0016 44.1382 99.121 44.1382 99.2553V99.3747C44.1382 99.3747 44.1382 99.4792 44.1382 99.5389H50.7454V99.136C50.7454 98.2405 50.5956 97.4496 50.2809 96.8079C49.9813 96.1811 49.5318 95.6737 48.9775 95.3305C48.4081 94.9873 47.7189 94.8082 46.9249 94.8082L46.9399 94.7933ZM44.1981 98.5092H49.412C49.352 97.7481 49.1423 97.1362 48.7977 96.6885C48.3782 96.1662 47.7789 95.9125 46.9698 95.9125C46.3555 95.9125 45.8461 96.0468 45.4266 96.3304C45.0071 96.599 44.6925 96.987 44.4828 97.4795C44.3479 97.7928 44.258 98.1361 44.1981 98.5092Z" fill="white"/>
<path d="M58.761 104.15C57.8321 104.15 57.038 103.941 56.3638 103.538C55.6896 103.136 55.1802 102.568 54.8206 101.837C54.461 101.106 54.2812 100.27 54.2812 99.3152C54.2812 98.3601 54.461 97.5094 54.8206 96.7931C55.1802 96.0768 55.7046 95.5395 56.3638 95.1665C57.038 94.7934 57.8321 94.5994 58.761 94.5994C59.3303 94.5994 59.8996 94.7038 60.454 94.8978C61.0083 95.0918 61.4728 95.3903 61.8474 95.7485L61.323 96.8677C60.9484 96.5096 60.5589 96.2559 60.1094 96.0917C59.6749 95.9275 59.2554 95.838 58.8659 95.838C57.907 95.838 57.1579 96.1365 56.6485 96.7334C56.1241 97.3303 55.8694 98.1959 55.8694 99.3152C55.8694 100.434 56.1241 101.285 56.6485 101.912C57.1729 102.554 57.907 102.867 58.8659 102.867C59.2554 102.867 59.6749 102.792 60.1094 102.628C60.5439 102.464 60.9484 102.195 61.323 101.837L61.8474 102.956C61.4728 103.33 61.0083 103.613 60.454 103.822C59.8847 104.031 59.3303 104.135 58.776 104.135L58.761 104.15Z" fill="white"/>
<path d="M58.7611 104.329C57.8022 104.329 56.9632 104.12 56.274 103.702C55.5698 103.285 55.0305 102.688 54.6559 101.927C54.2813 101.18 54.1016 100.3 54.1016 99.315C54.1016 98.3301 54.2963 97.4496 54.6709 96.7184C55.0455 95.9871 55.5998 95.4051 56.289 95.0171C56.9932 94.6291 57.8172 94.4202 58.7761 94.4202C59.3604 94.4202 59.9597 94.5246 60.529 94.7336C61.1133 94.9425 61.5928 95.241 61.9823 95.629L62.0722 95.7185L61.383 97.181L61.2032 97.0019C60.8586 96.6736 60.4691 96.4199 60.0646 96.2707C59.645 96.1214 59.2555 96.0319 58.8809 96.0319C57.967 96.0319 57.2778 96.3005 56.7984 96.8676C56.304 97.4347 56.0643 98.2555 56.0643 99.3299C56.0643 100.404 56.319 101.21 56.7984 101.822C57.2928 102.419 57.967 102.718 58.8809 102.718C59.2555 102.718 59.645 102.643 60.0646 102.479C60.4691 102.33 60.8586 102.076 61.2032 101.733L61.383 101.554L62.0872 103.016L61.9973 103.106C61.6077 103.494 61.1283 103.792 60.529 104.016C59.9447 104.225 59.3604 104.344 58.7761 104.344L58.7611 104.329ZM58.7611 94.7933C57.8771 94.7933 57.098 94.9723 56.4538 95.3305C55.8245 95.6887 55.3151 96.211 54.9705 96.8825C54.6259 97.5541 54.4462 98.3749 54.4462 99.315C54.4462 100.255 54.6259 101.061 54.9705 101.762C55.3151 102.449 55.8096 103.001 56.4538 103.389C57.098 103.777 57.8621 103.971 58.7611 103.971C59.2855 103.971 59.8398 103.867 60.3792 103.673C60.8736 103.494 61.2781 103.24 61.6227 102.941L61.2482 102.165C60.9186 102.464 60.544 102.688 60.1694 102.822C59.72 102.986 59.2705 103.076 58.866 103.076C57.8472 103.076 57.0531 102.732 56.4987 102.046C55.9594 101.374 55.6747 100.464 55.6747 99.3299C55.6747 98.1958 55.9594 97.2556 56.4987 96.6288C57.0531 95.9871 57.8472 95.6737 58.866 95.6737C59.2705 95.6737 59.72 95.7633 60.1694 95.9274C60.559 96.0767 60.9186 96.2856 61.2482 96.5691L61.6227 95.7931C61.2931 95.4947 60.8736 95.2409 60.3942 95.0768C59.8548 94.8828 59.3154 94.7783 58.7611 94.7783V94.7933Z" fill="white"/>
<path d="M69.728 104.15C68.6343 104.15 67.8253 103.867 67.2709 103.285C66.7316 102.703 66.4469 101.882 66.4469 100.808V95.9724H64.634V94.7785H66.4469V91.958H67.9901V94.7785H70.9117V95.9724H67.9901V100.643C67.9901 101.36 68.1399 101.912 68.4396 102.285C68.7392 102.658 69.2336 102.837 69.9228 102.837C70.1326 102.837 70.3273 102.807 70.5371 102.763C70.7469 102.718 70.9266 102.658 71.0914 102.613L71.3611 103.792C71.1963 103.882 70.9566 103.956 70.642 104.046C70.3273 104.135 70.0277 104.165 69.728 104.165V104.15Z" fill="white"/>
<path d="M69.7281 104.329C68.5895 104.329 67.7205 104.016 67.1362 103.404C66.5669 102.792 66.2672 101.912 66.2672 100.793V96.1514H64.4543V94.5993H66.2672V91.7788H68.17V94.5993H71.0915V96.1514H68.17V100.643C68.17 101.315 68.3048 101.822 68.5895 102.165C68.8592 102.494 69.2937 102.658 69.9379 102.658C70.1327 102.658 70.3125 102.628 70.5072 102.583C70.702 102.539 70.8818 102.479 71.0466 102.434L71.2414 102.374L71.586 103.867L71.4661 103.926C71.2863 104.016 71.0316 104.106 70.702 104.195C70.3724 104.27 70.0578 104.314 69.7431 104.314L69.7281 104.329ZM64.8439 95.7932H66.6568V100.807C66.6568 101.822 66.9115 102.628 67.4209 103.165C67.9303 103.703 68.7093 103.971 69.7431 103.971C70.0128 103.971 70.3125 103.941 70.6121 103.867C70.8368 103.807 71.0316 103.747 71.1665 103.688L70.9717 102.852C70.8518 102.882 70.732 102.912 70.5971 102.956C70.3874 103.016 70.1626 103.031 69.9379 103.031C69.2038 103.031 68.6494 102.822 68.3198 102.404C67.9902 102.001 67.8254 101.404 67.8254 100.658V95.7932H70.747V94.9724H67.8254V92.1519H66.6568V94.9724H64.8439V95.7932Z" fill="white"/>
<path d="M77.7588 104.15C76.8149 104.15 76.1107 103.867 75.6313 103.315C75.1518 102.763 74.9121 101.972 74.9121 100.927V90.6299H76.4553V100.823C76.4553 101.27 76.5152 101.643 76.6351 101.942C76.7549 102.24 76.9347 102.479 77.1744 102.628C77.4142 102.777 77.7138 102.852 78.0734 102.852C78.2232 102.852 78.373 102.852 78.5229 102.822C78.6727 102.792 78.8075 102.777 78.9274 102.733L78.8824 104.016C78.6727 104.061 78.4929 104.091 78.2981 104.106C78.1183 104.136 77.9236 104.15 77.7438 104.15H77.7588Z" fill="white"/>
<path d="M77.7588 104.329C76.7699 104.329 76.0058 104.031 75.4964 103.434C75.002 102.852 74.7473 102.001 74.7473 100.927V90.4507H76.6501V100.822C76.6501 101.24 76.71 101.598 76.8149 101.867C76.9198 102.136 77.0696 102.33 77.2793 102.464C77.579 102.658 78.0584 102.688 78.4929 102.643C78.6278 102.628 78.7476 102.598 78.8675 102.568L79.1072 102.494L79.0622 104.18L78.9124 104.21C78.7027 104.255 78.5079 104.285 78.3281 104.3C78.1333 104.329 77.9386 104.344 77.7438 104.344L77.7588 104.329ZM75.1069 90.8088V100.927C75.1069 101.912 75.3316 102.673 75.7811 103.195C76.2306 103.718 76.8748 103.971 77.7588 103.971C77.9386 103.971 78.1184 103.971 78.2981 103.941C78.433 103.926 78.5828 103.897 78.7177 103.882L78.7476 102.986C78.7476 102.986 78.6128 103.016 78.5528 103.016C78.403 103.031 78.2382 103.046 78.0884 103.046C77.6988 103.046 77.3692 102.956 77.0996 102.792C76.8299 102.613 76.6201 102.36 76.4853 102.016C76.3504 101.688 76.2905 101.3 76.2905 100.837V90.8387H75.1219L75.1069 90.8088Z" fill="white"/>
<path d="M96.3967 92.4801V90.749H98.2995V92.4801H96.3967ZM96.5915 103.971V94.7634H98.1347V103.971H96.5915Z" fill="white"/>
<path d="M98.3146 104.165H96.4118V94.5993H98.3146V104.165ZM96.7714 103.792H97.94V94.9575H96.7714V103.792ZM98.4794 92.6742H96.217V90.585H98.4794V92.6742ZM96.5916 92.3011H98.1198V90.9431H96.5916V92.3011Z" fill="white"/>
<path d="M103.094 103.971V94.7633H104.592V96.8078H104.382C104.652 96.0765 105.086 95.5244 105.686 95.1513C106.285 94.7782 106.974 94.5991 107.768 94.5991C108.502 94.5991 109.117 94.7334 109.596 95.0021C110.091 95.2707 110.45 95.6736 110.69 96.2108C110.93 96.7481 111.049 97.4196 111.049 98.2404V103.971H109.506V98.33C109.506 97.7629 109.431 97.3002 109.282 96.9272C109.132 96.5541 108.907 96.2855 108.592 96.1064C108.278 95.9273 107.873 95.8378 107.379 95.8378C106.824 95.8378 106.33 95.9571 105.91 96.1959C105.491 96.4347 105.161 96.763 104.937 97.1958C104.712 97.6286 104.592 98.136 104.592 98.718V103.956H103.049L103.094 103.971Z" fill="white"/>
<path d="M111.244 104.165H109.342V98.345C109.342 97.8077 109.267 97.36 109.132 97.0168C108.997 96.6885 108.802 96.4497 108.532 96.3005C108.248 96.1363 107.873 96.0617 107.409 96.0617C106.884 96.0617 106.42 96.1662 106.03 96.39C105.641 96.5989 105.341 96.9123 105.131 97.3153C104.922 97.7182 104.817 98.2107 104.817 98.7479V104.18H102.914V94.6141H104.787V95.7483C105.012 95.4648 105.281 95.2111 105.596 95.0171C106.225 94.6291 106.959 94.4351 107.768 94.4351C108.532 94.4351 109.177 94.5694 109.686 94.8529C110.21 95.1365 110.6 95.5692 110.855 96.1363C111.109 96.6885 111.229 97.4048 111.229 98.2405V104.165H111.244ZM109.701 103.792H110.87V98.2405C110.87 97.4496 110.75 96.7929 110.525 96.2856C110.3 95.7931 109.956 95.42 109.506 95.1663C109.042 94.9126 108.458 94.7932 107.753 94.7932C107.004 94.7932 106.345 94.9723 105.776 95.3305C105.356 95.5842 105.012 95.9572 104.772 96.4049V97.0168H104.113L104.203 96.778C104.262 96.6139 104.322 96.4646 104.397 96.3303V94.9872H103.259V103.822H104.427V98.7628C104.427 98.151 104.547 97.6137 104.787 97.1511C105.027 96.6885 105.386 96.3303 105.836 96.0766C106.27 95.8229 106.794 95.7035 107.394 95.7035C107.918 95.7035 108.353 95.808 108.697 95.9871C109.042 96.1811 109.297 96.4945 109.461 96.8974C109.611 97.2854 109.686 97.7779 109.686 98.3599V103.822L109.701 103.792Z" fill="white"/>
<path d="M119.365 103.971V90.6147H124.729C126.092 90.6147 127.156 90.9132 127.92 91.5251C128.684 92.1369 129.058 92.9876 129.058 94.1068C129.058 94.9425 128.819 95.629 128.324 96.1961C127.83 96.7482 127.171 97.1213 126.332 97.3004V97.0318C126.961 97.1064 127.515 97.2855 127.965 97.569C128.414 97.8526 128.774 98.2257 129.013 98.6883C129.253 99.1509 129.373 99.6882 129.373 100.3C129.373 101.091 129.193 101.762 128.849 102.315C128.504 102.867 127.995 103.285 127.335 103.553C126.676 103.837 125.882 103.971 124.938 103.971H119.35H119.365ZM120.878 96.599H124.489C125.478 96.599 126.227 96.3901 126.736 95.9872C127.246 95.5842 127.5 95.0022 127.5 94.2411C127.5 93.48 127.246 92.8682 126.736 92.4652C126.227 92.0623 125.478 91.8683 124.489 91.8683H120.878V96.5841V96.599ZM120.878 102.733H124.788C125.193 102.733 125.553 102.703 125.882 102.643C126.212 102.583 126.481 102.479 126.721 102.345C126.961 102.21 127.171 102.046 127.335 101.867C127.5 101.688 127.62 101.449 127.71 101.18C127.8 100.912 127.83 100.613 127.83 100.285C127.83 99.9568 127.785 99.6434 127.71 99.3897C127.62 99.136 127.5 98.8972 127.335 98.7032C127.171 98.5092 126.961 98.345 126.721 98.2257C126.481 98.1063 126.197 98.0018 125.882 97.9421C125.553 97.8824 125.193 97.8526 124.788 97.8526H120.878V102.733Z" fill="white"/>
<path d="M124.953 104.165H119.185V90.4507H124.729C126.137 90.4507 127.246 90.7641 128.04 91.4058C128.849 92.0475 129.253 92.9578 129.253 94.1218C129.253 95.0023 128.999 95.7336 128.474 96.3305C128.189 96.6588 127.845 96.9125 127.455 97.1214C127.68 97.211 127.89 97.3154 128.085 97.4348C128.564 97.7333 128.939 98.1362 129.193 98.6287C129.448 99.1212 129.568 99.6883 129.568 100.33C129.568 101.151 129.388 101.867 129.014 102.449C128.639 103.031 128.115 103.464 127.425 103.762C126.751 104.046 125.912 104.195 124.953 104.195V104.165ZM119.545 103.792H124.953C125.867 103.792 126.646 103.658 127.276 103.389C127.905 103.136 128.384 102.733 128.699 102.225C129.028 101.703 129.193 101.061 129.193 100.3C129.193 99.7181 129.073 99.1958 128.849 98.763C128.624 98.3302 128.294 97.987 127.875 97.7184C127.59 97.5393 127.276 97.405 126.916 97.3154C126.736 97.3751 126.556 97.4199 126.377 97.4647L126.152 97.5094V96.808L126.362 96.8379C126.541 96.8528 126.736 96.8976 126.901 96.9274C127.425 96.7334 127.845 96.435 128.189 96.0619C128.639 95.5396 128.879 94.8829 128.879 94.092C128.879 93.0324 128.534 92.2266 127.8 91.6595C127.081 91.0775 126.047 90.7939 124.714 90.7939H119.53V103.777L119.545 103.792ZM124.803 102.912H120.698V97.6587H124.803C125.223 97.6587 125.598 97.6885 125.927 97.7631C126.272 97.8378 126.571 97.9273 126.826 98.0616C127.096 98.1959 127.306 98.375 127.485 98.5839C127.665 98.7928 127.8 99.0465 127.89 99.3301C127.98 99.5987 128.025 99.927 128.025 100.285C128.025 100.643 127.98 100.942 127.89 101.225C127.8 101.509 127.665 101.763 127.485 101.972C127.306 102.18 127.081 102.345 126.826 102.494C126.571 102.628 126.272 102.748 125.927 102.807C125.598 102.867 125.208 102.897 124.803 102.897V102.912ZM121.073 102.539H124.803C125.193 102.539 125.553 102.509 125.867 102.449C126.167 102.389 126.437 102.3 126.661 102.18C126.886 102.061 127.066 101.912 127.216 101.733C127.365 101.569 127.47 101.36 127.545 101.121C127.62 100.867 127.665 100.599 127.665 100.285C127.665 99.9718 127.62 99.6733 127.545 99.4345C127.47 99.1958 127.35 98.9868 127.216 98.8078C127.066 98.6287 126.886 98.4795 126.661 98.375C126.437 98.2556 126.167 98.1661 125.867 98.1064C125.553 98.0467 125.193 98.0168 124.803 98.0168H121.073V102.539ZM124.504 96.7782H120.713V91.7042H124.504C125.523 91.7042 126.332 91.9132 126.871 92.331C127.425 92.7638 127.71 93.4055 127.71 94.2412C127.71 95.0769 127.425 95.6888 126.871 96.1216C126.332 96.5543 125.523 96.7633 124.504 96.7633V96.7782ZM121.073 96.4051H124.504C125.448 96.4051 126.167 96.2111 126.646 95.838C127.111 95.4649 127.35 94.9426 127.35 94.2412C127.35 93.5398 127.126 92.9727 126.646 92.6146C126.167 92.2415 125.448 92.0624 124.504 92.0624H121.073V96.42V96.4051Z" fill="white"/>
<path d="M136.295 104.15C135.666 104.15 135.096 104.031 134.587 103.777C134.092 103.524 133.688 103.195 133.403 102.762C133.119 102.33 132.969 101.852 132.969 101.33C132.969 100.643 133.149 100.106 133.493 99.7181C133.838 99.3301 134.422 99.0465 135.216 98.8824C136.025 98.7182 137.119 98.6287 138.512 98.6287H139.366V99.6285H138.527C137.748 99.6285 137.104 99.6584 136.594 99.7032C136.07 99.7479 135.666 99.8375 135.366 99.9718C135.066 100.091 134.842 100.255 134.722 100.464C134.602 100.673 134.527 100.912 134.527 101.225C134.527 101.748 134.707 102.166 135.066 102.494C135.426 102.822 135.92 102.986 136.535 102.986C137.044 102.986 137.493 102.867 137.868 102.628C138.258 102.389 138.557 102.061 138.782 101.643C139.007 101.225 139.112 100.748 139.112 100.211V98.0467C139.112 97.2706 138.947 96.7036 138.632 96.3603C138.317 96.0171 137.793 95.838 137.074 95.838C136.52 95.838 135.98 95.9126 135.456 96.0768C134.931 96.2409 134.407 96.4946 133.853 96.8379L133.328 95.7186C133.658 95.4948 134.032 95.2858 134.452 95.1217C134.872 94.9575 135.306 94.8232 135.77 94.7337C136.22 94.6441 136.669 94.5994 137.089 94.5994C137.883 94.5994 138.542 94.7337 139.067 94.9874C139.591 95.2411 139.966 95.644 140.22 96.1663C140.475 96.6886 140.595 97.3602 140.595 98.181V103.971H139.156V101.837H139.321C139.216 102.315 139.022 102.733 138.737 103.061C138.452 103.404 138.093 103.673 137.688 103.852C137.269 104.046 136.804 104.135 136.28 104.135L136.295 104.15Z" fill="white"/>
<path d="M136.31 104.329C135.651 104.329 135.051 104.195 134.527 103.941C134.003 103.688 133.583 103.314 133.268 102.867C132.954 102.404 132.804 101.897 132.804 101.33C132.804 100.598 132.999 100.016 133.373 99.5986C133.748 99.1807 134.362 98.8823 135.201 98.7032C136.025 98.539 137.134 98.4495 138.542 98.4495H138.962V98.0465C138.962 97.3153 138.812 96.793 138.527 96.4796C138.243 96.1662 137.763 96.017 137.104 96.017C136.565 96.017 136.04 96.0916 135.546 96.2408C135.036 96.39 134.527 96.6437 134.003 96.987L133.823 97.1064L133.134 95.6588L133.268 95.5693C133.598 95.3305 133.988 95.1365 134.422 94.9574C134.857 94.7783 135.306 94.644 135.77 94.5545C136.235 94.4649 136.684 94.4202 137.119 94.4202C137.943 94.4202 138.632 94.5545 139.171 94.8231C139.726 95.1066 140.145 95.5245 140.415 96.0767C140.685 96.6288 140.82 97.3302 140.82 98.1659V104.135H139.007V103.046C139.007 103.046 138.947 103.12 138.917 103.15C138.617 103.509 138.243 103.792 137.793 104.001C137.359 104.195 136.849 104.299 136.31 104.299V104.329ZM138.527 98.8226C137.149 98.8226 136.055 98.8972 135.261 99.0613C134.497 99.2106 133.958 99.4792 133.628 99.8373C133.313 100.196 133.149 100.688 133.149 101.33C133.149 101.822 133.283 102.27 133.553 102.673C133.823 103.076 134.197 103.389 134.677 103.628C135.156 103.867 135.696 103.971 136.295 103.971C136.789 103.971 137.239 103.882 137.628 103.702C138.018 103.523 138.347 103.27 138.617 102.956C138.767 102.777 138.887 102.583 138.977 102.359V101.688C138.977 101.688 138.962 101.718 138.947 101.733C138.707 102.18 138.377 102.538 137.973 102.792C137.553 103.046 137.074 103.18 136.535 103.18C135.875 103.18 135.336 103.001 134.946 102.643C134.542 102.285 134.347 101.807 134.347 101.24C134.347 100.897 134.422 100.613 134.572 100.39C134.722 100.151 134.961 99.9717 135.306 99.8224C135.621 99.6881 136.055 99.5986 136.594 99.5389C137.119 99.4941 137.778 99.4643 138.557 99.4643H138.962V98.8226H138.542H138.527ZM139.351 103.792H140.43V98.1809C140.43 97.3899 140.31 96.7333 140.07 96.2408C139.831 95.7483 139.486 95.3902 138.992 95.1514C138.497 94.9126 137.868 94.7783 137.104 94.7783C136.699 94.7783 136.265 94.8231 135.83 94.9126C135.396 95.0022 134.961 95.1216 134.557 95.2857C134.212 95.435 133.883 95.5991 133.598 95.7782L133.973 96.5691C134.467 96.2707 134.961 96.0319 135.441 95.8976C135.98 95.7334 136.535 95.6588 137.104 95.6588C137.883 95.6588 138.452 95.8528 138.797 96.2408C139.142 96.6288 139.321 97.2258 139.321 98.0615V98.4644H139.576V99.8373H139.321V100.225C139.321 100.763 139.216 101.255 139.007 101.673H139.576L139.531 101.897C139.486 102.091 139.441 102.27 139.366 102.449V103.822L139.351 103.792ZM138.542 99.8224C137.778 99.8224 137.134 99.8523 136.624 99.897C136.13 99.9418 135.726 100.031 135.441 100.151C135.171 100.255 134.991 100.404 134.887 100.569C134.782 100.748 134.722 100.957 134.722 101.225C134.722 101.688 134.887 102.061 135.201 102.359C135.531 102.658 135.98 102.807 136.55 102.807C137.014 102.807 137.434 102.703 137.793 102.479C138.153 102.255 138.437 101.942 138.647 101.568C138.857 101.18 138.962 100.733 138.962 100.21V99.8224H138.557H138.542Z" fill="white"/>
<path d="M148.011 104.15C147.067 104.15 146.363 103.867 145.884 103.315C145.404 102.763 145.165 101.972 145.165 100.927V90.6299H146.708V100.823C146.708 101.27 146.768 101.643 146.888 101.942C147.007 102.24 147.187 102.479 147.427 102.628C147.667 102.777 147.966 102.852 148.326 102.852C148.476 102.852 148.625 102.852 148.775 102.822C148.925 102.792 149.06 102.777 149.18 102.733L149.135 104.016C148.925 104.061 148.745 104.091 148.551 104.106C148.371 104.136 148.176 104.15 147.996 104.15H148.011Z" fill="white"/>
<path d="M148.011 104.329C147.022 104.329 146.258 104.031 145.749 103.434C145.254 102.852 145 102.001 145 100.927V90.4507H146.903V100.822C146.903 101.24 146.962 101.598 147.067 101.867C147.172 102.136 147.322 102.33 147.532 102.464C147.831 102.658 148.311 102.688 148.745 102.643C148.88 102.628 149 102.598 149.12 102.568L149.36 102.494L149.315 104.18L149.165 104.21C148.955 104.255 148.76 104.285 148.581 104.3C148.386 104.329 148.191 104.344 147.996 104.344L148.011 104.329ZM145.359 90.8088V100.927C145.359 101.912 145.584 102.673 146.034 103.195C146.483 103.718 147.127 103.971 148.011 103.971C148.191 103.971 148.371 103.971 148.551 103.941C148.685 103.926 148.835 103.897 148.97 103.882L149 102.986C149 102.986 148.865 103.016 148.805 103.016C148.655 103.031 148.491 103.046 148.341 103.046C147.951 103.046 147.622 102.956 147.352 102.792C147.082 102.613 146.873 102.36 146.738 102.016C146.603 101.688 146.543 101.3 146.543 100.837V90.8387H145.374L145.359 90.8088Z" fill="white"/>
<path d="M155.427 104.15C154.798 104.15 154.229 104.031 153.719 103.777C153.225 103.524 152.82 103.195 152.536 102.762C152.251 102.33 152.101 101.852 152.101 101.33C152.101 100.643 152.281 100.106 152.626 99.7181C152.97 99.3301 153.555 99.0465 154.349 98.8824C155.158 98.7182 156.251 98.6287 157.645 98.6287H158.499V99.6285H157.66C156.881 99.6285 156.236 99.6584 155.727 99.7032C155.203 99.7479 154.798 99.8375 154.499 99.9718C154.199 100.091 153.974 100.255 153.854 100.464C153.734 100.673 153.659 100.912 153.659 101.225C153.659 101.748 153.839 102.166 154.199 102.494C154.558 102.822 155.053 102.986 155.667 102.986C156.177 102.986 156.626 102.867 157.001 102.628C157.39 102.389 157.69 102.061 157.914 101.643C158.139 101.225 158.244 100.748 158.244 100.211V98.0467C158.244 97.2706 158.079 96.7036 157.765 96.3603C157.45 96.0171 156.926 95.838 156.207 95.838C155.652 95.838 155.113 95.9126 154.588 96.0768C154.064 96.2409 153.54 96.4946 152.985 96.8379L152.461 95.7186C152.791 95.4948 153.165 95.2858 153.585 95.1217C154.004 94.9575 154.439 94.8232 154.903 94.7337C155.353 94.6441 155.802 94.5994 156.221 94.5994C157.016 94.5994 157.675 94.7337 158.199 94.9874C158.724 95.2411 159.098 95.644 159.353 96.1663C159.608 96.6886 159.727 97.3602 159.727 98.181V103.971H158.289V101.837H158.454C158.349 102.315 158.154 102.733 157.87 103.061C157.585 103.404 157.225 103.673 156.821 103.852C156.401 104.046 155.937 104.135 155.412 104.135L155.427 104.15Z" fill="white"/>
<path d="M155.428 104.329C154.768 104.329 154.169 104.195 153.645 103.941C153.12 103.688 152.701 103.314 152.386 102.867C152.071 102.404 151.922 101.897 151.922 101.33C151.922 100.598 152.116 100.016 152.491 99.5986C152.866 99.1807 153.48 98.8823 154.319 98.7032C155.143 98.539 156.252 98.4495 157.66 98.4495H158.079V98.0465C158.079 97.3153 157.93 96.793 157.645 96.4796C157.36 96.1662 156.881 96.017 156.222 96.017C155.682 96.017 155.158 96.0916 154.663 96.2408C154.154 96.39 153.645 96.6437 153.12 96.987L152.94 97.1064L152.251 95.6588L152.386 95.5693C152.716 95.3305 153.105 95.1365 153.54 94.9574C153.974 94.7783 154.424 94.644 154.888 94.5545C155.353 94.4649 155.802 94.4202 156.237 94.4202C157.061 94.4202 157.75 94.5545 158.289 94.8231C158.843 95.1066 159.263 95.5245 159.533 96.0767C159.802 96.6288 159.937 97.3302 159.937 98.1659V104.135H158.124V103.046C158.124 103.046 158.064 103.12 158.034 103.15C157.735 103.509 157.36 103.792 156.911 104.001C156.476 104.195 155.967 104.299 155.428 104.299V104.329ZM157.645 98.8226C156.267 98.8226 155.173 98.8972 154.379 99.0613C153.615 99.2106 153.075 99.4792 152.746 99.8373C152.431 100.196 152.266 100.688 152.266 101.33C152.266 101.822 152.401 102.27 152.671 102.673C152.94 103.076 153.315 103.389 153.794 103.628C154.274 103.867 154.813 103.971 155.413 103.971C155.907 103.971 156.356 103.882 156.746 103.702C157.136 103.523 157.465 103.27 157.735 102.956C157.885 102.777 158.004 102.583 158.094 102.359V101.688C158.094 101.688 158.079 101.718 158.064 101.733C157.825 102.18 157.495 102.538 157.091 102.792C156.671 103.046 156.192 103.18 155.652 103.18C154.993 103.18 154.454 103.001 154.064 102.643C153.66 102.285 153.465 101.807 153.465 101.24C153.465 100.897 153.54 100.613 153.69 100.39C153.839 100.151 154.079 99.9717 154.424 99.8224C154.738 99.6881 155.173 99.5986 155.712 99.5389C156.237 99.4941 156.896 99.4643 157.675 99.4643H158.079V98.8226H157.66H157.645ZM158.484 103.792H159.563V98.1809C159.563 97.3899 159.443 96.7333 159.203 96.2408C158.963 95.7483 158.619 95.3902 158.124 95.1514C157.63 94.9126 157.001 94.7783 156.237 94.7783C155.832 94.7783 155.398 94.8231 154.963 94.9126C154.529 95.0022 154.094 95.1216 153.69 95.2857C153.345 95.435 153.015 95.5991 152.731 95.7782L153.105 96.5691C153.6 96.2707 154.094 96.0319 154.574 95.8976C155.113 95.7334 155.667 95.6588 156.237 95.6588C157.016 95.6588 157.585 95.8528 157.93 96.2408C158.274 96.6288 158.454 97.2258 158.454 98.0615V98.4644H158.709V99.8373H158.454V100.225C158.454 100.763 158.349 101.255 158.139 101.673H158.709L158.664 101.897C158.619 102.091 158.574 102.27 158.499 102.449V103.822L158.484 103.792ZM157.675 99.8224C156.911 99.8224 156.267 99.8523 155.757 99.897C155.263 99.9418 154.858 100.031 154.574 100.151C154.304 100.255 154.124 100.404 154.019 100.569C153.914 100.748 153.854 100.957 153.854 101.225C153.854 101.688 154.019 102.061 154.334 102.359C154.663 102.658 155.113 102.807 155.682 102.807C156.147 102.807 156.566 102.703 156.926 102.479C157.285 102.255 157.57 101.942 157.78 101.568C157.989 101.18 158.094 100.733 158.094 100.21V99.8224H157.69H157.675Z" fill="white"/>
<path d="M163.922 103.971V94.7633H165.421V96.8078H165.211C165.481 96.0765 165.915 95.5244 166.514 95.1513C167.114 94.7782 167.803 94.5991 168.597 94.5991C169.331 94.5991 169.945 94.7334 170.425 95.0021C170.919 95.2707 171.279 95.6736 171.518 96.2108C171.758 96.7481 171.878 97.4196 171.878 98.2404V103.971H170.335V98.33C170.335 97.7629 170.26 97.3002 170.11 96.9272C169.96 96.5541 169.736 96.2855 169.421 96.1064C169.106 95.9273 168.702 95.8378 168.207 95.8378C167.653 95.8378 167.159 95.9571 166.739 96.1959C166.32 96.4347 165.99 96.763 165.765 97.1958C165.54 97.6286 165.421 98.136 165.421 98.718V103.956H163.877L163.922 103.971Z" fill="white"/>
<path d="M172.073 104.165H170.17V98.345C170.17 97.8077 170.095 97.36 169.96 97.0168C169.826 96.6885 169.631 96.4497 169.361 96.3005C169.076 96.1363 168.702 96.0617 168.237 96.0617C167.713 96.0617 167.249 96.1662 166.859 96.39C166.469 96.5989 166.17 96.9123 165.96 97.3153C165.75 97.7182 165.645 98.2107 165.645 98.7479V104.18H163.743V94.6141H165.615V95.7483C165.84 95.4648 166.11 95.2111 166.425 95.0171C167.054 94.6291 167.788 94.4351 168.597 94.4351C169.361 94.4351 170.005 94.5694 170.515 94.8529C171.039 95.1365 171.429 95.5692 171.683 96.1363C171.938 96.6885 172.058 97.4048 172.058 98.2405V104.165H172.073ZM170.53 103.792H171.698V98.2405C171.698 97.4496 171.578 96.7929 171.354 96.2856C171.129 95.7931 170.784 95.42 170.335 95.1663C169.87 94.9126 169.286 94.7932 168.582 94.7932C167.833 94.7932 167.174 94.9723 166.604 95.3305C166.185 95.5842 165.84 95.9572 165.6 96.4049V97.0168H164.941L165.031 96.778C165.091 96.6139 165.151 96.4646 165.226 96.3303V94.9872H164.087V103.822H165.256V98.7628C165.256 98.151 165.376 97.6137 165.615 97.1511C165.855 96.6885 166.215 96.3303 166.664 96.0766C167.099 95.8229 167.623 95.7035 168.222 95.7035C168.747 95.7035 169.181 95.808 169.526 95.9871C169.87 96.1811 170.125 96.4945 170.29 96.8974C170.44 97.2854 170.515 97.7779 170.515 98.3599V103.822L170.53 103.792Z" fill="white"/>
<path d="M179.774 104.15C178.845 104.15 178.051 103.941 177.376 103.538C176.702 103.136 176.193 102.568 175.833 101.837C175.474 101.106 175.294 100.27 175.294 99.3152C175.294 98.3601 175.474 97.5094 175.833 96.7931C176.193 96.0768 176.717 95.5395 177.376 95.1665C178.051 94.7934 178.845 94.5994 179.774 94.5994C180.343 94.5994 180.912 94.7038 181.467 94.8978C182.021 95.0918 182.485 95.3903 182.86 95.7485L182.336 96.8677C181.961 96.5096 181.572 96.2559 181.122 96.0917C180.688 95.9275 180.268 95.838 179.879 95.838C178.92 95.838 178.171 96.1365 177.661 96.7334C177.137 97.3303 176.882 98.1959 176.882 99.3152C176.882 100.434 177.137 101.285 177.661 101.912C178.186 102.554 178.92 102.867 179.879 102.867C180.268 102.867 180.688 102.792 181.122 102.628C181.557 102.464 181.961 102.195 182.336 101.837L182.86 102.956C182.485 103.33 182.021 103.613 181.467 103.822C180.897 104.031 180.343 104.135 179.789 104.135L179.774 104.15Z" fill="white"/>
<path d="M179.774 104.329C178.815 104.329 177.976 104.12 177.287 103.702C176.583 103.285 176.043 102.688 175.669 101.927C175.294 101.18 175.114 100.3 175.114 99.315C175.114 98.3301 175.309 97.4496 175.684 96.7184C176.058 95.9871 176.612 95.4051 177.302 95.0171C178.006 94.6291 178.83 94.4202 179.789 94.4202C180.373 94.4202 180.972 94.5246 181.542 94.7336C182.126 94.9425 182.605 95.241 182.995 95.629L183.085 95.7185L182.396 97.181L182.216 97.0019C181.871 96.6736 181.482 96.4199 181.077 96.2707C180.658 96.1214 180.268 96.0319 179.894 96.0319C178.98 96.0319 178.291 96.3005 177.811 96.8676C177.317 97.4347 177.077 98.2555 177.077 99.3299C177.077 100.404 177.332 101.21 177.811 101.822C178.306 102.419 178.98 102.718 179.894 102.718C180.268 102.718 180.658 102.643 181.077 102.479C181.482 102.33 181.871 102.076 182.216 101.733L182.396 101.554L183.1 103.016L183.01 103.106C182.62 103.494 182.141 103.792 181.542 104.016C180.957 104.225 180.373 104.344 179.789 104.344L179.774 104.329ZM179.774 94.7933C178.89 94.7933 178.111 94.9723 177.466 95.3305C176.837 95.6887 176.328 96.211 175.983 96.8825C175.639 97.5541 175.459 98.3749 175.459 99.315C175.459 100.255 175.639 101.061 175.983 101.762C176.328 102.449 176.822 103.001 177.466 103.389C178.111 103.777 178.875 103.971 179.774 103.971C180.298 103.971 180.853 103.867 181.392 103.673C181.886 103.494 182.291 103.24 182.635 102.941L182.261 102.165C181.931 102.464 181.557 102.688 181.182 102.822C180.733 102.986 180.283 103.076 179.879 103.076C178.86 103.076 178.066 102.732 177.511 102.046C176.972 101.374 176.687 100.464 176.687 99.3299C176.687 98.1958 176.972 97.2556 177.511 96.6288C178.066 95.9871 178.86 95.6737 179.879 95.6737C180.283 95.6737 180.733 95.7633 181.182 95.9274C181.572 96.0767 181.931 96.2856 182.261 96.5691L182.635 95.7931C182.306 95.4947 181.886 95.2409 181.407 95.0768C180.868 94.8828 180.328 94.7783 179.774 94.7783V94.7933Z" fill="white"/>
<path d="M190.981 104.15C190.007 104.15 189.168 103.956 188.463 103.568C187.759 103.18 187.22 102.643 186.83 101.927C186.441 101.225 186.246 100.375 186.246 99.3898C186.246 98.4048 186.441 97.599 186.815 96.8826C187.19 96.1663 187.714 95.6142 188.389 95.2112C189.048 94.8083 189.827 94.5994 190.696 94.5994C191.565 94.5994 192.254 94.7784 192.838 95.1515C193.438 95.5246 193.887 96.032 194.217 96.7036C194.546 97.3751 194.696 98.181 194.696 99.1062V99.6882H187.415V98.6884H193.662L193.363 98.9421C193.363 97.9273 193.138 97.1513 192.689 96.5842C192.239 96.0171 191.58 95.7485 190.726 95.7485C190.082 95.7485 189.527 95.8977 189.078 96.1962C188.628 96.4946 188.284 96.8976 188.059 97.4199C187.834 97.9422 187.714 98.5541 187.714 99.2405V99.3599C187.714 100.136 187.834 100.778 188.089 101.315C188.344 101.852 188.703 102.24 189.198 102.524C189.692 102.807 190.276 102.927 190.966 102.927C191.505 102.927 192.044 102.837 192.554 102.673C193.063 102.509 193.558 102.225 194.007 101.837L194.546 102.912C194.127 103.285 193.602 103.598 192.943 103.822C192.299 104.046 191.64 104.165 190.966 104.165L190.981 104.15Z" fill="white"/>
<path d="M190.981 104.329C189.977 104.329 189.108 104.12 188.374 103.732C187.64 103.329 187.07 102.762 186.666 102.016C186.261 101.285 186.066 100.404 186.066 99.3896C186.066 98.3749 186.261 97.5242 186.666 96.793C187.055 96.0617 187.61 95.4648 188.299 95.0469C188.988 94.6291 189.797 94.4202 190.696 94.4202C191.595 94.4202 192.314 94.6142 192.943 95.0022C193.573 95.3902 194.052 95.9274 194.397 96.6288C194.726 97.3153 194.906 98.151 194.906 99.1061V99.8821H187.954C187.999 100.404 188.104 100.852 188.284 101.225C188.509 101.718 188.868 102.091 189.318 102.344C189.782 102.598 190.351 102.732 190.996 102.732C191.52 102.732 192.029 102.643 192.524 102.494C193.018 102.33 193.483 102.061 193.917 101.688L194.097 101.539L194.801 102.956L194.696 103.046C194.262 103.434 193.707 103.762 193.033 103.986C192.374 104.225 191.685 104.344 190.996 104.344L190.981 104.329ZM190.681 94.7933C189.842 94.7933 189.093 94.9873 188.464 95.3753C187.834 95.7633 187.325 96.3005 186.965 96.987C186.606 97.6735 186.411 98.4793 186.411 99.4046C186.411 100.33 186.591 101.18 186.965 101.852C187.34 102.524 187.864 103.046 188.524 103.419C189.198 103.792 190.007 103.971 190.951 103.971C191.595 103.971 192.239 103.867 192.868 103.643C193.438 103.449 193.917 103.18 194.307 102.867L193.932 102.121C193.513 102.449 193.063 102.688 192.599 102.852C192.074 103.031 191.52 103.12 190.951 103.12C190.232 103.12 189.617 102.971 189.093 102.688C188.568 102.404 188.164 101.971 187.909 101.404C187.714 100.972 187.595 100.479 187.535 99.897H187.205V98.5241H187.55C187.61 98.0913 187.714 97.7033 187.864 97.3601C188.104 96.8079 188.464 96.3602 188.943 96.0468C189.422 95.7334 190.007 95.5693 190.696 95.5693C191.61 95.5693 192.314 95.8827 192.808 96.4796C193.213 96.987 193.453 97.6735 193.513 98.5241H194.157L193.153 99.3299V98.8823H187.879C187.879 99.0016 187.879 99.121 187.879 99.2553V99.3747C187.879 99.3747 187.879 99.4792 187.879 99.5389H194.487V99.136C194.487 98.2405 194.337 97.4496 194.022 96.8079C193.722 96.1811 193.273 95.6737 192.719 95.3305C192.149 94.9873 191.46 94.8082 190.666 94.8082L190.681 94.7933ZM187.954 98.5092H193.168C193.108 97.7481 192.898 97.1362 192.554 96.6885C192.134 96.1662 191.535 95.9125 190.726 95.9125C190.112 95.9125 189.602 96.0468 189.183 96.3304C188.763 96.599 188.449 96.987 188.239 97.4795C188.104 97.7928 188.014 98.1361 187.954 98.5092Z" fill="white"/>
<path d="M196.869 103.971V102.046H198.801V103.971H196.869Z" fill="white"/>
<path d="M198.981 104.165H196.674V101.867H198.981V104.165ZM197.048 103.792H198.622V102.225H197.048V103.792Z" fill="white"/>
</g>
<defs>
<clipPath id="clip0_20_1791">
<rect width="200" height="111" fill="white"/>
</clipPath>
</defs>
</svg>
