<svg width="103" height="57" viewBox="0 0 103 57" fill="none" xmlns="http://www.w3.org/2000/svg">
<g clip-path="url(#clip0_22_2018)">
<path d="M16.7281 31.7723H0V0.421509H16.026V3.7474H3.69593V14.1772H15.1001V17.4801H3.69593V28.4541H16.7281V31.7799V31.7723Z" fill="#669B40"/>
<path d="M45.2927 31.8336L42.2295 28.8142C39.7604 30.9523 36.8284 32.0175 33.4333 32.0175C30.7559 32.0175 28.6572 31.3661 27.1449 30.0634C25.6325 28.7606 24.8687 27.1206 24.8687 25.1511C24.8687 22.1165 26.9365 19.6182 31.0645 17.6487C29.7606 16.1084 28.9427 14.9436 28.5954 14.1542C28.2482 13.3649 28.0785 12.5756 28.0785 11.7709C28.0785 10.0773 28.7575 8.65195 30.1155 7.50245C31.4735 6.35295 33.1787 5.7782 35.2389 5.7782C37.299 5.7782 38.8113 6.28398 39.9842 7.29554C41.1493 8.3071 41.7357 9.57156 41.7357 11.0966C41.7357 12.6216 41.2882 13.9014 40.3854 14.9512C39.4903 16.0011 37.9009 17.0587 35.6324 18.1239C38.4796 21.0359 40.7712 23.2813 42.5073 24.8753C43.9193 22.7985 44.66 20.5455 44.7372 18.1239H47.6461C47.5689 21.3501 46.4501 24.2239 44.2897 26.7298L49.6985 31.8336H45.285H45.2927ZM40.4085 26.998L32.8238 19.5109C31.0954 20.3539 29.8763 21.2045 29.1741 22.0552C28.472 22.9058 28.1171 23.8867 28.1171 24.9979C28.1171 26.3083 28.634 27.3735 29.6757 28.1858C30.7173 28.9981 31.9905 29.4043 33.5028 29.4043C36.2805 29.4043 38.5799 28.6073 40.4163 27.0057L40.4085 26.998ZM33.8809 16.4073C35.6015 15.6639 36.8206 14.8976 37.5536 14.1083C38.2867 13.3189 38.6416 12.407 38.6416 11.3648C38.6416 10.4222 38.333 9.67118 37.7157 9.09643C37.0984 8.52934 36.296 8.2458 35.3006 8.2458C34.0892 8.2458 33.1093 8.58298 32.3608 9.2497C31.6124 9.91641 31.2343 10.7594 31.2343 11.7786C31.2343 13.0277 32.1139 14.5681 33.8809 16.4073Z" fill="#669B40"/>
<path d="M61.0949 28.5383H61.01V31.7722H57.3989V0H61.01V13.3189H61.0949C62.8695 10.3455 65.4698 8.85883 68.8879 8.85883C71.7814 8.85883 74.0422 9.86273 75.678 11.8629C77.3138 13.8707 78.1316 16.5528 78.1316 19.917C78.1316 23.6644 77.2134 26.6608 75.3771 28.9138C73.5407 31.1668 71.033 32.2934 67.8463 32.2934C64.8679 32.2934 62.6149 31.0366 61.0871 28.5307L61.0949 28.5383ZM61.0023 19.5109V22.6375C61.0023 24.4921 61.6041 26.0631 62.8155 27.3505C64.0269 28.6379 65.5624 29.2817 67.4296 29.2817C69.6132 29.2817 71.3262 28.454 72.5685 26.7911C73.8107 25.1281 74.428 22.8215 74.428 19.8634C74.428 17.3728 73.8493 15.4187 72.6919 14.0009C71.5345 12.5909 69.9605 11.8782 67.9775 11.8782C65.8787 11.8782 64.1889 12.6062 62.9158 14.0546C61.6427 15.503 61.0023 17.3268 61.0023 19.5109Z" fill="#669B40"/>
<path d="M103 9.38757L92.6296 35.3663C90.7777 40.0027 88.1852 42.317 84.8365 42.317C83.8951 42.317 83.1081 42.225 82.4831 42.0334V38.8225C83.2624 39.0831 83.9723 39.2133 84.6204 39.2133C86.4414 39.2133 87.8071 38.1328 88.7176 35.9794L90.5231 31.7339L81.7192 9.38757H85.7238L91.8194 26.6148C91.8888 26.837 92.0432 27.4041 92.2823 28.3237H92.4135C92.4907 27.9712 92.6296 27.4194 92.8533 26.6608L99.2576 9.38757H103Z" fill="#669B40"/>
<path d="M44.1969 53.3216C44.1738 53.4059 44.1507 53.4826 44.1352 53.5515C44.1044 53.4289 44.0812 53.3523 44.0658 53.314L42.646 49.306H41.5967L43.6491 54.5094L43.2402 55.4674C42.9624 56.1188 42.5303 56.3103 41.8745 56.0881L41.7973 56.0651V56.9234L41.8359 56.9387C41.9825 56.9847 42.1754 57.0077 42.3991 57.0077C43.1939 57.0077 43.8112 56.4559 44.2432 55.3677L46.6352 49.3827L46.666 49.306H45.6784L44.1892 53.3293L44.1969 53.3216Z" fill="#0068B5"/>
<path d="M4.15888 46.6929C3.80395 46.5319 3.37186 46.4476 2.86261 46.4476H0.0385742V53.4903H1.02621V50.7544H2.86261C3.37186 50.7544 3.80395 50.6701 4.15888 50.5015C4.52153 50.333 4.79159 50.0801 4.97677 49.7505C5.16195 49.4287 5.25454 49.0378 5.25454 48.5934C5.25454 48.1489 5.16195 47.7427 4.97677 47.4209C4.79159 47.099 4.51381 46.8461 4.15888 46.6852V46.6929ZM1.02621 47.2906H2.7623C3.26383 47.2906 3.64963 47.4055 3.89654 47.6201C4.14345 47.8347 4.26691 48.1642 4.26691 48.5934C4.26691 49.0225 4.14345 49.3367 3.89654 49.559C3.64191 49.7812 3.26383 49.8885 2.7623 49.8885H1.02621V47.2829V47.2906Z" fill="#0068B5"/>
<path d="M9.77599 48.785C9.45964 48.5857 9.06612 48.4861 8.6186 48.4861C8.17107 48.4861 7.73898 48.5934 7.38405 48.8079C7.02912 49.0225 6.74363 49.3291 6.54301 49.7046C6.3424 50.0801 6.23438 50.5322 6.23438 51.038C6.23438 51.5438 6.3424 52.0112 6.54301 52.3867C6.75134 52.7622 7.04455 53.0611 7.42263 53.268C7.79299 53.4749 8.24823 53.5746 8.7652 53.5746C9.12013 53.5746 9.47507 53.5132 9.81457 53.3906C10.1541 53.268 10.4473 53.1071 10.671 52.9078L10.725 52.8619L10.3624 52.1338L10.2698 52.2105C10.046 52.4021 9.80685 52.54 9.55223 52.6243C9.2976 52.7086 9.03526 52.7469 8.7652 52.7469C8.43342 52.7469 8.14021 52.6779 7.90102 52.5477C7.66954 52.4174 7.48436 52.2258 7.36862 51.9729C7.27603 51.7813 7.22201 51.5438 7.19887 51.2832H10.7791V50.8847C10.7791 50.3943 10.6942 49.9651 10.5167 49.6126C10.347 49.2524 10.0923 48.9765 9.76827 48.7773L9.77599 48.785ZM7.35319 50.0647C7.46121 49.8118 7.63096 49.6126 7.83929 49.4747C8.05534 49.3367 8.31768 49.2601 8.63403 49.2601C9.05069 49.2601 9.35933 49.3904 9.57537 49.6586C9.76056 49.8885 9.86858 50.2027 9.89173 50.5935H7.20658C7.22973 50.4019 7.28374 50.2257 7.35319 50.0647Z" fill="#0068B5"/>
<path d="M15.1385 48.4784C14.6756 48.5091 14.2898 48.6317 14.0043 48.8386C13.8808 48.9306 13.7651 49.0379 13.6725 49.1682V48.5704H12.708V53.4826H13.6956V50.6932C13.6956 50.3023 13.8037 49.9881 14.0274 49.7582C14.2512 49.536 14.5753 49.3981 14.9919 49.3597L15.5783 49.2908L15.5012 48.4248L15.1231 48.4631L15.1385 48.4784Z" fill="#0068B5"/>
<path d="M19.1278 47.7734C19.1973 47.6124 19.3053 47.4898 19.4596 47.3979C19.6139 47.3059 19.8223 47.2523 20.0769 47.2369L20.6247 47.1986L20.5321 46.4093L20.0615 46.4323C19.3825 46.4706 18.8655 46.6622 18.5337 47.007C18.2019 47.3442 18.0322 47.85 18.0322 48.5014V48.5704H17.0908V49.3674H18.0322V53.4826H19.0121V49.3674H20.3855V48.5704H19.0121V48.4018C19.0121 48.1489 19.0507 47.9343 19.1201 47.7657L19.1278 47.7734Z" fill="#0068B5"/>
<path d="M25.3312 48.785C25.0148 48.5857 24.6213 48.4861 24.1738 48.4861C23.7263 48.4861 23.2942 48.5934 22.9392 48.8079C22.5843 49.0225 22.2988 49.3291 22.0982 49.7046C21.8976 50.0801 21.7896 50.5322 21.7896 51.038C21.7896 51.5438 21.8976 52.0112 22.0982 52.3867C22.3065 52.7622 22.5997 53.0611 22.9778 53.268C23.3482 53.4749 23.8034 53.5746 24.3204 53.5746C24.6753 53.5746 25.0302 53.5132 25.3697 53.3906C25.7092 53.268 26.0025 53.1071 26.2262 52.9078L26.2802 52.8619L25.9176 52.1338L25.825 52.2105C25.6012 52.4021 25.362 52.54 25.1074 52.6243C24.8528 52.7086 24.5904 52.7469 24.3204 52.7469C23.9886 52.7469 23.6954 52.6779 23.4562 52.5477C23.2247 52.4174 23.0395 52.2258 22.9238 51.9729C22.8312 51.7813 22.7772 51.5438 22.754 51.2832H26.3342V50.8847C26.3342 50.3943 26.2494 49.9651 26.0719 49.6126C25.9021 49.2524 25.6475 48.9765 25.3234 48.7773L25.3312 48.785ZM22.9084 50.0647C23.0164 49.8118 23.1861 49.6126 23.3945 49.4747C23.6105 49.3367 23.8729 49.2601 24.1892 49.2601C24.6059 49.2601 24.9145 49.3904 25.1305 49.6586C25.3157 49.8885 25.4238 50.2027 25.4469 50.5935H22.7618C22.7849 50.4019 22.8389 50.2257 22.9084 50.0647Z" fill="#0068B5"/>
<path d="M30.3081 49.3137C30.4932 49.3137 30.7016 49.352 30.9176 49.4363C31.1337 49.513 31.3266 49.6432 31.504 49.8118L31.5966 49.9038L31.9516 49.1528L31.9053 49.1068C31.7046 48.9076 31.4577 48.7543 31.1568 48.647C30.8636 48.5397 30.555 48.4861 30.2541 48.4861C29.7602 48.4861 29.3359 48.5857 28.9732 48.7926C28.6106 48.9919 28.3328 49.2907 28.1399 49.6662C27.947 50.0417 27.8467 50.4939 27.8467 50.9997C27.8467 51.5054 27.947 51.9576 28.1322 52.3408C28.3251 52.7316 28.6028 53.0381 28.9655 53.2527C29.3281 53.4673 29.7525 53.5746 30.2463 53.5746C30.5395 53.5746 30.8405 53.5209 31.1491 53.406C31.45 53.291 31.7046 53.1377 31.9053 52.9385L31.9516 52.8925L31.5889 52.1415L31.4963 52.2335C31.3188 52.4097 31.1182 52.54 30.9099 52.6166C30.6939 52.6933 30.4932 52.7392 30.3003 52.7392C29.8297 52.7392 29.4825 52.5936 29.2278 52.2794C28.9732 51.9729 28.8498 51.5438 28.8498 50.9997C28.8498 50.4556 28.9809 50.0188 29.2278 49.7352C29.4825 49.444 29.8297 49.3061 30.3003 49.3061L30.3081 49.3137Z" fill="#0068B5"/>
<path d="M36.5889 52.6013C36.504 52.6243 36.4114 52.6549 36.3111 52.6779C36.2185 52.7009 36.1182 52.7162 36.0179 52.7162C35.6938 52.7162 35.4623 52.6319 35.3234 52.4633C35.1846 52.2871 35.1074 52.0265 35.1074 51.6817V49.375H36.612V48.578H35.1074V47.1296H34.1275V48.578H33.1938V49.375H34.1275V51.7583C34.1275 52.3331 34.2741 52.7852 34.575 53.0994C34.8759 53.4136 35.3234 53.5745 35.9099 53.5745C36.0642 53.5745 36.2339 53.5515 36.4037 53.5132C36.5734 53.4749 36.7046 53.4289 36.7972 53.3753L36.8589 53.3446L36.6814 52.5783L36.5811 52.6089L36.5889 52.6013Z" fill="#0068B5"/>
<path d="M40.4236 52.7009C40.1921 52.7316 39.9529 52.7086 39.7986 52.6089C39.6906 52.54 39.6134 52.4403 39.5594 52.3024C39.5054 52.1568 39.4746 51.9805 39.4746 51.766V46.4399H38.4946V51.8196C38.4946 52.3714 38.6258 52.8005 38.8804 53.1071C39.1428 53.4136 39.5363 53.5669 40.0455 53.5669C40.1458 53.5669 40.2461 53.5669 40.3465 53.5439C40.439 53.5285 40.5394 53.5132 40.6474 53.4979L40.7245 53.4826L40.7477 52.6166L40.6242 52.6549C40.5625 52.6702 40.4931 52.6856 40.4313 52.6932L40.4236 52.7009Z" fill="#0068B5"/>
<path d="M50.6318 48.578H49.6519V53.4902H50.6318V48.578Z" fill="#0068B5"/>
<path d="M50.7169 46.5166H49.5518V47.5895H50.7169V46.5166Z" fill="#0068B5"/>
<path d="M56.4886 48.7007C56.2262 48.5551 55.8944 48.4861 55.5009 48.4861C55.0843 48.4861 54.7062 48.5857 54.3821 48.785C54.2201 48.8846 54.0812 49.0072 53.9655 49.1605V48.578H53.001V53.4903H53.9809V50.7008C53.9809 50.4173 54.0349 50.172 54.1429 49.9651C54.251 49.7582 54.4053 49.5973 54.6059 49.49C54.8065 49.375 55.0457 49.3214 55.3158 49.3214C55.555 49.3214 55.7478 49.3597 55.8945 49.444C56.0333 49.5206 56.1414 49.6509 56.2031 49.8118C56.2725 49.9881 56.3111 50.218 56.3111 50.4939V53.4826H57.291V50.4402C57.291 50.0111 57.2293 49.6433 57.0981 49.3597C56.967 49.0685 56.7664 48.8463 56.4963 48.7007H56.4886Z" fill="#0068B5"/>
<path d="M65.9558 50.0264C65.8555 49.9651 65.7475 49.9114 65.6318 49.8655C65.8401 49.7582 66.0098 49.6279 66.1564 49.4593C66.4188 49.1604 66.5577 48.7773 66.5577 48.3251C66.5577 47.7274 66.3493 47.2599 65.9327 46.9304C65.5237 46.6085 64.9527 46.4399 64.2275 46.4399H61.3726V53.4826H64.3432C64.837 53.4826 65.2614 53.4059 65.6163 53.2603C65.9713 53.1147 66.249 52.8848 66.4342 52.586C66.6194 52.2871 66.7197 51.9269 66.7197 51.4978C66.7197 51.1682 66.6503 50.8694 66.5268 50.6241C66.3956 50.3712 66.2027 50.172 65.9558 50.0111V50.0264ZM62.3525 50.3406H64.2738C64.4744 50.3406 64.6595 50.3559 64.8216 50.3866C64.9759 50.4172 65.1148 50.4632 65.2305 50.5245C65.3463 50.5858 65.4389 50.6624 65.516 50.7467C65.5932 50.8387 65.6472 50.946 65.6858 51.0686C65.7243 51.1912 65.7475 51.3368 65.7475 51.5054C65.7475 51.674 65.7243 51.8119 65.6858 51.9346C65.6472 52.0572 65.5932 52.1645 65.516 52.2488C65.4389 52.3407 65.3463 52.4097 65.2305 52.4787C65.1148 52.54 64.9759 52.586 64.8216 52.6166C64.6595 52.6473 64.4821 52.6626 64.2738 52.6626H62.3525V50.3406ZM65.2151 49.2141C64.9682 49.4057 64.5978 49.5053 64.1117 49.5053H62.3448V47.2676H64.1117C64.5978 47.2676 64.9682 47.3672 65.2151 47.5511C65.4543 47.735 65.5777 48.0109 65.5777 48.3864C65.5777 48.7619 65.462 49.0148 65.2151 49.2064V49.2141Z" fill="#0068B5"/>
<path d="M71.6655 48.693C71.3877 48.5551 71.0328 48.4861 70.6084 48.4861C70.3847 48.4861 70.1532 48.5091 69.914 48.5551C69.6748 48.601 69.4433 48.67 69.2196 48.762C68.9958 48.8539 68.7952 48.9612 68.6254 49.0762L68.556 49.1221L68.9109 49.8655L69.0035 49.8042C69.2736 49.6279 69.5436 49.4976 69.7982 49.421C70.0529 49.3444 70.3229 49.3061 70.6007 49.3061C70.9402 49.3061 71.1871 49.3827 71.3337 49.5436C71.4803 49.7046 71.5575 49.9728 71.5575 50.3483V50.5552H71.3414C70.6239 50.5552 70.0452 50.6012 69.6208 50.6855C69.1887 50.7774 68.8723 50.9307 68.6794 51.1453C68.4865 51.3598 68.3862 51.6587 68.3862 52.0342C68.3862 52.3254 68.4711 52.5936 68.6254 52.8235C68.7875 53.0534 69.0035 53.245 69.2736 53.3753C69.5436 53.5056 69.8523 53.5746 70.1918 53.5746C70.4695 53.5746 70.7319 53.5209 70.9556 53.4213C71.1794 53.3217 71.38 53.1684 71.5343 52.9845C71.5498 52.9691 71.5652 52.9462 71.5806 52.9308V53.4903H72.5143V50.4249C72.5143 49.9881 72.4448 49.6279 72.3059 49.352C72.167 49.0685 71.951 48.8463 71.6655 48.7083V48.693ZM70.9634 52.6243C70.7782 52.7392 70.5621 52.7929 70.3229 52.7929C70.0297 52.7929 69.7982 52.7162 69.6285 52.563C69.4587 52.4097 69.3816 52.2181 69.3816 51.9806C69.3816 51.8426 69.4125 51.7277 69.4665 51.6434C69.5205 51.5591 69.6208 51.4825 69.752 51.4288C69.8986 51.3675 70.1069 51.3215 70.3615 51.2985C70.6239 51.2755 70.9556 51.2602 71.3492 51.2602H71.5575V51.4595C71.5575 51.72 71.5035 51.9576 71.3954 52.1568C71.2874 52.3561 71.1408 52.517 70.9556 52.6243H70.9634Z" fill="#0068B5"/>
<path d="M76.6116 52.7009C76.3878 52.7316 76.1409 52.7086 75.9866 52.6089C75.8786 52.54 75.8014 52.4403 75.7474 52.3024C75.6934 52.1568 75.6625 51.9805 75.6625 51.766V46.4399H74.6826V51.8196C74.6826 52.3714 74.8138 52.8005 75.0684 53.1071C75.3308 53.4136 75.7243 53.5669 76.2335 53.5669C76.3338 53.5669 76.4341 53.5669 76.5344 53.5439C76.627 53.5285 76.7273 53.5132 76.8354 53.4979L76.9125 53.4826L76.9357 52.6166L76.8122 52.6549C76.7505 52.6702 76.681 52.6856 76.6193 52.6932L76.6116 52.7009Z" fill="#0068B5"/>
<path d="M81.5112 48.693C81.2334 48.5551 80.8785 48.4861 80.4541 48.4861C80.2304 48.4861 79.9989 48.5091 79.7597 48.5551C79.5205 48.601 79.289 48.67 79.0653 48.762C78.8415 48.8539 78.6409 48.9612 78.4711 49.0762L78.4017 49.1221L78.7566 49.8655L78.8492 49.8042C79.1193 49.6279 79.3893 49.4976 79.644 49.421C79.8986 49.3444 80.1686 49.3061 80.4464 49.3061C80.7859 49.3061 81.0328 49.3827 81.1794 49.5436C81.326 49.7046 81.4032 49.9728 81.4032 50.3483V50.5552H81.1871C80.4696 50.5552 79.8909 50.6012 79.4665 50.6855C79.0344 50.7774 78.718 50.9307 78.5251 51.1453C78.3322 51.3598 78.2319 51.6587 78.2319 52.0342C78.2319 52.3254 78.3168 52.5936 78.4711 52.8235C78.6332 53.0534 78.8492 53.245 79.1193 53.3753C79.3893 53.5056 79.698 53.5746 80.0375 53.5746C80.3152 53.5746 80.5776 53.5209 80.8013 53.4213C81.0251 53.3217 81.2257 53.1684 81.38 52.9845C81.3955 52.9691 81.4109 52.9462 81.4263 52.9308V53.4903H82.36V50.4249C82.36 49.9881 82.2905 49.6279 82.1516 49.352C82.0127 49.0685 81.7967 48.8463 81.5112 48.7083V48.693ZM80.8091 52.6243C80.6239 52.7392 80.4078 52.7929 80.1686 52.7929C79.8754 52.7929 79.6439 52.7162 79.4742 52.563C79.3044 52.4097 79.2273 52.2181 79.2273 51.9806C79.2273 51.8426 79.2582 51.7277 79.3122 51.6434C79.3662 51.5591 79.4665 51.4825 79.5977 51.4288C79.7443 51.3675 79.9526 51.3215 80.2072 51.2985C80.4696 51.2755 80.8013 51.2602 81.1949 51.2602H81.4032V51.4595C81.4032 51.72 81.3492 51.9576 81.2411 52.1568C81.1331 52.3561 80.9865 52.517 80.8013 52.6243H80.8091Z" fill="#0068B5"/>
<path d="M87.8152 48.7007C87.5529 48.5551 87.2211 48.4861 86.8276 48.4861C86.4109 48.4861 86.0329 48.5857 85.7088 48.785C85.5468 48.8846 85.4079 49.0072 85.2921 49.1605V48.578H84.3276V53.4903H85.3076V50.7008C85.3076 50.4173 85.3616 50.172 85.4696 49.9651C85.5776 49.7582 85.7319 49.5973 85.9326 49.49C86.1332 49.375 86.3724 49.3214 86.6424 49.3214C86.8816 49.3214 87.0745 49.3597 87.2211 49.444C87.36 49.5206 87.468 49.6509 87.5297 49.8118C87.5992 49.9881 87.6378 50.218 87.6378 50.4939V53.4826H88.6177V50.4402C88.6177 50.0111 88.556 49.6433 88.4248 49.3597C88.2936 49.0685 88.093 48.8463 87.823 48.7007H87.8152Z" fill="#0068B5"/>
<path d="M92.6298 49.3137C92.815 49.3137 93.0233 49.352 93.2394 49.4363C93.4554 49.513 93.6483 49.6432 93.8258 49.8118L93.9184 49.9038L94.2733 49.1528L94.227 49.1068C94.0264 48.9076 93.7795 48.7543 93.4786 48.647C93.1854 48.5397 92.8768 48.4861 92.5758 48.4861C92.082 48.4861 91.6576 48.5857 91.295 48.7926C90.9323 48.9919 90.6546 49.2907 90.4617 49.6662C90.2688 50.0417 90.1685 50.4939 90.1685 50.9997C90.1685 51.5054 90.2688 51.9576 90.4539 52.3408C90.6468 52.7316 90.9246 53.0381 91.2873 53.2527C91.6499 53.4673 92.0743 53.5746 92.5681 53.5746C92.8613 53.5746 93.1622 53.5209 93.4709 53.406C93.7718 53.291 94.0264 53.1377 94.227 52.9385L94.2733 52.8925L93.9107 52.1415L93.8181 52.2335C93.6406 52.4097 93.44 52.54 93.2317 52.6166C93.0156 52.6933 92.815 52.7392 92.6221 52.7392C92.1515 52.7392 91.8042 52.5936 91.5496 52.2794C91.295 51.9729 91.1715 51.5438 91.1715 50.9997C91.1715 50.4556 91.3027 50.0188 91.5496 49.7352C91.8042 49.444 92.1515 49.3061 92.6221 49.3061L92.6298 49.3137Z" fill="#0068B5"/>
<path d="M99.358 48.785C99.0417 48.5857 98.6482 48.4861 98.2006 48.4861C97.7531 48.4861 97.321 48.5934 96.9661 48.8079C96.6111 49.0225 96.3257 49.3291 96.125 49.7046C95.9244 50.0801 95.8164 50.5322 95.8164 51.038C95.8164 51.5438 95.9244 52.0112 96.125 52.3867C96.3334 52.7622 96.6266 53.0611 97.0047 53.268C97.375 53.4749 97.8303 53.5746 98.3472 53.5746C98.7022 53.5746 99.0571 53.5132 99.3966 53.3906C99.7361 53.268 100.029 53.1071 100.253 52.9078L100.307 52.8619L99.9444 52.1338L99.8518 52.2105C99.6281 52.4021 99.3889 52.54 99.1343 52.6243C98.8796 52.7086 98.6173 52.7469 98.3472 52.7469C98.0154 52.7469 97.7222 52.6779 97.483 52.5477C97.2516 52.4174 97.0664 52.2258 96.9506 51.9729C96.8581 51.7813 96.804 51.5438 96.7809 51.2832H100.361V50.8847C100.361 50.3943 100.276 49.9651 100.099 49.6126C99.929 49.2524 99.6744 48.9765 99.3503 48.7773L99.358 48.785ZM96.9429 50.0647C97.051 49.8118 97.2207 49.6126 97.429 49.4747C97.6451 49.3367 97.9074 49.2601 98.2238 49.2601C98.6404 49.2601 98.9491 49.3904 99.1651 49.6586C99.3503 49.8885 99.4583 50.2027 99.4815 50.5935H96.7963C96.8195 50.4019 96.8735 50.2257 96.9429 50.0647Z" fill="#0068B5"/>
<path d="M102.483 52.3101H101.295V53.4902H102.483V52.3101Z" fill="#0068B5"/>
</g>
<defs>
<clipPath id="clip0_22_2018">
<rect width="103" height="57" fill="white"/>
</clipPath>
</defs>
</svg>
