<svg width="145" height="80" viewBox="0 0 145 80" fill="none" xmlns="http://www.w3.org/2000/svg">
<path d="M23.4747 44.5865H0V0.591797H22.4893V5.25904H5.18652V19.8953H21.19V24.5302H5.18652V39.93H23.4747V44.5972V44.5865Z" fill="#669B40"/>
<path d="M63.5591 44.6711L59.2605 40.434C55.7956 43.4343 51.681 44.9292 46.9168 44.9292C43.1596 44.9292 40.2144 44.0151 38.0922 42.1869C35.9699 40.3587 34.8979 38.0573 34.8979 35.2936C34.8979 31.035 37.7998 27.5292 43.5927 24.7654C41.7628 22.6038 40.615 20.9692 40.1278 19.8616C39.6405 18.7539 39.4023 17.6462 39.4023 16.5171C39.4023 14.1404 40.3552 12.1402 42.2609 10.5271C44.1665 8.91397 46.5595 8.10742 49.4505 8.10742C52.3415 8.10742 54.4638 8.81719 56.1096 10.2367C57.7446 11.6562 58.5675 13.4307 58.5675 15.5707C58.5675 17.7108 57.9395 19.5067 56.6727 20.98C55.4166 22.4533 53.1861 23.9373 50.0027 25.4321C53.9982 29.5187 57.2141 32.6696 59.6503 34.9064C61.6318 31.9921 62.6713 28.8304 62.7795 25.4321H66.8616C66.7533 29.9596 65.1833 33.9923 62.1515 37.5089L69.7418 44.6711H63.5483H63.5591ZM56.7051 37.8853L46.0614 27.3786C43.636 28.5616 41.9252 29.7552 40.9399 30.9489C39.9545 32.1426 39.4565 33.5191 39.4565 35.0785C39.4565 36.9174 40.1819 38.4122 41.6437 39.5522C43.1054 40.6921 44.892 41.262 47.0143 41.262C50.9123 41.262 54.139 40.1436 56.716 37.896L56.7051 37.8853ZM47.5448 23.0232C49.9594 21.9801 51.6702 20.9047 52.6989 19.797C53.7275 18.6894 54.2256 17.4096 54.2256 15.9471C54.2256 14.6244 53.7925 13.5705 52.9262 12.7639C52.06 11.9681 50.9339 11.5702 49.5371 11.5702C47.8372 11.5702 46.462 12.0434 45.4117 12.979C44.3614 13.9146 43.8309 15.0975 43.8309 16.5278C43.8309 18.2807 45.0653 20.4423 47.5448 23.0232Z" fill="#669B40"/>
<path d="M85.7344 40.0479H85.6153V44.5861H80.5479V0H85.6153V18.6905H85.7344C88.2248 14.5179 91.8737 12.4316 96.6704 12.4316C100.731 12.4316 103.903 13.8404 106.199 16.6472C108.494 19.4648 109.642 23.2287 109.642 27.9497C109.642 33.2084 108.354 37.4132 105.777 40.5749C103.2 43.7366 99.6806 45.3174 95.2087 45.3174C91.0292 45.3174 87.8674 43.5537 85.7235 40.0372L85.7344 40.0479ZM85.6044 27.3797V31.7674C85.6044 34.3698 86.449 36.5744 88.149 38.3811C89.8489 40.1877 92.0037 41.0911 94.624 41.0911C97.6883 41.0911 100.092 39.9296 101.835 37.596C103.579 35.2624 104.445 32.0254 104.445 27.8744C104.445 24.3793 103.633 21.6371 102.009 19.6476C100.384 17.6688 98.1755 16.6687 95.3928 16.6687C92.4476 16.6687 90.0763 17.6903 88.2897 19.7229C86.5031 21.7554 85.6044 24.3148 85.6044 27.3797Z" fill="#669B40"/>
<path d="M144.54 13.1719L129.988 49.628C127.389 56.1342 123.751 59.3819 119.052 59.3819C117.731 59.3819 116.626 59.2528 115.749 58.984V54.478C116.843 54.8437 117.839 55.0265 118.748 55.0265C121.304 55.0265 123.22 53.5102 124.498 50.4883L127.032 44.5306L114.677 13.1719H120.297L128.851 37.3469C128.948 37.6588 129.165 38.4546 129.501 39.745H129.685C129.793 39.2504 129.988 38.4761 130.302 37.4114L139.289 13.1719H144.54Z" fill="#669B40"/>
<path d="M62.0215 74.8285C61.989 74.9468 61.9566 75.0543 61.9349 75.1511C61.8916 74.979 61.8591 74.8715 61.8375 74.8177L59.8451 69.1934H58.3726L61.2528 76.4953L60.6789 77.8396C60.2891 78.7537 59.6827 79.0225 58.7624 78.7107L58.6541 78.6784V79.8829L58.7082 79.9044C58.914 79.9689 59.1846 80.0011 59.4987 80.0011C60.6139 80.0011 61.4801 79.2269 62.0865 77.6998L65.4431 69.3009L65.4864 69.1934H64.1005L62.0107 74.8392L62.0215 74.8285Z" fill="#0068B5"/>
<path d="M5.83624 65.5277C5.33817 65.3019 4.73181 65.1836 4.01717 65.1836H0.0541992V75.0665H1.44016V71.2274H4.01717C4.73181 71.2274 5.33817 71.1091 5.83624 70.8725C6.34515 70.6359 6.72412 70.281 6.98399 69.8186C7.24386 69.3669 7.37379 68.8184 7.37379 68.1947C7.37379 67.571 7.24386 67.001 6.98399 66.5494C6.72412 66.0977 6.33432 65.7428 5.83624 65.517V65.5277ZM1.44016 66.3665H3.87641C4.58022 66.3665 5.12161 66.5278 5.4681 66.829C5.81459 67.1301 5.98783 67.5925 5.98783 68.1947C5.98783 68.7969 5.81459 69.2379 5.4681 69.5497C5.11078 69.8616 4.58022 70.0121 3.87641 70.0121H1.44016V66.3558V66.3665Z" fill="#0068B5"/>
<path d="M13.719 68.4624C13.275 68.1828 12.7228 68.043 12.0948 68.043C11.4668 68.043 10.8604 68.1935 10.3624 68.4946C9.86429 68.7957 9.46366 69.2259 9.18214 69.7529C8.90061 70.2798 8.74902 70.9143 8.74902 71.6241C8.74902 72.3338 8.90061 72.9898 9.18214 73.5168C9.47449 74.0437 9.88594 74.4631 10.4165 74.7535C10.9362 75.0438 11.5751 75.1836 12.3005 75.1836C12.7986 75.1836 13.2967 75.0976 13.7731 74.9255C14.2495 74.7535 14.661 74.5276 14.975 74.248L15.0508 74.1835L14.5419 73.1619L14.412 73.2694C14.098 73.5383 13.7623 73.7318 13.405 73.8501C13.0477 73.9684 12.6795 74.0222 12.3005 74.0222C11.8349 74.0222 11.4235 73.9254 11.0878 73.7426C10.763 73.5598 10.5031 73.2909 10.3407 72.936C10.2108 72.6672 10.135 72.3338 10.1025 71.9682H15.1266V71.409C15.1266 70.7207 15.0075 70.1185 14.7585 69.6238C14.5202 69.1184 14.1629 68.7312 13.7082 68.4516L13.719 68.4624ZM10.3191 70.2583C10.4706 69.9034 10.7089 69.6238 11.0012 69.4302C11.3044 69.2367 11.6725 69.1291 12.1165 69.1291C12.7012 69.1291 13.1343 69.3119 13.4375 69.6883C13.6973 70.011 13.8489 70.4519 13.8814 71.0003H10.1133C10.1458 70.7315 10.2216 70.4841 10.3191 70.2583Z" fill="#0068B5"/>
<path d="M21.2443 68.0323C20.5946 68.0753 20.0532 68.2474 19.6526 68.5377C19.4793 68.6668 19.3169 68.8174 19.187 69.0002V68.1614H17.8335V75.0547H19.2195V71.1402C19.2195 70.5918 19.371 70.1509 19.6851 69.8282C19.9991 69.5164 20.4538 69.3228 21.0385 69.269L21.8614 69.1722L21.7532 67.957L21.2226 68.0108L21.2443 68.0323Z" fill="#0068B5"/>
<path d="M26.8424 67.0431C26.9399 66.8173 27.0915 66.6452 27.308 66.5162C27.5246 66.3871 27.8169 66.3118 28.1742 66.2903L28.943 66.2366L28.8131 65.1289L28.1526 65.1612C27.1997 65.2149 26.4743 65.4838 26.0087 65.9677C25.5431 66.4409 25.3049 67.1507 25.3049 68.0648V68.1615H23.9839V69.28H25.3049V75.0549H26.68V69.28H28.6074V68.1615H26.68V67.9249C26.68 67.5701 26.7341 67.269 26.8316 67.0324L26.8424 67.0431Z" fill="#0068B5"/>
<path d="M35.5476 68.4624C35.1037 68.1828 34.5514 68.043 33.9234 68.043C33.2954 68.043 32.6891 68.1935 32.191 68.4946C31.6929 68.7957 31.2923 69.2259 31.0107 69.7529C30.7292 70.2798 30.5776 70.9143 30.5776 71.6241C30.5776 72.3338 30.7292 72.9898 31.0107 73.5168C31.3031 74.0437 31.7146 74.4631 32.2451 74.7535C32.7649 75.0438 33.4037 75.1836 34.1292 75.1836C34.6272 75.1836 35.1253 75.0976 35.6017 74.9255C36.0782 74.7535 36.4896 74.5276 36.8036 74.248L36.8794 74.1835L36.3705 73.1619L36.2406 73.2694C35.9266 73.5383 35.5909 73.7318 35.2336 73.8501C34.8763 73.9684 34.5081 74.0222 34.1292 74.0222C33.6636 74.0222 33.2521 73.9254 32.9164 73.7426C32.5916 73.5598 32.3317 73.2909 32.1693 72.936C32.0394 72.6672 31.9636 72.3338 31.9311 71.9682H36.9552V71.409C36.9552 70.7207 36.8361 70.1185 36.5871 69.6238C36.3489 69.1184 35.9915 68.7312 35.5368 68.4516L35.5476 68.4624ZM32.1477 70.2583C32.2993 69.9034 32.5375 69.6238 32.8298 69.4302C33.133 69.2367 33.5011 69.1291 33.9451 69.1291C34.5298 69.1291 34.9629 69.3119 35.2661 69.6883C35.5259 70.011 35.6775 70.4519 35.71 71.0003H31.9419C31.9744 70.7315 32.0502 70.4841 32.1477 70.2583Z" fill="#0068B5"/>
<path d="M42.5317 69.2044C42.7916 69.2044 43.0839 69.2582 43.3871 69.3765C43.6903 69.484 43.961 69.6668 44.21 69.9034L44.3399 70.0325L44.838 68.9786L44.7731 68.914C44.4915 68.6344 44.145 68.4194 43.7228 68.2688C43.3113 68.1182 42.8782 68.043 42.4559 68.043C41.7629 68.043 41.1674 68.1828 40.6585 68.4731C40.1496 68.7527 39.7598 69.1721 39.4891 69.6991C39.2184 70.226 39.0776 70.8605 39.0776 71.5703C39.0776 72.2801 39.2184 72.9145 39.4783 73.4522C39.749 74.0007 40.1388 74.4308 40.6477 74.732C41.1566 75.0331 41.7521 75.1836 42.4451 75.1836C42.8565 75.1836 43.2788 75.1084 43.7119 74.947C44.1342 74.7857 44.4915 74.5707 44.7731 74.2911L44.838 74.2265L44.3291 73.1726L44.1992 73.3017C43.9501 73.549 43.6686 73.7318 43.3763 73.8394C43.0731 73.9469 42.7916 74.0114 42.5209 74.0114C41.8604 74.0114 41.3731 73.8071 41.0158 73.3662C40.6585 72.936 40.4853 72.3338 40.4853 71.5703C40.4853 70.8068 40.6693 70.1938 41.0158 69.7959C41.3731 69.3872 41.8604 69.1936 42.5209 69.1936L42.5317 69.2044Z" fill="#0068B5"/>
<path d="M51.3458 73.819C51.2267 73.8513 51.0967 73.8943 50.956 73.9265C50.826 73.9588 50.6853 73.9803 50.5445 73.9803C50.0898 73.9803 49.7649 73.862 49.57 73.6254C49.3751 73.3781 49.2668 73.0124 49.2668 72.5285V69.2916H51.3783V68.1731H49.2668V66.1406H47.8917V68.1731H46.5815V69.2916H47.8917V72.636C47.8917 73.4426 48.0974 74.0771 48.5197 74.518C48.942 74.9589 49.57 75.1848 50.3929 75.1848C50.6095 75.1848 50.8477 75.1525 51.0859 75.0987C51.3241 75.0449 51.5082 74.9804 51.6381 74.9051L51.7247 74.8621L51.4757 73.7867L51.3349 73.8297L51.3458 73.819Z" fill="#0068B5"/>
<path d="M56.727 73.9579C56.4021 74.0009 56.0665 73.9687 55.8499 73.8289C55.6983 73.7321 55.5901 73.5923 55.5143 73.3987C55.4385 73.1944 55.3952 72.947 55.3952 72.6459V65.1719H54.02V72.7212C54.02 73.4955 54.2041 74.0977 54.5614 74.5279C54.9296 74.958 55.4818 75.1731 56.1964 75.1731C56.3372 75.1731 56.4779 75.1731 56.6187 75.1409C56.7486 75.1193 56.8894 75.0978 57.041 75.0763L57.1493 75.0548L57.1817 73.8396L57.0085 73.8934C56.9219 73.9149 56.8244 73.9364 56.7378 73.9472L56.727 73.9579Z" fill="#0068B5"/>
<path d="M71.0519 68.1719H69.6768V75.0652H71.0519V68.1719Z" fill="#0068B5"/>
<path d="M71.1711 65.2793H69.5361V66.7849H71.1711V65.2793Z" fill="#0068B5"/>
<path d="M79.2706 68.3441C78.9025 68.1398 78.4369 68.043 77.8847 68.043C77.3 68.043 76.7694 68.1828 76.3146 68.4624C76.0873 68.6022 75.8924 68.7742 75.7299 68.9893V68.172H74.3765V75.0653H75.7516V71.1509C75.7516 70.753 75.8274 70.4088 75.979 70.1185C76.1306 69.8281 76.3471 69.6023 76.6286 69.4517C76.9102 69.2904 77.2458 69.2152 77.6248 69.2152C77.9605 69.2152 78.2312 69.2689 78.4369 69.3872C78.6318 69.4948 78.7834 69.6776 78.87 69.9034C78.9674 70.1508 79.0216 70.4734 79.0216 70.8605V75.0546H80.3967V70.7852C80.3967 70.183 80.3101 69.6668 80.126 69.2689C79.942 68.8603 79.6604 68.5484 79.2815 68.3441H79.2706Z" fill="#0068B5"/>
<path d="M92.5562 70.2048C92.4155 70.1187 92.2639 70.0434 92.1015 69.9789C92.3938 69.8284 92.632 69.6455 92.8377 69.409C93.2059 68.9896 93.4008 68.4519 93.4008 67.8174C93.4008 66.9786 93.1084 66.3226 92.5237 65.8601C91.9499 65.4085 91.1486 65.1719 90.1308 65.1719H86.1245V75.0548H90.2932C90.9862 75.0548 91.5817 74.9473 92.0798 74.7429C92.5779 74.5386 92.9677 74.216 93.2275 73.7966C93.4874 73.3772 93.6282 72.8717 93.6282 72.2695C93.6282 71.8071 93.5307 71.3877 93.3575 71.0436C93.1734 70.6887 92.9027 70.4091 92.5562 70.1832V70.2048ZM87.4996 70.6457H90.1958C90.4773 70.6457 90.7372 70.6672 90.9645 70.7102C91.1811 70.7532 91.376 70.8177 91.5384 70.9038C91.7008 70.9898 91.8308 71.0973 91.939 71.2156C92.0473 71.3447 92.1231 71.4952 92.1772 71.6673C92.2314 71.8394 92.2639 72.0437 92.2639 72.2803C92.2639 72.5169 92.2314 72.7104 92.1772 72.8825C92.1231 73.0546 92.0473 73.2051 91.939 73.3234C91.8308 73.4525 91.7008 73.5493 91.5384 73.646C91.376 73.7321 91.1811 73.7966 90.9645 73.8396C90.7372 73.8826 90.4881 73.9041 90.1958 73.9041H87.4996V70.6457ZM91.5168 69.0648C91.1703 69.3337 90.6505 69.4735 89.9684 69.4735H87.4888V66.3333H89.9684C90.6505 66.3333 91.1703 66.4731 91.5168 66.7312C91.8524 66.9893 92.0257 67.3764 92.0257 67.9034C92.0257 68.4303 91.8632 68.7852 91.5168 69.0541V69.0648Z" fill="#0068B5"/>
<path d="M100.569 68.3333C100.179 68.1398 99.6807 68.043 99.0852 68.043C98.7712 68.043 98.4464 68.0752 98.1107 68.1398C97.775 68.2043 97.4502 68.3011 97.1362 68.4301C96.8222 68.5592 96.5407 68.7097 96.3025 68.871L96.205 68.9355L96.7031 69.9787L96.833 69.8927C97.212 69.6453 97.591 69.4625 97.9483 69.355C98.3056 69.2474 98.6846 69.1936 99.0744 69.1936C99.5508 69.1936 99.8973 69.3012 100.103 69.527C100.309 69.7529 100.417 70.1292 100.417 70.6562V70.9466H100.114C99.1069 70.9466 98.2948 71.0111 97.6993 71.1294C97.0929 71.2584 96.649 71.4735 96.3783 71.7746C96.1076 72.0757 95.9668 72.4951 95.9668 73.0221C95.9668 73.4307 96.0859 73.8071 96.3025 74.1297C96.5298 74.4524 96.833 74.7212 97.212 74.904C97.591 75.0868 98.0241 75.1836 98.5005 75.1836C98.8903 75.1836 99.2585 75.1084 99.5725 74.9686C99.8865 74.8287 100.168 74.6137 100.385 74.3556C100.406 74.3341 100.428 74.3018 100.45 74.2803V75.0653H101.76V70.7637C101.76 70.1508 101.662 69.6453 101.467 69.2582C101.272 68.8603 100.969 68.5484 100.569 68.3548V68.3333ZM99.5833 73.8501C99.3234 74.0114 99.0202 74.0867 98.6846 74.0867C98.2731 74.0867 97.9483 73.9792 97.7101 73.7641C97.4719 73.549 97.3636 73.2802 97.3636 72.9468C97.3636 72.7532 97.4069 72.5919 97.4827 72.4736C97.5585 72.3553 97.6992 72.2478 97.8833 72.1725C98.0891 72.0865 98.3814 72.022 98.7387 71.9897C99.1069 71.9574 99.5725 71.9359 100.125 71.9359H100.417V72.2155C100.417 72.5812 100.341 72.9145 100.19 73.1941C100.038 73.4737 99.8323 73.6996 99.5725 73.8501H99.5833Z" fill="#0068B5"/>
<path d="M107.509 73.9579C107.195 74.0009 106.849 73.9687 106.632 73.8289C106.481 73.7321 106.372 73.5923 106.296 73.3987C106.221 73.1944 106.177 72.947 106.177 72.6459V65.1719H104.802V72.7212C104.802 73.4955 104.986 74.0977 105.344 74.5279C105.712 74.958 106.264 75.1731 106.979 75.1731C107.119 75.1731 107.26 75.1731 107.401 75.1409C107.531 75.1193 107.672 75.0978 107.823 75.0763L107.931 75.0548L107.964 73.8396L107.791 73.8934C107.704 73.9149 107.607 73.9364 107.52 73.9472L107.509 73.9579Z" fill="#0068B5"/>
<path d="M114.385 68.3333C113.995 68.1398 113.497 68.043 112.902 68.043C112.588 68.043 112.263 68.0752 111.927 68.1398C111.591 68.2043 111.267 68.3011 110.953 68.4301C110.639 68.5592 110.357 68.7097 110.119 68.871L110.021 68.9355L110.519 69.9787L110.649 69.8927C111.028 69.6453 111.407 69.4625 111.765 69.355C112.122 69.2474 112.501 69.1936 112.891 69.1936C113.367 69.1936 113.714 69.3012 113.919 69.527C114.125 69.7529 114.233 70.1292 114.233 70.6562V70.9466H113.93C112.923 70.9466 112.111 71.0111 111.516 71.1294C110.909 71.2584 110.465 71.4735 110.195 71.7746C109.924 72.0757 109.783 72.4951 109.783 73.0221C109.783 73.4307 109.902 73.8071 110.119 74.1297C110.346 74.4524 110.649 74.7212 111.028 74.904C111.407 75.0868 111.84 75.1836 112.317 75.1836C112.707 75.1836 113.075 75.1084 113.389 74.9686C113.703 74.8287 113.984 74.6137 114.201 74.3556C114.223 74.3341 114.244 74.3018 114.266 74.2803V75.0653H115.576V70.7637C115.576 70.1508 115.479 69.6453 115.284 69.2582C115.089 68.8603 114.786 68.5484 114.385 68.3548V68.3333ZM113.4 73.8501C113.14 74.0114 112.837 74.0867 112.501 74.0867C112.09 74.0867 111.765 73.9792 111.526 73.7641C111.288 73.549 111.18 73.2802 111.18 72.9468C111.18 72.7532 111.223 72.5919 111.299 72.4736C111.375 72.3553 111.516 72.2478 111.7 72.1725C111.905 72.0865 112.198 72.022 112.555 71.9897C112.923 71.9574 113.389 71.9359 113.941 71.9359H114.233V72.2155C114.233 72.5812 114.158 72.9145 114.006 73.1941C113.854 73.4737 113.649 73.6996 113.389 73.8501H113.4Z" fill="#0068B5"/>
<path d="M123.231 68.3441C122.863 68.1398 122.397 68.043 121.845 68.043C121.26 68.043 120.73 68.1828 120.275 68.4624C120.048 68.6022 119.853 68.7742 119.69 68.9893V68.172H118.337V75.0653H119.712V71.1509C119.712 70.753 119.788 70.4088 119.939 70.1185C120.091 69.8281 120.308 69.6023 120.589 69.4517C120.871 69.2904 121.206 69.2152 121.585 69.2152C121.921 69.2152 122.192 69.2689 122.397 69.3872C122.592 69.4948 122.744 69.6776 122.83 69.9034C122.928 70.1508 122.982 70.4734 122.982 70.8605V75.0546H124.357V70.7852C124.357 70.183 124.271 69.6668 124.086 69.2689C123.902 68.8603 123.621 68.5484 123.242 68.3441H123.231Z" fill="#0068B5"/>
<path d="M129.988 69.2044C130.248 69.2044 130.54 69.2582 130.843 69.3765C131.146 69.484 131.417 69.6668 131.666 69.9034L131.796 70.0325L132.294 68.9786L132.229 68.914C131.948 68.6344 131.601 68.4194 131.179 68.2688C130.767 68.1182 130.334 68.043 129.912 68.043C129.219 68.043 128.623 68.1828 128.115 68.4731C127.606 68.7527 127.216 69.1721 126.945 69.6991C126.674 70.226 126.534 70.8605 126.534 71.5703C126.534 72.2801 126.674 72.9145 126.934 73.4522C127.205 74.0007 127.595 74.4308 128.104 74.732C128.613 75.0331 129.208 75.1836 129.901 75.1836C130.313 75.1836 130.735 75.1084 131.168 74.947C131.59 74.7857 131.948 74.5707 132.229 74.2911L132.294 74.2265L131.785 73.1726L131.655 73.3017C131.406 73.549 131.125 73.7318 130.832 73.8394C130.529 73.9469 130.248 74.0114 129.977 74.0114C129.316 74.0114 128.829 73.8071 128.472 73.3662C128.115 72.936 127.941 72.3338 127.941 71.5703C127.941 70.8068 128.125 70.1938 128.472 69.7959C128.829 69.3872 129.316 69.1936 129.977 69.1936L129.988 69.2044Z" fill="#0068B5"/>
<path d="M139.429 68.4624C138.985 68.1828 138.433 68.043 137.805 68.043C137.177 68.043 136.571 68.1935 136.073 68.4946C135.575 68.7957 135.174 69.2259 134.893 69.7529C134.611 70.2798 134.459 70.9143 134.459 71.6241C134.459 72.3338 134.611 72.9898 134.893 73.5168C135.185 74.0437 135.596 74.4631 136.127 74.7535C136.647 75.0438 137.286 75.1836 138.011 75.1836C138.509 75.1836 139.007 75.0976 139.484 74.9255C139.96 74.7535 140.371 74.5276 140.685 74.248L140.761 74.1835L140.252 73.1619L140.122 73.2694C139.808 73.5383 139.473 73.7318 139.115 73.8501C138.758 73.9684 138.39 74.0222 138.011 74.0222C137.545 74.0222 137.134 73.9254 136.798 73.7426C136.473 73.5598 136.214 73.2909 136.051 72.936C135.921 72.6672 135.845 72.3338 135.813 71.9682H140.837V71.409C140.837 70.7207 140.718 70.1185 140.469 69.6238C140.231 69.1184 139.873 68.7312 139.419 68.4516L139.429 68.4624ZM136.04 70.2583C136.192 69.9034 136.43 69.6238 136.722 69.4302C137.026 69.2367 137.394 69.1291 137.838 69.1291C138.422 69.1291 138.856 69.3119 139.159 69.6883C139.419 70.011 139.57 70.4519 139.603 71.0003H135.835C135.867 70.7315 135.943 70.4841 136.04 70.2583Z" fill="#0068B5"/>
<path d="M143.815 73.4082H142.147V75.0643H143.815V73.4082Z" fill="#0068B5"/>
</svg>
