<svg width="72" height="40" viewBox="0 0 72 40" fill="none" xmlns="http://www.w3.org/2000/svg">
<g clip-path="url(#clip0_26_3679)">
<path d="M11.6935 22.2963H0V0.295776H11.2026V2.62974H2.58356V9.94891H10.5554V12.2667H2.58356V19.9677H11.6935V22.3017V22.2963Z" fill="#669B40"/>
<path d="M31.6598 22.3392L29.5186 20.2203C27.7926 21.7207 25.743 22.4682 23.3698 22.4682C21.4982 22.4682 20.0311 22.0111 18.9739 21.0969C17.9168 20.1827 17.3828 19.0318 17.3828 17.6497C17.3828 15.5201 18.8283 13.767 21.7139 12.3849C20.8024 11.3039 20.2307 10.4865 19.988 9.93261C19.7452 9.3787 19.6266 8.82479 19.6266 8.26012C19.6266 7.07163 20.1012 6.07136 21.0505 5.26469C21.9998 4.45802 23.1918 4.05469 24.6319 4.05469C26.072 4.05469 27.1292 4.40962 27.949 5.11949C28.7634 5.82936 29.1734 6.71669 29.1734 7.78687C29.1734 8.85705 28.8605 9.75514 28.2295 10.4919C27.6038 11.2287 26.4927 11.9708 24.907 12.7183C26.8972 14.7619 28.4992 16.3376 29.7127 17.4561C30.6998 15.9988 31.2176 14.4177 31.2715 12.7183H33.3049C33.251 14.9824 32.4689 16.999 30.9587 18.7576L34.7396 22.3392H31.6544H31.6598ZM28.2456 18.9458L22.9437 13.6917C21.7355 14.2832 20.8833 14.8802 20.3925 15.4771C19.9017 16.074 19.6535 16.7624 19.6535 17.5422C19.6535 18.4618 20.0149 19.2093 20.7431 19.7793C21.4712 20.3494 22.3612 20.6344 23.4183 20.6344C25.36 20.6344 26.9674 20.0751 28.251 18.9512L28.2456 18.9458ZM23.6826 11.5137C24.8854 10.992 25.7376 10.4543 26.25 9.90034C26.7624 9.34643 27.0105 8.70648 27.0105 7.9751C27.0105 7.31363 26.7948 6.7866 26.3633 6.38327C25.9318 5.98531 25.3708 5.78634 24.675 5.78634C23.8282 5.78634 23.1432 6.02296 22.6201 6.49083C22.0969 6.95869 21.8326 7.55025 21.8326 8.2655C21.8326 9.14208 22.4475 10.223 23.6826 11.5137Z" fill="#669B40"/>
<path d="M42.7086 20.0269H42.6492V22.2963H40.125V0H42.6492V9.3466H42.7086C43.9491 7.26002 45.7668 6.21673 48.1562 6.21673C50.1788 6.21673 51.7591 6.92122 52.9026 8.32482C54.046 9.7338 54.6178 11.616 54.6178 13.9769C54.6178 16.6066 53.9759 18.7093 52.6922 20.2904C51.4085 21.8715 49.6556 22.662 47.428 22.662C45.3461 22.662 43.7711 21.78 42.7032 20.0215L42.7086 20.0269ZM42.6438 13.6919V15.886C42.6438 17.1874 43.0645 18.2899 43.9114 19.1933C44.7582 20.0968 45.8315 20.5485 47.1368 20.5485C48.6632 20.5485 49.8606 19.9677 50.7289 18.8008C51.5973 17.6338 52.0288 16.0151 52.0288 13.9392C52.0288 12.1914 51.6243 10.8201 50.8152 9.82522C50.0062 8.83571 48.9059 8.33557 47.5197 8.33557C46.0526 8.33557 44.8714 8.84646 43.9815 9.86287C43.0915 10.8793 42.6438 12.1592 42.6438 13.6919Z" fill="#669B40"/>
<path d="M72.0007 6.58789L64.7516 24.8186C63.4572 28.0722 61.6449 29.6963 59.304 29.6963C58.646 29.6963 58.0959 29.6317 57.659 29.4973V27.244C58.2037 27.4268 58.6999 27.5182 59.153 27.5182C60.4259 27.5182 61.3806 26.76 62.0171 25.2488L63.2792 22.2695L57.125 6.58789H59.9243L64.1853 18.6772C64.2338 18.8331 64.3417 19.2311 64.5089 19.8764H64.6006C64.6545 19.629 64.7516 19.2418 64.9081 18.7094L69.3848 6.58789H72.0007Z" fill="#669B40"/>
<path d="M30.888 37.4195C30.8718 37.4787 30.8556 37.5325 30.8448 37.5809C30.8233 37.4948 30.8071 37.441 30.7963 37.4141L29.8039 34.6016H29.0703L30.505 38.2531L30.2192 38.9253C30.025 39.3824 29.7229 39.5169 29.2645 39.3609L29.2105 39.3448V39.9471L29.2375 39.9578C29.34 39.9901 29.4748 40.0062 29.6313 40.0062C30.1868 40.0062 30.6183 39.619 30.9203 38.8554L32.5924 34.6553L32.6139 34.6016H31.9236L30.8826 37.4249L30.888 37.4195Z" fill="#0068B5"/>
<path d="M2.90365 32.7678C2.65554 32.6549 2.3535 32.5957 1.99752 32.5957H0.0234375V37.5379H0.713826V35.618H1.99752C2.3535 35.618 2.65554 35.5589 2.90365 35.4406C3.15715 35.3222 3.34593 35.1448 3.47538 34.9135C3.60483 34.6877 3.66955 34.4134 3.66955 34.1015C3.66955 33.7896 3.60483 33.5045 3.47538 33.2787C3.34593 33.0528 3.15176 32.8753 2.90365 32.7624V32.7678ZM0.713826 33.1873H1.9274C2.27799 33.1873 2.54767 33.2679 2.72027 33.4185C2.89287 33.5691 2.97916 33.8003 2.97916 34.1015C2.97916 34.4026 2.89287 34.6231 2.72027 34.7791C2.54228 34.935 2.27799 35.0103 1.9274 35.0103H0.713826V33.1819V33.1873Z" fill="#0068B5"/>
<path d="M6.82725 34.2351C6.60611 34.0953 6.33104 34.0254 6.0182 34.0254C5.70537 34.0254 5.40333 34.1007 5.15522 34.2513C4.90711 34.4018 4.70754 34.6169 4.56731 34.8805C4.42707 35.144 4.35156 35.4613 4.35156 35.8162C4.35156 36.1711 4.42707 36.4992 4.56731 36.7627C4.71294 37.0262 4.9179 37.2359 5.18219 37.3811C5.44108 37.5263 5.75931 37.5962 6.12068 37.5962C6.36879 37.5962 6.6169 37.5532 6.85422 37.4672C7.09154 37.3811 7.2965 37.2682 7.45292 37.1284L7.49067 37.0961L7.23717 36.5852L7.17245 36.639C7.01603 36.7734 6.84883 36.8702 6.67084 36.9294C6.49285 36.9886 6.30946 37.0154 6.12068 37.0154C5.88876 37.0154 5.6838 36.967 5.51659 36.8756C5.35478 36.7842 5.22534 36.6498 5.14443 36.4723C5.07971 36.3378 5.04195 36.1711 5.02577 35.9883H7.52843V35.7086C7.52843 35.3645 7.4691 35.0633 7.34505 34.8159C7.22638 34.5632 7.04839 34.3696 6.82186 34.2297L6.82725 34.2351ZM5.13364 35.1332C5.20915 34.9557 5.32782 34.8159 5.47344 34.7191C5.62447 34.6223 5.80785 34.5685 6.02899 34.5685C6.32025 34.5685 6.536 34.66 6.68702 34.8482C6.81647 35.0095 6.89198 35.23 6.90816 35.5043H5.03116C5.04735 35.3698 5.0851 35.2461 5.13364 35.1332Z" fill="#0068B5"/>
<path d="M10.5818 34.0201C10.2582 34.0416 9.98851 34.1276 9.78895 34.2728C9.70265 34.3374 9.62174 34.4126 9.55702 34.5041V34.0846H8.88281V37.5318H9.5732V35.5742C9.5732 35.3 9.64871 35.0795 9.80513 34.9182C9.96155 34.7622 10.1881 34.6654 10.4793 34.6385L10.8893 34.5901L10.8353 33.9824L10.571 34.0093L10.5818 34.0201Z" fill="#0068B5"/>
<path d="M13.3692 33.5256C13.4178 33.4127 13.4933 33.3266 13.6012 33.2621C13.709 33.1976 13.8547 33.1599 14.0327 33.1492L14.4156 33.1223L14.3509 32.5684L14.0219 32.5845C13.5472 32.6114 13.1859 32.7458 12.9539 32.9878C12.722 33.2244 12.6033 33.5794 12.6033 34.0365V34.0849H11.9453V34.6442H12.6033V37.5321H13.2883V34.6442H14.2484V34.0849H13.2883V33.9666C13.2883 33.7891 13.3153 33.6385 13.3638 33.5202L13.3692 33.5256Z" fill="#0068B5"/>
<path d="M17.7023 34.2351C17.4811 34.0953 17.206 34.0254 16.8932 34.0254C16.5804 34.0254 16.2783 34.1007 16.0302 34.2513C15.7821 34.4018 15.5825 34.6169 15.4423 34.8805C15.3021 35.144 15.2266 35.4613 15.2266 35.8162C15.2266 36.1711 15.3021 36.4992 15.4423 36.7627C15.5879 37.0262 15.7929 37.2359 16.0572 37.3811C16.3161 37.5263 16.6343 37.5962 16.9957 37.5962C17.2438 37.5962 17.4919 37.5532 17.7292 37.4672C17.9665 37.3811 18.1715 37.2682 18.3279 37.1284L18.3657 37.0961L18.1122 36.5852L18.0474 36.639C17.891 36.7734 17.7238 36.8702 17.5458 36.9294C17.3678 36.9886 17.1845 37.0154 16.9957 37.0154C16.7638 37.0154 16.5588 36.967 16.3916 36.8756C16.2298 36.7842 16.1003 36.6498 16.0194 36.4723C15.9547 36.3378 15.917 36.1711 15.9008 35.9883H18.4034V35.7086C18.4034 35.3645 18.3441 35.0633 18.22 34.8159C18.1014 34.5632 17.9234 34.3696 17.6969 34.2297L17.7023 34.2351ZM16.0086 35.1332C16.0842 34.9557 16.2028 34.8159 16.3484 34.7191C16.4995 34.6223 16.6829 34.5685 16.904 34.5685C17.1952 34.5685 17.411 34.66 17.562 34.8482C17.6915 35.0095 17.767 35.23 17.7832 35.5043H15.9062C15.9223 35.3698 15.9601 35.2461 16.0086 35.1332Z" fill="#0068B5"/>
<path d="M21.1815 34.6062C21.311 34.6062 21.4566 34.6331 21.6076 34.6922C21.7586 34.746 21.8935 34.8374 22.0175 34.9557L22.0823 35.0203L22.3304 34.4933L22.298 34.461C22.1578 34.3212 21.9852 34.2136 21.7748 34.1383C21.5699 34.063 21.3541 34.0254 21.1438 34.0254C20.7986 34.0254 20.5019 34.0953 20.2484 34.2405C19.9949 34.3803 19.8007 34.5901 19.6659 34.8536C19.5311 35.1171 19.4609 35.4344 19.4609 35.7893C19.4609 36.1442 19.5311 36.4615 19.6605 36.7304C19.7953 37.0047 19.9895 37.2198 20.243 37.3704C20.4965 37.521 20.7932 37.5962 21.1384 37.5962C21.3433 37.5962 21.5537 37.5586 21.7694 37.4779C21.9798 37.3973 22.1578 37.2897 22.298 37.1499L22.3304 37.1176L22.0769 36.5906L22.0121 36.6551C21.8881 36.7788 21.7479 36.8702 21.6022 36.924C21.4512 36.9778 21.311 37.0101 21.1761 37.0101C20.8471 37.0101 20.6044 36.9079 20.4264 36.6874C20.2484 36.4723 20.1621 36.1711 20.1621 35.7893C20.1621 35.4075 20.2538 35.1009 20.4264 34.902C20.6044 34.6976 20.8471 34.6008 21.1761 34.6008L21.1815 34.6062Z" fill="#0068B5"/>
<path d="M25.5763 36.914C25.517 36.9301 25.4523 36.9516 25.3822 36.9677C25.3174 36.9839 25.2473 36.9946 25.1772 36.9946C24.9507 36.9946 24.7889 36.9355 24.6918 36.8172C24.5947 36.6935 24.5408 36.5106 24.5408 36.2686V34.6499H25.5925V34.0906H24.5408V33.0742H23.8558V34.0906H23.2031V34.6499H23.8558V36.3224C23.8558 36.7257 23.9582 37.043 24.1686 37.2635C24.3789 37.484 24.6918 37.5969 25.1017 37.5969C25.2096 37.5969 25.3282 37.5808 25.4469 37.5539C25.5655 37.527 25.6572 37.4948 25.722 37.4571L25.7651 37.4356L25.6411 36.8978L25.5709 36.9193L25.5763 36.914Z" fill="#0068B5"/>
<path d="M28.2547 36.9835C28.0929 37.005 27.9257 36.9889 27.8178 36.919C27.7423 36.8706 27.6883 36.8007 27.6506 36.7039C27.6128 36.6017 27.5912 36.478 27.5912 36.3274V32.5898H26.9062V36.3651C26.9062 36.7523 26.9979 37.0534 27.1759 37.2685C27.3593 37.4836 27.6344 37.5912 27.9904 37.5912C28.0605 37.5912 28.1306 37.5912 28.2007 37.5751C28.2655 37.5643 28.3356 37.5535 28.4111 37.5428L28.465 37.532L28.4812 36.9243L28.3949 36.9512C28.3518 36.962 28.3032 36.9727 28.2601 36.9781L28.2547 36.9835Z" fill="#0068B5"/>
<path d="M35.3881 34.0898H34.7031V37.537H35.3881V34.0898Z" fill="#0068B5"/>
<path d="M35.4473 32.6436H34.6328V33.3964H35.4473V32.6436Z" fill="#0068B5"/>
<path d="M39.4848 34.176C39.3014 34.0738 39.0695 34.0254 38.7944 34.0254C38.5032 34.0254 38.2389 34.0953 38.0123 34.2351C37.8991 34.305 37.802 34.3911 37.7211 34.4986V34.0899H37.0469V37.5371H37.7319V35.5796C37.7319 35.3806 37.7696 35.2085 37.8451 35.0633C37.9206 34.9181 38.0285 34.8052 38.1688 34.7299C38.309 34.6492 38.4762 34.6116 38.665 34.6116C38.8322 34.6116 38.967 34.6385 39.0695 34.6976C39.1666 34.7514 39.2421 34.8428 39.2852 34.9557C39.3338 35.0794 39.3608 35.2408 39.3608 35.4344V37.5317H40.0457V35.3967C40.0457 35.0956 40.0026 34.8374 39.9109 34.6385C39.8192 34.4341 39.679 34.2781 39.4902 34.176H39.4848Z" fill="#0068B5"/>
<path d="M46.1023 35.1066C46.0322 35.0636 45.9566 35.026 45.8757 34.9937C46.0214 34.9184 46.14 34.827 46.2425 34.7087C46.4259 34.499 46.523 34.2301 46.523 33.9128C46.523 33.4933 46.3773 33.1653 46.0861 32.934C45.8002 32.7082 45.4011 32.5898 44.8941 32.5898H42.8984V37.532H44.975C45.3202 37.532 45.6168 37.4783 45.865 37.3761C46.1131 37.2739 46.3072 37.1126 46.4367 36.9028C46.5661 36.6931 46.6362 36.4403 46.6362 36.1392C46.6362 35.9079 46.5877 35.6982 46.5014 35.5261C46.4097 35.3486 46.2749 35.2088 46.1023 35.0959V35.1066ZM43.5834 35.3271H44.9265C45.0667 35.3271 45.1961 35.3379 45.3094 35.3594C45.4173 35.3809 45.5144 35.4132 45.5953 35.4562C45.6762 35.4992 45.7409 35.553 45.7948 35.6122C45.8488 35.6767 45.8865 35.752 45.9135 35.838C45.9405 35.9241 45.9566 36.0263 45.9566 36.1446C45.9566 36.2629 45.9405 36.3597 45.9135 36.4457C45.8865 36.5318 45.8488 36.6071 45.7948 36.6662C45.7409 36.7307 45.6762 36.7791 45.5953 36.8275C45.5144 36.8706 45.4173 36.9028 45.3094 36.9243C45.1961 36.9459 45.0721 36.9566 44.9265 36.9566H43.5834V35.3271ZM45.5845 34.5366C45.4119 34.671 45.153 34.741 44.8132 34.741H43.578V33.1706H44.8132C45.153 33.1706 45.4119 33.2406 45.5845 33.3696C45.7517 33.4987 45.838 33.6923 45.838 33.9558C45.838 34.2193 45.7571 34.3968 45.5845 34.5312V34.5366Z" fill="#0068B5"/>
<path d="M50.0892 34.1706C49.895 34.0738 49.6469 34.0254 49.3503 34.0254C49.1938 34.0254 49.032 34.0415 48.8648 34.0738C48.6976 34.1061 48.5358 34.1545 48.3794 34.219C48.223 34.2835 48.0827 34.3588 47.9641 34.4395L47.9155 34.4717L48.1636 34.9934L48.2284 34.9504C48.4171 34.8267 48.6059 34.7353 48.7839 34.6815C48.9619 34.6277 49.1507 34.6008 49.3449 34.6008C49.5822 34.6008 49.7548 34.6546 49.8573 34.7675C49.9597 34.8805 50.0137 35.0687 50.0137 35.3322V35.4774H49.8626C49.361 35.4774 48.9565 35.5097 48.6599 35.5688C48.3578 35.6333 48.1367 35.7409 48.0018 35.8915C47.867 36.0421 47.7969 36.2518 47.7969 36.5153C47.7969 36.7197 47.8562 36.9079 47.9641 37.0692C48.0773 37.2306 48.2284 37.365 48.4171 37.4564C48.6059 37.5478 48.8217 37.5962 49.059 37.5962C49.2532 37.5962 49.4365 37.5586 49.593 37.4887C49.7494 37.4188 49.8896 37.3112 49.9975 37.1822C50.0083 37.1714 50.0191 37.1553 50.0299 37.1445V37.5371H50.6825V35.386C50.6825 35.0794 50.6339 34.8267 50.5369 34.6331C50.4398 34.4341 50.2887 34.2781 50.0892 34.1813V34.1706ZM49.5984 36.9294C49.4689 37.0101 49.3179 37.0477 49.1507 37.0477C48.9457 37.0477 48.7839 36.9939 48.6653 36.8864C48.5466 36.7788 48.4927 36.6444 48.4927 36.4777C48.4927 36.3809 48.5142 36.3002 48.552 36.241C48.5897 36.1819 48.6599 36.1281 48.7516 36.0905C48.854 36.0474 48.9997 36.0152 49.1777 35.999C49.361 35.9829 49.593 35.9721 49.868 35.9721H50.0137V36.112C50.0137 36.2948 49.9759 36.4615 49.9004 36.6014C49.8249 36.7412 49.7224 36.8541 49.593 36.9294H49.5984Z" fill="#0068B5"/>
<path d="M53.5515 36.9835C53.3951 37.005 53.2225 36.9889 53.1147 36.919C53.0391 36.8706 52.9852 36.8007 52.9474 36.7039C52.9097 36.6017 52.8881 36.478 52.8881 36.3274V32.5898H52.2031V36.3651C52.2031 36.7523 52.2948 37.0534 52.4728 37.2685C52.6562 37.4836 52.9313 37.5912 53.2873 37.5912C53.3574 37.5912 53.4275 37.5912 53.4976 37.5751C53.5623 37.5643 53.6324 37.5535 53.708 37.5428L53.7619 37.532L53.7781 36.9243L53.6918 36.9512C53.6486 36.962 53.6001 36.9727 53.5569 36.9781L53.5515 36.9835Z" fill="#0068B5"/>
<path d="M56.972 34.1706C56.7778 34.0738 56.5297 34.0254 56.2331 34.0254C56.0766 34.0254 55.9148 34.0415 55.7476 34.0738C55.5804 34.1061 55.4186 34.1545 55.2622 34.219C55.1058 34.2835 54.9656 34.3588 54.8469 34.4395L54.7983 34.4717L55.0465 34.9934L55.1112 34.9504C55.3 34.8267 55.4887 34.7353 55.6667 34.6815C55.8447 34.6277 56.0335 34.6008 56.2277 34.6008C56.465 34.6008 56.6376 34.6546 56.7401 34.7675C56.8425 34.8805 56.8965 35.0687 56.8965 35.3322V35.4774H56.7455C56.2439 35.4774 55.8393 35.5097 55.5427 35.5688C55.2406 35.6333 55.0195 35.7409 54.8846 35.8915C54.7498 36.0421 54.6797 36.2518 54.6797 36.5153C54.6797 36.7197 54.739 36.9079 54.8469 37.0692C54.9602 37.2306 55.1112 37.365 55.3 37.4564C55.4887 37.5478 55.7045 37.5962 55.9418 37.5962C56.136 37.5962 56.3194 37.5586 56.4758 37.4887C56.6322 37.4188 56.7724 37.3112 56.8803 37.1822C56.8911 37.1714 56.9019 37.1553 56.9127 37.1445V37.5371H57.5653V35.386C57.5653 35.0794 57.5168 34.8267 57.4197 34.6331C57.3226 34.4341 57.1716 34.2781 56.972 34.1813V34.1706ZM56.4812 36.9294C56.3517 37.0101 56.2007 37.0477 56.0335 37.0477C55.8285 37.0477 55.6667 36.9939 55.5481 36.8864C55.4294 36.7788 55.3755 36.6444 55.3755 36.4777C55.3755 36.3809 55.397 36.3002 55.4348 36.241C55.4726 36.1819 55.5427 36.1281 55.6344 36.0905C55.7368 36.0474 55.8825 36.0152 56.0605 35.999C56.2438 35.9829 56.4758 35.9721 56.7509 35.9721H56.8965V36.112C56.8965 36.2948 56.8587 36.4615 56.7832 36.6014C56.7077 36.7412 56.6052 36.8541 56.4758 36.9294H56.4812Z" fill="#0068B5"/>
<path d="M61.3832 34.176C61.1999 34.0738 60.9679 34.0254 60.6929 34.0254C60.4016 34.0254 60.1373 34.0953 59.9108 34.2351C59.7975 34.305 59.7004 34.3911 59.6195 34.4986V34.0899H58.9453V37.5371H59.6303V35.5796C59.6303 35.3806 59.6681 35.2085 59.7436 35.0633C59.8191 34.9181 59.927 34.8052 60.0672 34.7299C60.2074 34.6492 60.3746 34.6116 60.5634 34.6116C60.7306 34.6116 60.8655 34.6385 60.9679 34.6976C61.065 34.7514 61.1405 34.8428 61.1837 34.9557C61.2322 35.0794 61.2592 35.2408 61.2592 35.4344V37.5317H61.9442V35.3967C61.9442 35.0956 61.901 34.8374 61.8093 34.6385C61.7177 34.4341 61.5774 34.2781 61.3886 34.176H61.3832Z" fill="#0068B5"/>
<path d="M64.744 34.6062C64.8735 34.6062 65.0191 34.6331 65.1701 34.6922C65.3211 34.746 65.456 34.8374 65.58 34.9557L65.6448 35.0203L65.8929 34.4933L65.8605 34.461C65.7203 34.3212 65.5477 34.2136 65.3373 34.1383C65.1324 34.063 64.9166 34.0254 64.7063 34.0254C64.3611 34.0254 64.0644 34.0953 63.8109 34.2405C63.5574 34.3803 63.3632 34.5901 63.2284 34.8536C63.0936 35.1171 63.0234 35.4344 63.0234 35.7893C63.0234 36.1442 63.0936 36.4615 63.223 36.7304C63.3578 37.0047 63.552 37.2198 63.8055 37.3704C64.059 37.521 64.3557 37.5962 64.7009 37.5962C64.9058 37.5962 65.1162 37.5586 65.3319 37.4779C65.5423 37.3973 65.7203 37.2897 65.8605 37.1499L65.8929 37.1176L65.6394 36.5906L65.5746 36.6551C65.4506 36.7788 65.3104 36.8702 65.1647 36.924C65.0137 36.9778 64.8735 37.0101 64.7386 37.0101C64.4096 37.0101 64.1669 36.9079 63.9889 36.6874C63.8109 36.4723 63.7246 36.1711 63.7246 35.7893C63.7246 35.4075 63.8163 35.1009 63.9889 34.902C64.1669 34.6976 64.4096 34.6008 64.7386 34.6008L64.744 34.6062Z" fill="#0068B5"/>
<path d="M69.4523 34.2351C69.2311 34.0953 68.956 34.0254 68.6432 34.0254C68.3304 34.0254 68.0283 34.1007 67.7802 34.2513C67.5321 34.4018 67.3325 34.6169 67.1923 34.8805C67.0521 35.144 66.9766 35.4613 66.9766 35.8162C66.9766 36.1711 67.0521 36.4992 67.1923 36.7627C67.3379 37.0262 67.5429 37.2359 67.8072 37.3811C68.0661 37.5263 68.3843 37.5962 68.7457 37.5962C68.9938 37.5962 69.2419 37.5532 69.4792 37.4672C69.7165 37.3811 69.9215 37.2682 70.0779 37.1284L70.1157 37.0961L69.8622 36.5852L69.7974 36.639C69.641 36.7734 69.4738 36.8702 69.2958 36.9294C69.1178 36.9886 68.9345 37.0154 68.7457 37.0154C68.5138 37.0154 68.3088 36.967 68.1416 36.8756C67.9798 36.7842 67.8503 36.6498 67.7694 36.4723C67.7047 36.3378 67.667 36.1711 67.6508 35.9883H70.1534V35.7086C70.1534 35.3645 70.0941 35.0633 69.97 34.8159C69.8514 34.5632 69.6734 34.3696 69.4469 34.2297L69.4523 34.2351ZM67.764 35.1332C67.8395 34.9557 67.9582 34.8159 68.1038 34.7191C68.2549 34.6223 68.4382 34.5685 68.6594 34.5685C68.9506 34.5685 69.1664 34.66 69.3174 34.8482C69.4469 35.0095 69.5224 35.23 69.5385 35.5043H67.6616C67.6777 35.3698 67.7155 35.2461 67.764 35.1332Z" fill="#0068B5"/>
<path d="M71.6353 36.709H70.8047V37.5372H71.6353V36.709Z" fill="#0068B5"/>
</g>
<defs>
<clipPath id="clip0_26_3679">
<rect width="72" height="40" fill="white"/>
</clipPath>
</defs>
</svg>
