<svg width="82" height="45" viewBox="0 0 82 45" fill="none" xmlns="http://www.w3.org/2000/svg">
<g clip-path="url(#clip0_20_11)">
<path d="M13.3175 25.219H0V0.333984H12.7585V2.97395H2.94238V11.2527H12.0214V13.8744H2.94238V22.5851H13.3175V25.225V25.219Z" fill="white"/>
<path d="M36.0567 25.2681L33.6181 22.8715C31.6524 24.5686 29.3181 25.4141 26.6153 25.4141C24.4838 25.4141 22.813 24.8971 21.609 23.863C20.405 22.8289 19.7969 21.5272 19.7969 19.9639C19.7969 17.5551 21.4431 15.5721 24.7295 14.0088C23.6914 12.7861 23.0402 11.8615 22.7638 11.235C22.4874 10.6085 22.3523 9.98192 22.3523 9.34322C22.3523 7.99891 22.8928 6.8675 23.9739 5.95507C25.0551 5.04264 26.4126 4.58643 28.0527 4.58643C29.6928 4.58643 30.8968 4.98789 31.8305 5.79083C32.7581 6.59377 33.2249 7.59744 33.2249 8.80793C33.2249 10.0184 32.8686 11.0343 32.1499 11.8676C31.4374 12.701 30.172 13.5404 28.366 14.3859C30.6327 16.6974 32.4571 18.4797 33.8392 19.7449C34.9633 18.0965 35.553 16.3081 35.6144 14.3859H37.9303C37.8688 16.9468 36.9781 19.2279 35.2582 21.217L39.5642 25.2681H36.0506H36.0567ZM32.1684 21.4299L26.13 15.4869C24.7541 16.156 23.7835 16.8312 23.2245 17.5064C22.6655 18.1816 22.383 18.9602 22.383 19.8422C22.383 20.8824 22.7945 21.7279 23.6238 22.3727C24.4531 23.0175 25.4666 23.3399 26.6706 23.3399C28.882 23.3399 30.7125 22.7073 32.1745 21.4359L32.1684 21.4299ZM26.9716 13.0234C28.3414 12.4333 29.312 11.825 29.8955 11.1985C30.4791 10.572 30.7617 9.8481 30.7617 9.02083C30.7617 8.27264 30.516 7.67652 30.0245 7.2203C29.5331 6.77017 28.8943 6.54511 28.1019 6.54511C27.1375 6.54511 26.3573 6.81275 25.7615 7.34196C25.1656 7.87117 24.8646 8.54028 24.8646 9.3493C24.8646 10.3408 25.5649 11.5635 26.9716 13.0234Z" fill="white"/>
<path d="M48.6377 22.6526H48.5701V25.2195H45.6953V0H48.5701V10.572H48.6377C50.0505 8.21186 52.1206 7.03179 54.8419 7.03179C57.1454 7.03179 58.9452 7.82864 60.2475 9.41627C61.5497 11.01 62.2009 13.139 62.2009 15.8094C62.2009 18.7839 61.4699 21.1623 60.0079 22.9506C58.5459 24.739 56.5495 25.6332 54.0126 25.6332C51.6415 25.6332 49.8478 24.6356 48.6315 22.6465L48.6377 22.6526ZM48.564 15.487V17.9688C48.564 19.4408 49.0431 20.6878 50.0075 21.7097C50.9719 22.7316 52.1943 23.2426 53.6809 23.2426C55.4193 23.2426 56.783 22.5857 57.772 21.2657C58.7609 19.9457 59.2524 18.1148 59.2524 15.7668C59.2524 13.7898 58.7916 12.2387 57.8702 11.1134C56.9488 9.99414 55.6957 9.42843 54.117 9.42843C52.4462 9.42843 51.1009 10.0063 50.0874 11.156C49.0738 12.3056 48.564 13.7533 48.564 15.487Z" fill="white"/>
<path d="M81.9964 7.45166L73.7405 28.0726C72.2663 31.7527 70.2023 33.5897 67.5364 33.5897C66.7869 33.5897 66.1604 33.5167 65.6628 33.3646V30.8159C66.2832 31.0227 66.8484 31.1261 67.3644 31.1261C68.814 31.1261 69.9013 30.2685 70.6262 28.5592L72.0636 25.1893L65.0547 7.45166H68.2428L73.0955 21.1259C73.1508 21.3023 73.2737 21.7525 73.4641 22.4824H73.5685C73.63 22.2026 73.7405 21.7646 73.9187 21.1624L79.0172 7.45166H81.9964Z" fill="white"/>
<path d="M37.0943 39.1799L35.19 43.9306C34.8522 44.7761 34.3731 45.2019 33.7588 45.2019C33.5868 45.2019 33.4394 45.1837 33.3288 45.1472V44.5572C33.4701 44.6058 33.5991 44.6302 33.7219 44.6302C34.0536 44.6302 34.3055 44.4355 34.4713 44.0401L34.803 43.2615L33.1875 39.1738H33.9246L35.0426 42.3247C35.0549 42.3673 35.0856 42.4707 35.1286 42.635H35.1532C35.1655 42.5681 35.1962 42.4707 35.233 42.3308L36.4063 39.1738H37.0943V39.1799Z" fill="white"/>
<path d="M33.7577 45.2444C33.5857 45.2444 33.4321 45.2261 33.3154 45.1896L33.2847 45.1774V44.4962L33.3461 44.5144C33.8621 44.6908 34.2123 44.5387 34.4334 44.0217L34.759 43.2613L33.125 39.1311H33.9604L35.0907 42.3124C35.103 42.3428 35.1214 42.4097 35.146 42.501C35.1583 42.4523 35.1767 42.3915 35.1951 42.3185L36.3807 39.125H37.1669L37.1424 39.1858L35.2381 43.9365C34.8941 44.8003 34.3965 45.2383 33.7638 45.2383L33.7577 45.2444ZM33.3707 45.1166C33.4751 45.147 33.6041 45.1592 33.7577 45.1592C34.3474 45.1592 34.8143 44.7395 35.146 43.9183L37.0256 39.2284H36.4359L35.2688 42.355C35.232 42.4949 35.2012 42.5922 35.189 42.6531V42.6896H35.0845V42.6531C35.0231 42.4402 34.9985 42.3672 34.9924 42.3428L33.8867 39.2223H33.2479L34.845 43.2674L34.5071 44.0582C34.2798 44.5935 33.899 44.7821 33.3707 44.6239V45.1166Z" fill="white"/>
<path d="M0.109375 42.3793V36.9352H2.28391C2.67704 36.9352 3.01489 36.996 3.28518 37.1237C3.55546 37.2515 3.76431 37.434 3.90559 37.6773C4.04688 37.9206 4.11445 38.2187 4.11445 38.5715C4.11445 38.9243 4.04688 39.2041 3.90559 39.4535C3.76431 39.7029 3.5616 39.8854 3.28518 40.0192C3.01489 40.1469 2.67704 40.2138 2.28391 40.2138H0.748221V42.3854H0.109375V42.3793ZM0.748221 39.6786H2.20405C2.6279 39.6786 2.94118 39.5873 3.15618 39.3987C3.37117 39.2102 3.48174 38.9364 3.48174 38.5776C3.48174 38.2187 3.37117 37.9328 3.15618 37.7503C2.94118 37.5678 2.62176 37.4705 2.20405 37.4705H0.748221V39.6846V39.6786Z" fill="white"/>
<path d="M0.817522 42.4584H0.03125V36.8683H2.2795C2.68492 36.8683 3.02891 36.9352 3.31148 37.0629C3.60019 37.1968 3.81518 37.3914 3.96261 37.6469C4.11003 37.9024 4.18375 38.2126 4.18375 38.5776C4.18375 38.9425 4.11003 39.2345 3.96261 39.4961C3.81518 39.7576 3.59404 39.9523 3.31148 40.0922C3.02891 40.226 2.68492 40.2929 2.2795 40.2929H0.817522V42.4645V42.4584ZM0.178676 42.3064H0.670096V40.1348H2.2795C2.66035 40.1348 2.98591 40.074 3.25005 39.9462C3.50804 39.8246 3.70461 39.6482 3.83361 39.4109C3.96875 39.1737 4.03632 38.8939 4.03632 38.5654C4.03632 38.2369 3.96875 37.945 3.83361 37.7077C3.70461 37.4766 3.5019 37.3002 3.25005 37.1846C2.98591 37.0629 2.66035 37.0021 2.2795 37.0021H0.178676V42.2942V42.3064ZM2.19964 39.7576H0.670096V37.3914H2.20578C2.64192 37.3914 2.97977 37.4948 3.20705 37.6895C3.44047 37.8902 3.55719 38.1883 3.55719 38.5776C3.55719 38.9669 3.44047 39.2528 3.20705 39.4535C2.97977 39.6542 2.64192 39.7516 2.20578 39.7516L2.19964 39.7576ZM0.817522 39.6056H2.19964C2.59892 39.6056 2.90606 39.5143 3.10262 39.344C3.30533 39.1676 3.39748 38.9182 3.39748 38.5776C3.39748 38.2369 3.29919 37.9754 3.10262 37.805C2.89991 37.6286 2.59892 37.5435 2.19964 37.5435H0.817522V39.6117V39.6056Z" fill="white"/>
<path d="M6.98017 42.4521C6.58089 42.4521 6.2369 42.373 5.94819 42.2149C5.65948 42.0567 5.43834 41.8377 5.27863 41.5458C5.11892 41.2599 5.03906 40.9131 5.03906 40.5117C5.03906 40.1102 5.11892 39.7817 5.27249 39.4898C5.42606 39.1978 5.64105 38.9727 5.91748 38.8085C6.18776 38.6442 6.50718 38.5591 6.86346 38.5591C7.21974 38.5591 7.5023 38.6321 7.74187 38.7841C7.98758 38.9362 8.17186 39.143 8.307 39.4168C8.44214 39.6905 8.50357 40.019 8.50357 40.3961V40.6333H5.5182V40.2258H8.07972L7.95687 40.3292C7.95687 39.9156 7.86473 39.5993 7.68044 39.3681C7.49616 39.137 7.22588 39.0275 6.87574 39.0275C6.61161 39.0275 6.38432 39.0883 6.20004 39.2099C6.01576 39.3316 5.87448 39.4958 5.78233 39.7087C5.69019 39.9216 5.64105 40.171 5.64105 40.4509V40.4995C5.64105 40.8158 5.69019 41.0774 5.79462 41.2964C5.89905 41.5154 6.04647 41.6735 6.24918 41.7891C6.45189 41.9047 6.69146 41.9533 6.97403 41.9533C7.19517 41.9533 7.41631 41.9168 7.62516 41.8499C7.83401 41.783 8.03672 41.6674 8.22101 41.5093L8.44214 41.9472C8.27015 42.0993 8.05515 42.227 7.78487 42.3183C7.52073 42.4095 7.25045 42.4582 6.97403 42.4582L6.98017 42.4521Z" fill="white"/>
<path d="M6.98357 42.5253C6.57201 42.5253 6.21573 42.4402 5.91473 42.282C5.61374 42.1178 5.38031 41.8866 5.21446 41.5825C5.04861 41.2844 4.96875 40.9256 4.96875 40.5119C4.96875 40.0983 5.04861 39.7516 5.21446 39.4535C5.37417 39.1554 5.60145 38.9121 5.88402 38.7418C6.16659 38.5715 6.49829 38.4863 6.86686 38.4863C7.23542 38.4863 7.53028 38.5654 7.78827 38.7236C8.04627 38.8817 8.24283 39.1007 8.38412 39.3866C8.51926 39.6664 8.59297 40.007 8.59297 40.3963V40.7127H5.74274C5.76116 40.9256 5.80416 41.108 5.87788 41.2601C5.97002 41.4608 6.11744 41.6129 6.30173 41.7163C6.49215 41.8197 6.72558 41.8745 6.98971 41.8745C7.20471 41.8745 7.41356 41.838 7.61627 41.7772C7.81898 41.7102 8.00941 41.6008 8.18755 41.4487L8.26126 41.3879L8.54997 41.9657L8.50697 42.0022C8.32883 42.1604 8.10155 42.2942 7.82513 42.3854C7.55485 42.4828 7.27228 42.5314 6.98971 42.5314L6.98357 42.5253ZM6.86686 38.6384C6.52287 38.6384 6.21573 38.7175 5.95773 38.8756C5.69974 39.0338 5.49088 39.2528 5.34346 39.5326C5.19603 39.8124 5.11618 40.1409 5.11618 40.518C5.11618 40.8951 5.18989 41.2419 5.34346 41.5156C5.49703 41.7893 5.71202 42.0022 5.9823 42.1543C6.25873 42.3064 6.59044 42.3794 6.97743 42.3794C7.24157 42.3794 7.5057 42.3368 7.7637 42.2455C7.99712 42.1665 8.19369 42.057 8.3534 41.9292L8.19984 41.6251C8.02784 41.7589 7.84356 41.8562 7.65313 41.9231C7.43813 41.9961 7.21085 42.0326 6.97743 42.0326C6.68258 42.0326 6.43072 41.9718 6.21573 41.8562C6.00073 41.7407 5.83488 41.5643 5.73045 41.3331C5.65059 41.1567 5.60145 40.956 5.57688 40.7187H5.44174V40.1591H5.58302C5.6076 39.9827 5.6506 39.8246 5.71202 39.6847C5.81031 39.4596 5.95773 39.2771 6.1543 39.1494C6.35087 39.0216 6.59044 38.9547 6.873 38.9547C7.24771 38.9547 7.53642 39.0824 7.73913 39.3258C7.90498 39.5326 8.00327 39.8124 8.02784 40.1591H8.29198L7.88041 40.4876V40.3051H5.71817C5.71817 40.3538 5.71817 40.4024 5.71817 40.4572V40.5058C5.71817 40.5058 5.71817 40.5484 5.71817 40.5727H8.42712V40.4085C8.42712 40.0435 8.36569 39.7212 8.23669 39.4596C8.11384 39.2041 7.92955 38.9973 7.70227 38.8574C7.46885 38.7175 7.18628 38.6445 6.86072 38.6445L6.86686 38.6384ZM5.74274 40.153H7.88041C7.85584 39.8428 7.76984 39.5934 7.62856 39.4109C7.45656 39.198 7.21085 39.0946 6.87914 39.0946C6.62729 39.0946 6.41844 39.1494 6.24644 39.2649C6.07444 39.3744 5.94545 39.5326 5.85945 39.7333C5.80416 39.8611 5.76731 40.001 5.74274 40.153Z" fill="white"/>
<path d="M10.1953 42.379V38.6259H10.8096V39.514H10.7297C10.8157 39.2098 10.9693 38.9787 11.1904 38.8205C11.4116 38.6624 11.6941 38.5711 12.0566 38.5468L12.2838 38.5225L12.333 39.0638L11.9337 39.1125C11.5774 39.1429 11.3071 39.2585 11.1167 39.4471C10.9263 39.6417 10.8342 39.9033 10.8342 40.2378V42.3729H10.1953V42.379Z" fill="white"/>
<path d="M10.9113 42.4581H10.125V38.559H10.8928V39.0334C10.9666 38.93 11.0526 38.8449 11.157 38.7719C11.3843 38.6076 11.6914 38.5103 12.06 38.486L12.361 38.4556L12.4224 39.1429L11.9555 39.1977C11.6177 39.2281 11.3597 39.3315 11.1877 39.514C11.0157 39.6904 10.9236 39.9398 10.9236 40.2561V42.4703L10.9113 42.4581ZM10.2724 42.306H10.7638V40.2439C10.7638 39.8911 10.8683 39.6052 11.071 39.3984C11.2737 39.1916 11.5624 39.0699 11.931 39.0395L12.2565 39.003L12.2197 38.6076L12.0723 38.6259C11.7283 38.6502 11.4518 38.7354 11.243 38.8874C11.0956 38.9969 10.9788 39.1429 10.8928 39.3193V39.5931H10.641L10.6656 39.4957C10.684 39.4227 10.7147 39.3558 10.7393 39.2889V38.705H10.2724V42.306Z" fill="white"/>
<path d="M14.4369 42.3791V39.1126H13.6875V38.626H14.6089L14.4369 38.7902V38.4983C14.4369 37.9995 14.5659 37.6223 14.8178 37.3608C15.0696 37.1053 15.4566 36.9593 15.9849 36.9289L16.2859 36.9106L16.3412 37.3912L15.9849 37.4155C15.7699 37.4338 15.5979 37.4764 15.4628 37.5554C15.3276 37.6345 15.2293 37.744 15.1679 37.8839C15.1065 38.0299 15.0758 38.2063 15.0758 38.4192V38.7416L14.9836 38.626H16.1692V39.1126H15.0758V42.3791H14.4431H14.4369Z" fill="white"/>
<path d="M15.1389 42.4582H14.3588V39.1917H13.6094V38.5591H14.3588V38.5044C14.3588 37.9873 14.4939 37.5859 14.7581 37.3182C15.0222 37.0506 15.4338 36.8924 15.9743 36.862L16.349 36.8438L16.4228 37.4703L15.9866 37.5007C15.7839 37.5129 15.6242 37.5554 15.4952 37.6284C15.3723 37.6954 15.2863 37.7927 15.2311 37.9265C15.1758 38.0603 15.1451 38.2306 15.1451 38.4314V38.5652H16.2385V39.1978H15.1451V42.4643L15.1389 42.4582ZM14.5062 42.3062H14.9854V39.0397H16.0788V38.7051H15.1389V38.9606L14.8134 38.5591H14.9854V38.4253C14.9854 38.2063 15.0161 38.0177 15.0836 37.8657C15.1512 37.7075 15.2618 37.5859 15.4092 37.5007C15.5505 37.4155 15.7409 37.3669 15.962 37.3486L16.2446 37.3304L16.2078 36.9958L15.9743 37.008C15.4706 37.0384 15.0959 37.1783 14.8564 37.4155C14.6168 37.6589 14.5001 38.0238 14.5001 38.4983V38.553H14.7826L14.3465 38.9606V38.699H13.7507V39.0336H14.5001V42.3001L14.5062 42.3062Z" fill="white"/>
<path d="M19.363 42.4521C18.9637 42.4521 18.6197 42.373 18.331 42.2149C18.0423 42.0567 17.8212 41.8377 17.6614 41.5458C17.5017 41.2599 17.4219 40.9131 17.4219 40.5117C17.4219 40.1102 17.5017 39.7817 17.6553 39.4898C17.8089 39.1978 18.0239 38.9727 18.3003 38.8085C18.5706 38.6442 18.89 38.5591 19.2463 38.5591C19.6025 38.5591 19.8851 38.6321 20.1247 38.7841C20.3704 38.9362 20.5547 39.143 20.6898 39.4168C20.825 39.6905 20.8864 40.019 20.8864 40.3961V40.6333H17.901V40.2258H20.4625L20.3397 40.3292C20.3397 39.9156 20.2475 39.5993 20.0633 39.3681C19.879 39.137 19.6087 39.0275 19.2586 39.0275C18.9944 39.0275 18.7671 39.0883 18.5829 39.2099C18.3986 39.3316 18.2573 39.4958 18.1651 39.7087C18.073 39.9216 18.0239 40.171 18.0239 40.4509V40.4995C18.0239 40.8158 18.073 41.0774 18.1774 41.2964C18.2819 41.5154 18.4293 41.6735 18.632 41.7891C18.8347 41.9047 19.0743 41.9533 19.3568 41.9533C19.578 41.9533 19.7991 41.9168 20.008 41.8499C20.2168 41.783 20.4195 41.6674 20.6038 41.5093L20.825 41.9472C20.653 42.0993 20.438 42.227 20.1677 42.3183C19.9035 42.4095 19.6333 42.4582 19.3568 42.4582L19.363 42.4521Z" fill="white"/>
<path d="M19.3663 42.5252C18.9547 42.5252 18.5984 42.4401 18.2974 42.2819C17.9964 42.1177 17.763 41.8865 17.5972 41.5824C17.4313 41.2843 17.3514 40.9254 17.3514 40.5118C17.3514 40.0982 17.4313 39.7514 17.5972 39.4534C17.7569 39.1553 17.9841 38.912 18.2667 38.7417C18.5493 38.5714 18.881 38.4862 19.2495 38.4862C19.6181 38.4862 19.913 38.5653 20.171 38.7234C20.429 38.8816 20.6255 39.1006 20.7668 39.3865C20.9019 39.6663 20.9757 40.0069 20.9757 40.3962V40.7125H18.1254C18.1439 40.9254 18.1869 41.1079 18.2606 41.26C18.3527 41.4607 18.5001 41.6128 18.6844 41.7162C18.8748 41.8196 19.1083 41.8744 19.3724 41.8744C19.5874 41.8744 19.7963 41.8379 19.999 41.777C20.2017 41.7101 20.3921 41.6006 20.5702 41.4486L20.644 41.3877L20.9327 41.9656L20.8897 42.0021C20.7115 42.1603 20.4842 42.2941 20.2078 42.3853C19.9375 42.4826 19.655 42.5313 19.3724 42.5313L19.3663 42.5252ZM19.2495 38.6383C18.9056 38.6383 18.5984 38.7174 18.3404 38.8755C18.0824 39.0337 17.8736 39.2526 17.7261 39.5325C17.5787 39.8123 17.4989 40.1407 17.4989 40.5179C17.4989 40.895 17.5726 41.2417 17.7261 41.5155C17.8797 41.7892 18.0947 42.0021 18.365 42.1542C18.6414 42.3062 18.9731 42.3792 19.3601 42.3792C19.6243 42.3792 19.8884 42.3367 20.1464 42.2454C20.3798 42.1663 20.5764 42.0568 20.7361 41.9291L20.5825 41.625C20.4105 41.7588 20.2262 41.8561 20.0358 41.923C19.8208 41.996 19.5935 42.0325 19.3601 42.0325C19.0653 42.0325 18.8134 41.9717 18.5984 41.8561C18.3834 41.7405 18.2176 41.5641 18.1131 41.333C18.0333 41.1566 17.9841 40.9558 17.9596 40.7186H17.8244V40.159H17.9657C17.9903 39.9826 18.0333 39.8244 18.0947 39.6845C18.193 39.4595 18.3404 39.277 18.537 39.1492C18.7336 39.0215 18.9731 38.9546 19.2557 38.9546C19.6304 38.9546 19.9191 39.0823 20.1218 39.3256C20.2877 39.5325 20.386 39.8123 20.4105 40.159H20.6747L20.2631 40.4875V40.305H18.1009C18.1009 40.3536 18.1009 40.4023 18.1009 40.4571V40.5057C18.1009 40.5057 18.1009 40.5483 18.1009 40.5726H20.8098V40.4084C20.8098 40.0434 20.7484 39.721 20.6194 39.4595C20.4965 39.204 20.3122 38.9972 20.085 38.8573C19.8515 38.7174 19.569 38.6444 19.2434 38.6444L19.2495 38.6383ZM18.1254 40.1529H20.2631C20.2385 39.8427 20.1525 39.5933 20.0113 39.4108C19.8393 39.1979 19.5935 39.0945 19.2618 39.0945C19.01 39.0945 18.8011 39.1492 18.6291 39.2648C18.4571 39.3743 18.3281 39.5325 18.2421 39.7332C18.1869 39.8609 18.15 40.0008 18.1254 40.1529Z" fill="white"/>
<path d="M24.0867 42.4521C23.7058 42.4521 23.3803 42.367 23.1038 42.2027C22.8274 42.0385 22.6186 41.8073 22.4711 41.5093C22.3237 41.2112 22.25 40.8706 22.25 40.4813C22.25 40.092 22.3237 39.7452 22.4711 39.4533C22.6186 39.1613 22.8336 38.9423 23.1038 38.7902C23.3803 38.6382 23.7058 38.5591 24.0867 38.5591C24.3201 38.5591 24.5535 38.6017 24.7808 38.6807C25.0081 38.7598 25.1985 38.8815 25.3521 39.0275L25.1371 39.4837C24.9835 39.3377 24.8238 39.2343 24.6395 39.1674C24.4614 39.1005 24.2894 39.064 24.1297 39.064C23.7365 39.064 23.4294 39.1856 23.2206 39.4289C23.0056 39.6722 22.9011 40.0251 22.9011 40.4813C22.9011 40.9375 23.0056 41.2842 23.2206 41.5397C23.4356 41.8012 23.7365 41.929 24.1297 41.929C24.2894 41.929 24.4614 41.8986 24.6395 41.8317C24.8177 41.7647 24.9835 41.6553 25.1371 41.5093L25.3521 41.9655C25.1985 42.1176 25.0081 42.2331 24.7808 42.3183C24.5474 42.4034 24.3201 42.446 24.0928 42.446L24.0867 42.4521Z" fill="white"/>
<path d="M24.0901 42.5253C23.6969 42.5253 23.353 42.4402 23.0704 42.2699C22.7817 42.0995 22.5605 41.8562 22.407 41.546C22.2534 41.2419 22.1797 40.883 22.1797 40.4815C22.1797 40.08 22.2595 39.7211 22.4131 39.4231C22.5667 39.125 22.794 38.8878 23.0765 38.7296C23.3652 38.5715 23.7031 38.4863 24.0962 38.4863C24.3358 38.4863 24.5815 38.5289 24.8149 38.6141C25.0545 38.6992 25.2511 38.8209 25.4108 38.979L25.4476 39.0155L25.1651 39.6117L25.0913 39.5387C24.9501 39.4048 24.7904 39.3014 24.6245 39.2406C24.4525 39.1798 24.2928 39.1433 24.1392 39.1433C23.7645 39.1433 23.4819 39.2528 23.2854 39.4839C23.0827 39.7151 22.9844 40.0496 22.9844 40.4876C22.9844 40.9256 23.0888 41.254 23.2854 41.5034C23.4881 41.7467 23.7645 41.8684 24.1392 41.8684C24.2928 41.8684 24.4525 41.838 24.6245 41.7711C24.7904 41.7102 24.9501 41.6068 25.0913 41.4669L25.1651 41.3939L25.4538 41.9901L25.4169 42.0266C25.2572 42.1847 25.0606 42.3064 24.8149 42.3976C24.5754 42.4828 24.3358 42.5314 24.0962 42.5314L24.0901 42.5253ZM24.0901 38.6384C23.7277 38.6384 23.4082 38.7114 23.1441 38.8574C22.8861 39.0034 22.6772 39.2163 22.536 39.49C22.3947 39.7637 22.321 40.0983 22.321 40.4815C22.321 40.8647 22.3947 41.1932 22.536 41.4791C22.6772 41.7589 22.88 41.984 23.1441 42.1421C23.4082 42.3003 23.7215 42.3794 24.0901 42.3794C24.3051 42.3794 24.5324 42.3368 24.7535 42.2577C24.9562 42.1847 25.1221 42.0813 25.2633 41.9596L25.1098 41.6433C24.9746 41.765 24.8211 41.8562 24.6675 41.911C24.4832 41.9779 24.2989 42.0144 24.1331 42.0144C23.7154 42.0144 23.3898 41.8745 23.1625 41.5947C22.9414 41.3209 22.8247 40.9499 22.8247 40.4876C22.8247 40.0253 22.9414 39.6421 23.1625 39.3866C23.3898 39.125 23.7154 38.9973 24.1331 38.9973C24.2989 38.9973 24.4832 39.0338 24.6675 39.1007C24.8272 39.1615 24.9746 39.2467 25.1098 39.3623L25.2633 39.046C25.1282 38.9243 24.9562 38.8209 24.7596 38.754C24.5385 38.6749 24.3174 38.6323 24.0901 38.6323V38.6384Z" fill="white"/>
<path d="M28.5885 42.4521C28.1401 42.4521 27.8084 42.3365 27.5811 42.0993C27.36 41.8621 27.2433 41.5275 27.2433 41.0896V39.1187H26.5V38.6321H27.2433V37.4824H27.876V38.6321H29.0738V39.1187H27.876V41.0226C27.876 41.3146 27.9374 41.5397 28.0603 41.6918C28.1831 41.8438 28.3858 41.9168 28.6684 41.9168C28.7544 41.9168 28.8342 41.9047 28.9202 41.8864C29.0062 41.8682 29.08 41.8438 29.1475 41.8256L29.2581 42.3061C29.1905 42.3426 29.0922 42.373 28.9632 42.4095C28.8342 42.446 28.7114 42.4582 28.5885 42.4582V42.4521Z" fill="white"/>
<path d="M28.5919 42.5254C28.1251 42.5254 27.7688 42.3976 27.5292 42.1482C27.2958 41.8988 27.173 41.5399 27.173 41.0837V39.1919H26.4297V38.5593H27.173V37.4097H27.9531V38.5593H29.1509V39.1919H27.9531V41.0229C27.9531 41.2966 28.0084 41.5034 28.1251 41.6433C28.2357 41.7772 28.4138 41.8441 28.6779 41.8441C28.7578 41.8441 28.8315 41.8319 28.9114 41.8137C28.9912 41.7954 29.0649 41.7711 29.1325 41.7528L29.2124 41.7285L29.3536 42.3368L29.3045 42.3611C29.2308 42.3976 29.1264 42.4341 28.9912 42.4706C28.8561 42.501 28.7271 42.5193 28.5981 42.5193L28.5919 42.5254ZM26.5894 39.046H27.3327V41.0898C27.3327 41.5034 27.4371 41.8319 27.646 42.0509C27.8548 42.2699 28.1742 42.3794 28.5981 42.3794C28.7086 42.3794 28.8315 42.3672 28.9544 42.3368C29.0465 42.3125 29.1264 42.2881 29.1816 42.2638L29.1018 41.9231C29.0526 41.9353 29.0035 41.9475 28.9482 41.9657C28.8622 41.9901 28.7701 41.9961 28.6779 41.9961C28.3769 41.9961 28.1497 41.911 28.0145 41.7407C27.8794 41.5764 27.8118 41.3331 27.8118 41.029V39.046H29.0096V38.7114H27.8118V37.5617H27.3327V38.7114H26.5894V39.046Z" fill="white"/>
<path d="M31.8859 42.452C31.4989 42.452 31.2102 42.3364 31.0136 42.1114C30.817 41.8863 30.7188 41.5639 30.7188 41.1381V36.9409H31.3515V41.0955C31.3515 41.278 31.376 41.4301 31.4252 41.5517C31.4743 41.6734 31.548 41.7707 31.6463 41.8315C31.7446 41.8924 31.8674 41.9228 32.0149 41.9228C32.0763 41.9228 32.1377 41.9228 32.1992 41.9106C32.2606 41.8984 32.3159 41.8924 32.365 41.8741L32.3466 42.3972C32.2606 42.4155 32.1869 42.4277 32.107 42.4337C32.0333 42.4459 31.9534 42.452 31.8797 42.452H31.8859Z" fill="white"/>
<path d="M31.8831 42.5252C31.4777 42.5252 31.1644 42.4036 30.9556 42.1603C30.7529 41.923 30.6484 41.5763 30.6484 41.1383V36.8682H31.4286V41.0957C31.4286 41.2661 31.4531 41.4121 31.4961 41.5216C31.5391 41.631 31.6006 41.7101 31.6866 41.7649C31.8094 41.8439 32.006 41.8561 32.1841 41.8379C32.2394 41.8318 32.2886 41.8196 32.3377 41.8074L32.436 41.777L32.4175 42.4644L32.3561 42.4766C32.2701 42.4948 32.1903 42.507 32.1166 42.5131C32.0367 42.5252 31.9568 42.5313 31.877 42.5313L31.8831 42.5252ZM30.7959 37.0142V41.1383C30.7959 41.5398 30.888 41.85 31.0723 42.0629C31.2566 42.2758 31.5207 42.3792 31.8831 42.3792C31.9568 42.3792 32.0306 42.3792 32.1043 42.3671C32.1596 42.361 32.221 42.3488 32.2763 42.3427L32.2886 41.9778C32.2886 41.9778 32.2333 41.9899 32.2087 41.9899C32.1473 41.996 32.0797 42.0021 32.0183 42.0021C31.8586 42.0021 31.7234 41.9656 31.6128 41.8987C31.5023 41.8257 31.4163 41.7223 31.361 41.5824C31.3057 41.4486 31.2811 41.2904 31.2811 41.1018V37.0263H30.802L30.7959 37.0142Z" fill="white"/>
<path d="M39.5234 37.6954V36.9897H40.3036V37.6954H39.5234ZM39.6033 42.3792V38.626H40.236V42.3792H39.6033Z" fill="white"/>
<path d="M40.3053 42.4583H39.5252V38.5591H40.3053V42.4583ZM39.6726 42.3062H40.1517V38.7051H39.6726V42.3062ZM40.3729 37.7745H39.4453V36.9229H40.3729V37.7745ZM39.5989 37.6224H40.2254V37.0688H39.5989V37.6224Z" fill="white"/>
<path d="M42.2684 42.3791V38.626H42.8827V39.4593H42.7967C42.9073 39.1613 43.0854 38.9362 43.3311 38.7841C43.5768 38.6321 43.8594 38.5591 44.185 38.5591C44.486 38.5591 44.7378 38.6138 44.9344 38.7233C45.1371 38.8328 45.2845 38.997 45.3828 39.216C45.4811 39.435 45.5302 39.7087 45.5302 40.0433V42.3791H44.8975V40.0798C44.8975 39.8486 44.8668 39.6601 44.8054 39.508C44.744 39.3559 44.6518 39.2464 44.5228 39.1735C44.3938 39.1005 44.228 39.064 44.0253 39.064C43.798 39.064 43.5953 39.1126 43.4233 39.2099C43.2513 39.3073 43.1161 39.4411 43.024 39.6175C42.9318 39.7939 42.8827 40.0007 42.8827 40.238V42.373H42.25L42.2684 42.3791Z" fill="white"/>
<path d="M45.6107 42.4582H44.8306V40.0859C44.8306 39.8669 44.7998 39.6844 44.7445 39.5445C44.6893 39.4107 44.6094 39.3134 44.4988 39.2525C44.3821 39.1856 44.2286 39.1552 44.0381 39.1552C43.8231 39.1552 43.6327 39.1978 43.473 39.289C43.3133 39.3742 43.1904 39.5019 43.1044 39.6662C43.0184 39.8304 42.9754 40.0312 42.9754 40.2501V42.4643H42.1953V38.5652H42.9632V39.0275C43.0553 38.9119 43.1659 38.8085 43.2949 38.7294C43.5529 38.5713 43.8539 38.4922 44.1856 38.4922C44.4988 38.4922 44.763 38.5469 44.9718 38.6625C45.1868 38.7781 45.3465 38.9545 45.451 39.1856C45.5554 39.4107 45.6045 39.7027 45.6045 40.0433V42.4582H45.6107ZM44.978 42.3061H45.4571V40.0433C45.4571 39.7209 45.408 39.4533 45.3158 39.2465C45.2237 39.0457 45.0824 38.8937 44.8981 38.7902C44.7077 38.6868 44.4681 38.6382 44.1794 38.6382C43.8723 38.6382 43.602 38.7112 43.3686 38.8572C43.1966 38.9606 43.0553 39.1126 42.957 39.2951V39.5445H42.6867L42.7236 39.4472C42.7482 39.3803 42.7727 39.3195 42.8034 39.2647V38.7173H42.3366V42.3183H42.8157V40.2562C42.8157 40.0068 42.8649 39.7878 42.9632 39.5993C43.0614 39.4107 43.2089 39.2647 43.3931 39.1613C43.5713 39.0579 43.7863 39.0092 44.032 39.0092C44.247 39.0092 44.4251 39.0518 44.5664 39.1248C44.7077 39.2039 44.8121 39.3316 44.8797 39.4959C44.9411 39.654 44.9718 39.8548 44.9718 40.092V42.3183L44.978 42.3061Z" fill="white"/>
<path d="M48.9438 42.3793V36.9352H51.1429C51.7019 36.9352 52.1381 37.0568 52.4513 37.3062C52.7646 37.5556 52.9182 37.9024 52.9182 38.3586C52.9182 38.6992 52.8199 38.979 52.6172 39.2102C52.4145 39.4352 52.1442 39.5873 51.8002 39.6603V39.5508C52.0582 39.5812 52.2855 39.6542 52.4698 39.7698C52.654 39.8854 52.8015 40.0374 52.8998 40.226C52.998 40.4146 53.0472 40.6336 53.0472 40.883C53.0472 41.2053 52.9735 41.4791 52.8322 41.7041C52.6909 41.9292 52.482 42.0995 52.2118 42.209C51.9415 42.3246 51.6159 42.3793 51.2289 42.3793H48.9377H48.9438ZM49.5642 39.3744H51.0446C51.4501 39.3744 51.7572 39.2892 51.9661 39.125C52.1749 38.9608 52.2793 38.7235 52.2793 38.4133C52.2793 38.1031 52.1749 37.8537 51.9661 37.6895C51.7572 37.5252 51.4501 37.4461 51.0446 37.4461H49.5642V39.3683V39.3744ZM49.5642 41.8745H51.1675C51.3334 41.8745 51.4808 41.8623 51.6159 41.838C51.7511 41.8136 51.8616 41.7711 51.9599 41.7163C52.0582 41.6616 52.1442 41.5947 52.2118 41.5217C52.2793 41.4487 52.3285 41.3513 52.3653 41.2418C52.4022 41.1324 52.4145 41.0107 52.4145 40.8769C52.4145 40.743 52.396 40.6153 52.3653 40.5119C52.3285 40.4085 52.2793 40.3112 52.2118 40.2321C52.1442 40.153 52.0582 40.0861 51.9599 40.0374C51.8616 39.9888 51.7449 39.9462 51.6159 39.9219C51.4808 39.8975 51.3334 39.8854 51.1675 39.8854H49.5642V41.8745Z" fill="white"/>
<path d="M51.2323 42.4584H48.8674V36.8683H51.1402C51.7176 36.8683 52.1722 36.996 52.4977 37.2576C52.8294 37.5192 52.9953 37.8902 52.9953 38.3647C52.9953 38.7236 52.8909 39.0216 52.6759 39.2649C52.5592 39.3988 52.4179 39.5022 52.2582 39.5873C52.3503 39.6238 52.4363 39.6664 52.5162 39.7151C52.7127 39.8367 52.8663 40.001 52.9707 40.2017C53.0752 40.4024 53.1243 40.6336 53.1243 40.8951C53.1243 41.2297 53.0506 41.5217 52.897 41.7589C52.7434 41.9961 52.5284 42.1725 52.2459 42.2942C51.9695 42.4098 51.6255 42.4706 51.2323 42.4706V42.4584ZM49.0148 42.3064H51.2323C51.607 42.3064 51.9265 42.2516 52.1845 42.1421C52.4424 42.0387 52.639 41.8745 52.768 41.6677C52.9032 41.4548 52.9707 41.1932 52.9707 40.883C52.9707 40.6457 52.9216 40.4328 52.8294 40.2564C52.7373 40.08 52.6022 39.9401 52.4302 39.8306C52.3134 39.7576 52.1845 39.7029 52.037 39.6664C51.9633 39.6907 51.8896 39.709 51.8159 39.7272L51.7237 39.7455V39.4596L51.8097 39.4717C51.8835 39.4778 51.9633 39.4961 52.0309 39.5082C52.2459 39.4292 52.4179 39.3075 52.5592 39.1554C52.7434 38.9425 52.8417 38.6749 52.8417 38.3525C52.8417 37.9206 52.7004 37.5921 52.3995 37.361C52.1046 37.1238 51.6807 37.0082 51.134 37.0082H49.0087V42.3003L49.0148 42.3064ZM51.1709 41.9475H49.4878V39.8063H51.1709C51.3429 39.8063 51.4965 39.8185 51.6316 39.8489C51.7729 39.8793 51.8957 39.9158 52.0002 39.9705C52.1107 40.0253 52.1967 40.0983 52.2704 40.1834C52.3442 40.2686 52.3994 40.372 52.4363 40.4876C52.4732 40.5971 52.4916 40.7309 52.4916 40.8769C52.4916 41.0229 52.4732 41.1445 52.4363 41.2601C52.3994 41.3757 52.3442 41.4791 52.2704 41.5643C52.1967 41.6494 52.1046 41.7163 52.0002 41.7772C51.8957 41.8319 51.7729 41.8806 51.6316 41.9049C51.4965 41.9292 51.3368 41.9414 51.1709 41.9414V41.9475ZM49.6414 41.7954H51.1709C51.3306 41.7954 51.478 41.7832 51.607 41.7589C51.7299 41.7346 51.8405 41.6981 51.9326 41.6494C52.0247 41.6008 52.0985 41.5399 52.1599 41.4669C52.2213 41.4 52.2643 41.3149 52.295 41.2175C52.3257 41.1141 52.3442 41.0046 52.3442 40.8769C52.3442 40.7491 52.3257 40.6275 52.295 40.5302C52.2643 40.4328 52.2152 40.3477 52.1599 40.2747C52.0985 40.2017 52.0247 40.1409 51.9326 40.0983C51.8405 40.0496 51.7299 40.0131 51.607 39.9888C51.478 39.9645 51.3306 39.9523 51.1709 39.9523H49.6414V41.7954ZM51.048 39.4474H49.4939V37.3792H51.048C51.4657 37.3792 51.7975 37.4644 52.0186 37.6347C52.2459 37.8111 52.3626 38.0727 52.3626 38.4133C52.3626 38.754 52.2459 39.0034 52.0186 39.1798C51.7975 39.3562 51.4657 39.4413 51.048 39.4413V39.4474ZM49.6414 39.2953H51.048C51.435 39.2953 51.7299 39.2163 51.9265 39.0642C52.1169 38.9121 52.2152 38.6992 52.2152 38.4133C52.2152 38.1274 52.123 37.8963 51.9265 37.7503C51.7299 37.5982 51.435 37.5252 51.048 37.5252H49.6414V39.3014V39.2953Z" fill="white"/>
<path d="M55.8793 42.4521C55.6213 42.4521 55.3879 42.4034 55.179 42.3C54.9763 42.1966 54.8105 42.0628 54.6938 41.8864C54.5771 41.71 54.5156 41.5154 54.5156 41.3025C54.5156 41.0226 54.5893 40.8037 54.7306 40.6455C54.8719 40.4873 55.1115 40.3718 55.437 40.3049C55.7687 40.238 56.2172 40.2015 56.7884 40.2015H57.1386V40.609H56.7946C56.4752 40.609 56.211 40.6212 56.0022 40.6394C55.7872 40.6577 55.6213 40.6942 55.4985 40.7489C55.3756 40.7976 55.2835 40.8645 55.2343 40.9496C55.1852 41.0348 55.1545 41.1321 55.1545 41.2599C55.1545 41.4728 55.2282 41.6431 55.3756 41.7769C55.523 41.9107 55.7257 41.9777 55.9776 41.9777C56.1865 41.9777 56.3707 41.929 56.5243 41.8317C56.684 41.7343 56.8069 41.6005 56.899 41.4302C56.9912 41.2599 57.0342 41.0652 57.0342 40.8462V39.9642C57.0342 39.6479 56.9666 39.4168 56.8376 39.2769C56.7086 39.137 56.4936 39.064 56.1987 39.064C55.9715 39.064 55.7503 39.0944 55.5353 39.1613C55.3203 39.2282 55.1053 39.3316 54.878 39.4715L54.663 39.0153C54.7982 38.9241 54.9518 38.8389 55.1238 38.772C55.2958 38.7051 55.4739 38.6503 55.6643 38.6138C55.8486 38.5773 56.0329 38.5591 56.2049 38.5591C56.5304 38.5591 56.8007 38.6138 57.0157 38.7172C57.2307 38.8206 57.3843 38.9849 57.4887 39.1978C57.5931 39.4107 57.6423 39.6844 57.6423 40.019V42.3791H57.0526V41.5093H57.1201C57.0771 41.7039 56.9973 41.8742 56.8806 42.0081C56.7639 42.148 56.6164 42.2575 56.4506 42.3305C56.2786 42.4095 56.0882 42.446 55.8732 42.446L55.8793 42.4521Z" fill="white"/>
<path d="M55.8827 42.5253C55.6124 42.5253 55.3667 42.4706 55.1517 42.3672C54.9367 42.2638 54.7647 42.1117 54.6357 41.9292C54.5067 41.7407 54.4453 41.5338 54.4453 41.3027C54.4453 41.0046 54.5252 40.7674 54.6787 40.5971C54.8323 40.4268 55.0842 40.3051 55.4282 40.2321C55.766 40.1652 56.2206 40.1287 56.798 40.1287H56.97V39.9645C56.97 39.6664 56.9086 39.4535 56.7918 39.3258C56.6751 39.198 56.4786 39.1372 56.2083 39.1372C55.9871 39.1372 55.7721 39.1676 55.5694 39.2284C55.3606 39.2893 55.1517 39.3927 54.9367 39.5326L54.863 39.5812L54.5805 38.9912L54.6357 38.9547C54.7709 38.8574 54.9306 38.7783 55.1087 38.7053C55.2869 38.6323 55.4712 38.5776 55.6616 38.5411C55.852 38.5046 56.0363 38.4863 56.2144 38.4863C56.5523 38.4863 56.8348 38.5411 57.056 38.6506C57.2833 38.7661 57.4553 38.9365 57.5658 39.1615C57.6764 39.3866 57.7317 39.6725 57.7317 40.0131V42.4463H56.9884V42.0022C56.9884 42.0022 56.9638 42.0326 56.9516 42.0448C56.8287 42.1908 56.6751 42.3064 56.4908 42.3915C56.3127 42.4706 56.1039 42.5132 55.8827 42.5132V42.5253ZM56.7918 40.2808C56.2267 40.2808 55.7783 40.3112 55.4527 40.3781C55.1394 40.4389 54.9183 40.5484 54.7832 40.6944C54.6542 40.8404 54.5866 41.0411 54.5866 41.3027C54.5866 41.5034 54.6419 41.6859 54.7524 41.8502C54.863 42.0144 55.0166 42.1421 55.2132 42.2395C55.4097 42.3368 55.6309 42.3794 55.8766 42.3794C56.0793 42.3794 56.2636 42.3429 56.4233 42.2699C56.583 42.1969 56.7181 42.0935 56.8287 41.9657C56.8901 41.8927 56.9393 41.8137 56.9761 41.7224V41.4487C56.9761 41.4487 56.97 41.4608 56.9638 41.4669C56.8656 41.6494 56.7304 41.7954 56.5646 41.8988C56.3926 42.0022 56.196 42.057 55.9749 42.057C55.7046 42.057 55.4834 41.984 55.3237 41.838C55.1579 41.692 55.078 41.4973 55.078 41.2662C55.078 41.1263 55.1087 41.0107 55.1702 40.9195C55.2316 40.8221 55.3299 40.7492 55.4712 40.6883C55.6001 40.6336 55.7783 40.5971 55.9994 40.5727C56.2144 40.5545 56.4847 40.5423 56.8041 40.5423H56.97V40.2808H56.798H56.7918ZM57.1297 42.3064H57.572V40.0192C57.572 39.6968 57.5228 39.4292 57.4245 39.2284C57.3263 39.0277 57.185 38.8817 56.9823 38.7844C56.7796 38.6871 56.5216 38.6323 56.2083 38.6323C56.0424 38.6323 55.8643 38.6506 55.6862 38.6871C55.508 38.7236 55.3299 38.7722 55.164 38.8391C55.0227 38.9 54.8876 38.9669 54.7709 39.0399L54.9244 39.3623C55.1272 39.2406 55.3299 39.1433 55.5264 39.0885C55.7476 39.0216 55.9749 38.9912 56.2083 38.9912C56.5277 38.9912 56.7611 39.0703 56.9024 39.2284C57.0437 39.3866 57.1174 39.6299 57.1174 39.9705V40.1348H57.2218V40.6944H57.1174V40.8526C57.1174 41.0715 57.0744 41.2723 56.9884 41.4426H57.2218L57.2034 41.5338C57.185 41.6129 57.1665 41.6859 57.1358 41.7589V42.3185L57.1297 42.3064ZM56.798 40.6883C56.4847 40.6883 56.2206 40.7005 56.0117 40.7187C55.809 40.737 55.6431 40.7735 55.5264 40.8221C55.4159 40.8647 55.3422 40.9256 55.2992 40.9925C55.2562 41.0655 55.2316 41.1506 55.2316 41.2601C55.2316 41.4487 55.2992 41.6007 55.4282 41.7224C55.5633 41.8441 55.7476 41.9049 55.981 41.9049C56.1714 41.9049 56.3434 41.8623 56.4908 41.7711C56.6383 41.6798 56.755 41.5521 56.841 41.4C56.927 41.2419 56.97 41.0594 56.97 40.8465V40.6883H56.8041H56.798Z" fill="white"/>
<path d="M60.6906 42.452C60.3036 42.452 60.0149 42.3364 59.8183 42.1114C59.6217 41.8863 59.5234 41.5639 59.5234 41.1381V36.9409H60.1561V41.0955C60.1561 41.278 60.1807 41.4301 60.2299 41.5517C60.279 41.6734 60.3527 41.7707 60.451 41.8315C60.5493 41.8924 60.6721 41.9228 60.8196 41.9228C60.881 41.9228 60.9424 41.9228 61.0038 41.9106C61.0653 41.8984 61.1206 41.8924 61.1697 41.8741L61.1513 42.3972C61.0653 42.4155 60.9916 42.4277 60.9117 42.4337C60.838 42.4459 60.7581 42.452 60.6844 42.452H60.6906Z" fill="white"/>
<path d="M60.6878 42.5252C60.2824 42.5252 59.9691 42.4036 59.7603 42.1603C59.5576 41.923 59.4531 41.5763 59.4531 41.1383V36.8682H60.2333V41.0957C60.2333 41.2661 60.2578 41.4121 60.3008 41.5216C60.3438 41.631 60.4053 41.7101 60.4913 41.7649C60.6141 41.8439 60.8107 41.8561 60.9888 41.8379C61.0441 41.8318 61.0932 41.8196 61.1424 41.8074L61.2407 41.777L61.2222 42.4644L61.1608 42.4766C61.0748 42.4948 60.995 42.507 60.9212 42.5131C60.8414 42.5252 60.7615 42.5313 60.6817 42.5313L60.6878 42.5252ZM59.6005 37.0142V41.1383C59.6005 41.5398 59.6927 41.85 59.877 42.0629C60.0613 42.2758 60.3254 42.3792 60.6878 42.3792C60.7615 42.3792 60.8352 42.3792 60.909 42.3671C60.9642 42.361 61.0257 42.3488 61.081 42.3427L61.0932 41.9778C61.0932 41.9778 61.038 41.9899 61.0134 41.9899C60.952 41.996 60.8844 42.0021 60.823 42.0021C60.6632 42.0021 60.5281 41.9656 60.4175 41.8987C60.307 41.8257 60.221 41.7223 60.1657 41.5824C60.1104 41.4486 60.0858 41.2904 60.0858 41.1018V37.0263H59.6067L59.6005 37.0142Z" fill="white"/>
<path d="M63.7231 42.4521C63.4651 42.4521 63.2316 42.4034 63.0228 42.3C62.8201 42.1966 62.6542 42.0628 62.5375 41.8864C62.4208 41.71 62.3594 41.5154 62.3594 41.3025C62.3594 41.0226 62.4331 40.8037 62.5744 40.6455C62.7157 40.4873 62.9552 40.3718 63.2808 40.3049C63.6125 40.238 64.0609 40.2015 64.6322 40.2015H64.9823V40.609H64.6383C64.3189 40.609 64.0548 40.6212 63.8459 40.6394C63.6309 40.6577 63.4651 40.6942 63.3422 40.7489C63.2194 40.7976 63.1272 40.8645 63.0781 40.9496C63.0289 41.0348 62.9982 41.1321 62.9982 41.2599C62.9982 41.4728 63.0719 41.6431 63.2194 41.7769C63.3668 41.9107 63.5695 41.9777 63.8214 41.9777C64.0302 41.9777 64.2145 41.929 64.3681 41.8317C64.5278 41.7343 64.6506 41.6005 64.7428 41.4302C64.8349 41.2599 64.8779 41.0652 64.8779 40.8462V39.9642C64.8779 39.6479 64.8103 39.4168 64.6813 39.2769C64.5523 39.137 64.3373 39.064 64.0425 39.064C63.8152 39.064 63.5941 39.0944 63.3791 39.1613C63.1641 39.2282 62.9491 39.3316 62.7218 39.4715L62.5068 39.0153C62.6419 38.9241 62.7955 38.8389 62.9675 38.772C63.1395 38.7051 63.3176 38.6503 63.5081 38.6138C63.6924 38.5773 63.8766 38.5591 64.0486 38.5591C64.3742 38.5591 64.6445 38.6138 64.8595 38.7172C65.0745 38.8206 65.228 38.9849 65.3325 39.1978C65.4369 39.4107 65.486 39.6844 65.486 40.019V42.3791H64.8963V41.5093H64.9639C64.9209 41.7039 64.841 41.8742 64.7243 42.0081C64.6076 42.148 64.4602 42.2575 64.2943 42.3305C64.1223 42.4095 63.9319 42.446 63.7169 42.446L63.7231 42.4521Z" fill="white"/>
<path d="M63.7265 42.5253C63.4562 42.5253 63.2105 42.4706 62.9955 42.3672C62.7805 42.2638 62.6085 42.1117 62.4795 41.9292C62.3505 41.7407 62.2891 41.5338 62.2891 41.3027C62.2891 41.0046 62.3689 40.7674 62.5225 40.5971C62.6761 40.4268 62.9279 40.3051 63.2719 40.2321C63.6098 40.1652 64.0643 40.1287 64.6417 40.1287H64.8137V39.9645C64.8137 39.6664 64.7523 39.4535 64.6356 39.3258C64.5189 39.198 64.3223 39.1372 64.052 39.1372C63.8309 39.1372 63.6159 39.1676 63.4132 39.2284C63.2043 39.2893 62.9955 39.3927 62.7805 39.5326L62.7068 39.5812L62.4242 38.9912L62.4795 38.9547C62.6146 38.8574 62.7743 38.7783 62.9525 38.7053C63.1306 38.6323 63.3149 38.5776 63.5053 38.5411C63.6957 38.5046 63.88 38.4863 64.0582 38.4863C64.396 38.4863 64.6786 38.5411 64.8997 38.6506C65.127 38.7661 65.299 38.9365 65.4096 39.1615C65.5201 39.3866 65.5754 39.6725 65.5754 40.0131V42.4463H64.8322V42.0022C64.8322 42.0022 64.8076 42.0326 64.7953 42.0448C64.6724 42.1908 64.5189 42.3064 64.3346 42.3915C64.1565 42.4706 63.9476 42.5132 63.7265 42.5132V42.5253ZM64.6356 40.2808C64.0705 40.2808 63.622 40.3112 63.2965 40.3781C62.9832 40.4389 62.7621 40.5484 62.6269 40.6944C62.4979 40.8404 62.4303 41.0411 62.4303 41.3027C62.4303 41.5034 62.4856 41.6859 62.5962 41.8502C62.7068 42.0144 62.8603 42.1421 63.0569 42.2395C63.2535 42.3368 63.4746 42.3794 63.7203 42.3794C63.923 42.3794 64.1073 42.3429 64.267 42.2699C64.4267 42.1969 64.5619 42.0935 64.6724 41.9657C64.7339 41.8927 64.783 41.8137 64.8199 41.7224V41.4487C64.8199 41.4487 64.8137 41.4608 64.8076 41.4669C64.7093 41.6494 64.5742 41.7954 64.4083 41.8988C64.2363 42.0022 64.0397 42.057 63.8186 42.057C63.5483 42.057 63.3272 41.984 63.1675 41.838C63.0016 41.692 62.9218 41.4973 62.9218 41.2662C62.9218 41.1263 62.9525 41.0107 63.0139 40.9195C63.0753 40.8221 63.1736 40.7492 63.3149 40.6883C63.4439 40.6336 63.622 40.5971 63.8432 40.5727C64.0582 40.5545 64.3285 40.5423 64.6479 40.5423H64.8137V40.2808H64.6417H64.6356ZM64.9796 42.3064H65.4219V40.0192C65.4219 39.6968 65.3727 39.4292 65.2744 39.2284C65.1762 39.0277 65.0349 38.8817 64.8322 38.7844C64.6294 38.6871 64.3715 38.6323 64.0582 38.6323C63.8923 38.6323 63.7142 38.6506 63.536 38.6871C63.3579 38.7236 63.1798 38.7722 63.0139 38.8391C62.8726 38.9 62.7375 38.9669 62.6208 39.0399L62.7743 39.3623C62.9771 39.2406 63.1798 39.1433 63.3763 39.0885C63.5975 39.0216 63.8247 38.9912 64.0582 38.9912C64.3776 38.9912 64.611 39.0703 64.7523 39.2284C64.8936 39.3866 64.9673 39.6299 64.9673 39.9705V40.1348H65.0717V40.6944H64.9673V40.8526C64.9673 41.0715 64.9243 41.2723 64.8383 41.4426H65.0717L65.0533 41.5338C65.0349 41.6129 65.0164 41.6859 64.9857 41.7589V42.3185L64.9796 42.3064ZM64.6479 40.6883C64.3346 40.6883 64.0705 40.7005 63.8616 40.7187C63.6589 40.737 63.493 40.7735 63.3763 40.8221C63.2658 40.8647 63.192 40.9256 63.149 40.9925C63.106 41.0655 63.0815 41.1506 63.0815 41.2601C63.0815 41.4487 63.149 41.6007 63.278 41.7224C63.4132 41.8441 63.5975 41.9049 63.8309 41.9049C64.0213 41.9049 64.1933 41.8623 64.3407 41.7711C64.4882 41.6798 64.6049 41.5521 64.6909 41.4C64.7769 41.2419 64.8199 41.0594 64.8199 40.8465V40.6883H64.654H64.6479Z" fill="white"/>
<path d="M67.206 42.3792V38.6261H67.8203V39.4595H67.7343C67.8448 39.1614 68.023 38.9363 68.2687 38.7843C68.5144 38.6322 68.797 38.5592 69.1225 38.5592C69.4235 38.5592 69.6754 38.614 69.8719 38.7234C70.0747 38.8329 70.2221 38.9972 70.3204 39.2162C70.4186 39.4351 70.4678 39.7089 70.4678 40.0434V42.3792H69.8351V40.0799C69.8351 39.8488 69.8044 39.6602 69.7429 39.5081C69.6815 39.3561 69.5894 39.2466 69.4604 39.1736C69.3314 39.1006 69.1655 39.0641 68.9628 39.0641C68.7355 39.0641 68.5328 39.1127 68.3608 39.2101C68.1888 39.3074 68.0537 39.4412 67.9615 39.6176C67.8694 39.794 67.8203 40.0008 67.8203 40.2381V42.3732H67.1876L67.206 42.3792Z" fill="white"/>
<path d="M70.5482 42.4583H69.7681V40.086C69.7681 39.867 69.7374 39.6846 69.6821 39.5446C69.6268 39.4108 69.547 39.3135 69.4364 39.2527C69.3197 39.1858 69.1661 39.1553 68.9757 39.1553C68.7607 39.1553 68.5703 39.1979 68.4106 39.2892C68.2509 39.3743 68.128 39.5021 68.042 39.6663C67.956 39.8305 67.913 40.0313 67.913 40.2503V42.4644H67.1329V38.5653H67.9007V39.0276C67.9929 38.912 68.1034 38.8086 68.2324 38.7295C68.4904 38.5714 68.7914 38.4923 69.1231 38.4923C69.4364 38.4923 69.7005 38.5471 69.9094 38.6626C70.1244 38.7782 70.2841 38.9546 70.3885 39.1858C70.493 39.4108 70.5421 39.7028 70.5421 40.0434V42.4583H70.5482ZM69.9155 42.3063H70.3947V40.0434C70.3947 39.721 70.3455 39.4534 70.2534 39.2466C70.1612 39.0458 70.02 38.8938 69.8357 38.7904C69.6453 38.687 69.4057 38.6383 69.117 38.6383C68.8098 38.6383 68.5396 38.7113 68.3061 38.8573C68.1341 38.9607 67.9929 39.1128 67.8946 39.2952V39.5446H67.6243L67.6612 39.4473C67.6857 39.3804 67.7103 39.3196 67.741 39.2648V38.7174H67.2742V42.3184H67.7533V40.2563C67.7533 40.0069 67.8024 39.788 67.9007 39.5994C67.999 39.4108 68.1464 39.2648 68.3307 39.1614C68.5088 39.058 68.7238 39.0094 68.9696 39.0094C69.1845 39.0094 69.3627 39.0519 69.504 39.1249C69.6453 39.204 69.7497 39.3317 69.8173 39.496C69.8787 39.6541 69.9094 39.8549 69.9094 40.0921V42.3184L69.9155 42.3063Z" fill="white"/>
<path d="M73.7117 42.4521C73.3308 42.4521 73.0053 42.367 72.7288 42.2027C72.4524 42.0385 72.2436 41.8073 72.0961 41.5093C71.9487 41.2112 71.875 40.8706 71.875 40.4813C71.875 40.092 71.9487 39.7452 72.0961 39.4533C72.2436 39.1613 72.4586 38.9423 72.7288 38.7902C73.0053 38.6382 73.3308 38.5591 73.7117 38.5591C73.9451 38.5591 74.1785 38.6017 74.4058 38.6807C74.6331 38.7598 74.8235 38.8815 74.9771 39.0275L74.7621 39.4837C74.6085 39.3377 74.4488 39.2343 74.2645 39.1674C74.0864 39.1005 73.9144 39.064 73.7547 39.064C73.3615 39.064 73.0544 39.1856 72.8456 39.4289C72.6306 39.6722 72.5261 40.0251 72.5261 40.4813C72.5261 40.9375 72.6306 41.2842 72.8456 41.5397C73.0606 41.8012 73.3615 41.929 73.7547 41.929C73.9144 41.929 74.0864 41.8986 74.2645 41.8317C74.4427 41.7647 74.6085 41.6553 74.7621 41.5093L74.9771 41.9655C74.8235 42.1176 74.6331 42.2331 74.4058 42.3183C74.1724 42.4034 73.9451 42.446 73.7178 42.446L73.7117 42.4521Z" fill="white"/>
<path d="M73.7073 42.5253C73.3141 42.5253 72.9701 42.4402 72.6876 42.2699C72.3989 42.0995 72.1777 41.8562 72.0242 41.546C71.8706 41.2419 71.7969 40.883 71.7969 40.4815C71.7969 40.08 71.8767 39.7211 72.0303 39.4231C72.1839 39.125 72.4111 38.8878 72.6937 38.7296C72.9824 38.5715 73.3203 38.4863 73.7134 38.4863C73.953 38.4863 74.1987 38.5289 74.4321 38.6141C74.6717 38.6992 74.8683 38.8209 75.028 38.979L75.0648 39.0155L74.7823 39.6117L74.7085 39.5387C74.5673 39.4048 74.4075 39.3014 74.2417 39.2406C74.0697 39.1798 73.91 39.1433 73.7564 39.1433C73.3817 39.1433 73.0991 39.2528 72.9026 39.4839C72.6999 39.7151 72.6016 40.0496 72.6016 40.4876C72.6016 40.9256 72.706 41.254 72.9026 41.5034C73.1053 41.7467 73.3817 41.8684 73.7564 41.8684C73.91 41.8684 74.0697 41.838 74.2417 41.7711C74.4075 41.7102 74.5673 41.6068 74.7085 41.4669L74.7823 41.3939L75.071 41.9901L75.0341 42.0266C74.8744 42.1847 74.6778 42.3064 74.4321 42.3976C74.1925 42.4828 73.953 42.5314 73.7134 42.5314L73.7073 42.5253ZM73.7073 38.6384C73.3448 38.6384 73.0254 38.7114 72.7613 38.8574C72.5033 39.0034 72.2944 39.2163 72.1532 39.49C72.0119 39.7637 71.9382 40.0983 71.9382 40.4815C71.9382 40.8647 72.0119 41.1932 72.1532 41.4791C72.2944 41.7589 72.4971 41.984 72.7613 42.1421C73.0254 42.3003 73.3387 42.3794 73.7073 42.3794C73.9223 42.3794 74.1495 42.3368 74.3707 42.2577C74.5734 42.1847 74.7393 42.0813 74.8805 41.9596L74.727 41.6433C74.5918 41.765 74.4383 41.8562 74.2847 41.911C74.1004 41.9779 73.9161 42.0144 73.7503 42.0144C73.3326 42.0144 73.007 41.8745 72.7797 41.5947C72.5586 41.3209 72.4419 40.9499 72.4419 40.4876C72.4419 40.0253 72.5586 39.6421 72.7797 39.3866C73.007 39.125 73.3326 38.9973 73.7503 38.9973C73.9161 38.9973 74.1004 39.0338 74.2847 39.1007C74.4444 39.1615 74.5918 39.2467 74.727 39.3623L74.8805 39.046C74.7454 38.9243 74.5734 38.8209 74.3768 38.754C74.1557 38.6749 73.9346 38.6323 73.7073 38.6323V38.6384Z" fill="white"/>
<path d="M78.3005 42.4521C77.9012 42.4521 77.5572 42.373 77.2685 42.2149C76.9798 42.0567 76.7587 41.8377 76.5989 41.5458C76.4392 41.2599 76.3594 40.9131 76.3594 40.5117C76.3594 40.1102 76.4392 39.7817 76.5928 39.4898C76.7464 39.1978 76.9614 38.9727 77.2378 38.8085C77.5081 38.6442 77.8275 38.5591 78.1838 38.5591C78.5401 38.5591 78.8226 38.6321 79.0622 38.7841C79.3079 38.9362 79.4922 39.143 79.6273 39.4168C79.7625 39.6905 79.8239 40.019 79.8239 40.3961V40.6333H76.8385V40.2258H79.4L79.2772 40.3292C79.2772 39.9156 79.185 39.5993 79.0008 39.3681C78.8165 39.137 78.5462 39.0275 78.1961 39.0275C77.9319 39.0275 77.7046 39.0883 77.5204 39.2099C77.3361 39.3316 77.1948 39.4958 77.1026 39.7087C77.0105 39.9216 76.9614 40.171 76.9614 40.4509V40.4995C76.9614 40.8158 77.0105 41.0774 77.1149 41.2964C77.2194 41.5154 77.3668 41.6735 77.5695 41.7891C77.7722 41.9047 78.0118 41.9533 78.2943 41.9533C78.5155 41.9533 78.7366 41.9168 78.9455 41.8499C79.1543 41.783 79.357 41.6674 79.5413 41.5093L79.7625 41.9472C79.5905 42.0993 79.3755 42.227 79.1052 42.3183C78.841 42.4095 78.5708 42.4582 78.2943 42.4582L78.3005 42.4521Z" fill="white"/>
<path d="M78.3039 42.5253C77.8923 42.5253 77.536 42.4402 77.235 42.282C76.9341 42.1178 76.7006 41.8866 76.5348 41.5825C76.3689 41.2844 76.2891 40.9256 76.2891 40.5119C76.2891 40.0983 76.3689 39.7516 76.5348 39.4535C76.6945 39.1554 76.9218 38.9121 77.2043 38.7418C77.4869 38.5715 77.8186 38.4863 78.1872 38.4863C78.5557 38.4863 78.8506 38.5654 79.1086 38.7236C79.3666 38.8817 79.5631 39.1007 79.7044 39.3866C79.8396 39.6664 79.9133 40.007 79.9133 40.3963V40.7127H77.063C77.0815 40.9256 77.1245 41.108 77.1982 41.2601C77.2903 41.4608 77.4378 41.6129 77.622 41.7163C77.8125 41.8197 78.0459 41.8745 78.31 41.8745C78.525 41.8745 78.7339 41.838 78.9366 41.7772C79.1393 41.7102 79.3297 41.6008 79.5079 41.4487L79.5816 41.3879L79.8703 41.9657L79.8273 42.0022C79.6491 42.1604 79.4219 42.2942 79.1454 42.3854C78.8752 42.4828 78.5926 42.5314 78.31 42.5314L78.3039 42.5253ZM78.181 38.6384C77.837 38.6384 77.5299 38.7175 77.2719 38.8756C77.0139 39.0338 76.8051 39.2528 76.6576 39.5326C76.5102 39.8124 76.4303 40.1409 76.4303 40.518C76.4303 40.8951 76.5041 41.2419 76.6576 41.5156C76.8112 41.7893 77.0262 42.0022 77.2965 42.1543C77.5729 42.3064 77.9046 42.3794 78.2916 42.3794C78.5557 42.3794 78.8199 42.3368 79.0779 42.2455C79.3113 42.1665 79.5079 42.057 79.6676 41.9292L79.514 41.6251C79.342 41.7589 79.1577 41.8562 78.9673 41.9231C78.7523 41.9961 78.525 42.0326 78.2916 42.0326C77.9967 42.0326 77.7449 41.9718 77.5299 41.8562C77.3149 41.7407 77.149 41.5643 77.0446 41.3331C76.9648 41.1567 76.9156 40.956 76.891 40.7187H76.7559V40.1591H76.8972C76.9218 39.9827 76.9648 39.8246 77.0262 39.6847C77.1245 39.4596 77.2719 39.2771 77.4685 39.1494C77.665 39.0216 77.9046 38.9547 78.1872 38.9547C78.5619 38.9547 78.8506 39.0824 79.0533 39.3258C79.2192 39.5326 79.3174 39.8124 79.342 40.1591H79.6061L79.1946 40.4876V40.3051H77.0323C77.0323 40.3538 77.0323 40.4024 77.0323 40.4572V40.5058C77.0323 40.5058 77.0323 40.5484 77.0323 40.5727H79.7413V40.4085C79.7413 40.0435 79.6799 39.7212 79.5509 39.4596C79.428 39.2041 79.2437 38.9973 79.0164 38.8574C78.783 38.7175 78.5005 38.6445 78.1749 38.6445L78.181 38.6384ZM77.063 40.153H79.2007C79.1761 39.8428 79.0902 39.5934 78.9489 39.4109C78.7769 39.198 78.5312 39.0946 78.1995 39.0946C77.9476 39.0946 77.7387 39.1494 77.5668 39.2649C77.3948 39.3744 77.2658 39.5326 77.1798 39.7333C77.1245 39.8611 77.0876 40.001 77.063 40.153Z" fill="white"/>
<path d="M80.7188 42.3789V41.5942H81.5112V42.3789H80.7188Z" fill="white"/>
<path d="M81.5866 42.4582H80.6406V41.5215H81.5866V42.4582ZM80.7942 42.3062H81.4392V41.6675H80.7942V42.3062Z" fill="white"/>
</g>
<defs>
<clipPath id="clip0_20_11">
<rect width="82" height="45" fill="white"/>
</clipPath>
</defs>
</svg>
