<svg width="320" height="109" viewBox="0 0 320 109" fill="none" xmlns="http://www.w3.org/2000/svg">
<path d="M271.459 107.85V102.35H275.459V107.85H271.459Z" fill="#669B40"/>
<path d="M249.097 108.449C246.597 108.449 244.33 107.849 242.297 106.649C240.297 105.416 238.714 103.733 237.547 101.599C236.38 99.4659 235.797 97.0492 235.797 94.3492C235.797 91.6492 236.364 89.2659 237.497 87.1992C238.63 85.0992 240.164 83.4492 242.097 82.2492C244.064 81.0492 246.264 80.4492 248.697 80.4492C250.63 80.4492 252.347 80.8159 253.847 81.5492C255.38 82.2492 256.68 83.2159 257.747 84.4492C258.814 85.6492 259.63 87.0159 260.197 88.5492C260.764 90.0492 261.047 91.5992 261.047 93.1992C261.047 93.5326 261.03 93.9159 260.997 94.3492C260.964 94.7492 260.914 95.1659 260.847 95.5992H238.197V92.0992H258.697L256.897 93.5992C257.197 91.7659 256.98 90.1326 256.247 88.6992C255.547 87.2326 254.53 86.0826 253.197 85.2492C251.864 84.3826 250.364 83.9492 248.697 83.9492C247.03 83.9492 245.48 84.3826 244.047 85.2492C242.647 86.1159 241.547 87.3326 240.747 88.8992C239.947 90.4326 239.63 92.2659 239.797 94.3992C239.63 96.5325 239.964 98.3992 240.797 99.9992C241.664 101.566 242.83 102.783 244.297 103.649C245.797 104.516 247.397 104.949 249.097 104.949C251.064 104.949 252.714 104.483 254.047 103.549C255.38 102.616 256.464 101.449 257.297 100.049L260.497 101.749C259.964 102.949 259.147 104.066 258.047 105.099C256.947 106.099 255.63 106.916 254.097 107.549C252.597 108.149 250.93 108.449 249.097 108.449Z" fill="#669B40"/>
<path d="M216.666 108.449C214.033 108.449 211.716 107.833 209.716 106.599C207.716 105.366 206.15 103.699 205.016 101.599C203.883 99.4659 203.316 97.0659 203.316 94.3992C203.316 91.7325 203.883 89.3492 205.016 87.2492C206.15 85.1492 207.716 83.4992 209.716 82.2992C211.716 81.0659 214.033 80.4492 216.666 80.4492C218.333 80.4492 219.9 80.7492 221.366 81.3492C222.833 81.9492 224.133 82.7659 225.266 83.7992C226.4 84.7992 227.25 85.9659 227.816 87.2992L224.416 89.0492C223.75 87.6159 222.733 86.4492 221.366 85.5492C220 84.6492 218.433 84.1992 216.666 84.1992C214.9 84.1992 213.3 84.6492 211.866 85.5492C210.466 86.4159 209.35 87.6326 208.516 89.1992C207.716 90.7326 207.316 92.4826 207.316 94.4492C207.316 96.3826 207.716 98.1326 208.516 99.6992C209.35 101.233 210.466 102.449 211.866 103.349C213.3 104.249 214.9 104.699 216.666 104.699C218.433 104.699 219.983 104.249 221.316 103.349C222.683 102.449 223.716 101.249 224.416 99.7492L227.816 101.599C227.25 102.899 226.4 104.066 225.266 105.099C224.133 106.133 222.833 106.949 221.366 107.549C219.9 108.149 218.333 108.449 216.666 108.449Z" fill="#669B40"/>
<path d="M173.254 107.849V81.0492H177.004V86.2492L176.154 86.0492C176.821 84.3159 177.904 82.9492 179.404 81.9492C180.938 80.9492 182.704 80.4492 184.704 80.4492C186.604 80.4492 188.304 80.8826 189.804 81.7492C191.338 82.6159 192.538 83.8159 193.404 85.3492C194.304 86.8492 194.754 88.5492 194.754 90.4492V107.849H191.004V91.8992C191.004 90.2659 190.704 88.8826 190.104 87.7492C189.538 86.6159 188.721 85.7492 187.654 85.1492C186.621 84.5159 185.421 84.1992 184.054 84.1992C182.688 84.1992 181.471 84.5159 180.404 85.1492C179.338 85.7492 178.504 86.6326 177.904 87.7992C177.304 88.9326 177.004 90.2992 177.004 91.8992V107.849H173.254Z" fill="#669B40"/>
<path d="M149.891 108.449C148.191 108.449 146.674 108.133 145.341 107.499C144.008 106.833 142.958 105.933 142.191 104.799C141.424 103.666 141.041 102.366 141.041 100.899C141.041 99.4992 141.341 98.2326 141.941 97.0992C142.541 95.9326 143.474 94.9492 144.741 94.1492C146.008 93.3492 147.624 92.7826 149.591 92.4492L160.091 90.6992V94.0992L150.491 95.6992C148.558 96.0326 147.158 96.6492 146.291 97.5492C145.458 98.4492 145.041 99.5159 145.041 100.749C145.041 101.949 145.508 102.966 146.441 103.799C147.408 104.633 148.641 105.049 150.141 105.049C151.974 105.049 153.574 104.666 154.941 103.899C156.308 103.099 157.374 102.033 158.141 100.699C158.908 99.3659 159.291 97.8826 159.291 96.2492V89.4492C159.291 87.8492 158.708 86.5492 157.541 85.5492C156.374 84.5492 154.858 84.0492 152.991 84.0492C151.358 84.0492 149.924 84.4659 148.691 85.2992C147.458 86.0992 146.541 87.1492 145.941 88.4492L142.541 86.5992C143.041 85.4659 143.824 84.4326 144.891 83.4992C145.991 82.5659 147.241 81.8325 148.641 81.2992C150.041 80.7325 151.491 80.4492 152.991 80.4492C154.958 80.4492 156.691 80.8326 158.191 81.5992C159.724 82.3659 160.908 83.4326 161.741 84.7992C162.608 86.1326 163.041 87.6826 163.041 89.4492V107.849H159.291V102.499L159.841 103.049C159.374 104.049 158.641 104.966 157.641 105.799C156.674 106.599 155.524 107.249 154.191 107.749C152.891 108.216 151.458 108.449 149.891 108.449Z" fill="#669B40"/>
<path d="M128.215 107.85V70H131.965V107.85H128.215Z" fill="#669B40"/>
<path d="M104.852 108.449C103.152 108.449 101.635 108.133 100.302 107.499C98.9686 106.833 97.9186 105.933 97.152 104.799C96.3853 103.666 96.002 102.366 96.002 100.899C96.002 99.4992 96.302 98.2326 96.902 97.0992C97.502 95.9326 98.4353 94.9492 99.702 94.1492C100.969 93.3492 102.585 92.7826 104.552 92.4492L115.052 90.6992V94.0992L105.452 95.6992C103.519 96.0326 102.119 96.6492 101.252 97.5492C100.419 98.4492 100.002 99.5159 100.002 100.749C100.002 101.949 100.469 102.966 101.402 103.799C102.369 104.633 103.602 105.049 105.102 105.049C106.935 105.049 108.535 104.666 109.902 103.899C111.269 103.099 112.335 102.033 113.102 100.699C113.869 99.3659 114.252 97.8826 114.252 96.2492V89.4492C114.252 87.8492 113.669 86.5492 112.502 85.5492C111.335 84.5492 109.819 84.0492 107.952 84.0492C106.319 84.0492 104.885 84.4659 103.652 85.2992C102.419 86.0992 101.502 87.1492 100.902 88.4492L97.502 86.5992C98.002 85.4659 98.7853 84.4326 99.852 83.4992C100.952 82.5659 102.202 81.8325 103.602 81.2992C105.002 80.7325 106.452 80.4492 107.952 80.4492C109.919 80.4492 111.652 80.8326 113.152 81.5992C114.685 82.3659 115.869 83.4326 116.702 84.7992C117.569 86.1326 118.002 87.6826 118.002 89.4492V107.849H114.252V102.499L114.802 103.049C114.335 104.049 113.602 104.966 112.602 105.799C111.635 106.599 110.485 107.249 109.152 107.749C107.852 108.216 106.419 108.449 104.852 108.449Z" fill="#669B40"/>
<path d="M60.484 107.85V70.5996H76.134C78.234 70.5996 80.0507 70.9996 81.584 71.7996C83.1507 72.5663 84.3507 73.6496 85.184 75.0496C86.0507 76.4496 86.484 78.0829 86.484 79.9496C86.484 81.8829 86.0007 83.5996 85.034 85.0996C84.1007 86.5663 82.7507 87.6829 80.984 88.4496L80.934 87.2496C82.4007 87.7829 83.6507 88.5329 84.684 89.4996C85.7507 90.4663 86.5673 91.5996 87.134 92.8996C87.7007 94.1663 87.984 95.5329 87.984 96.9996C87.984 100.333 86.9173 102.983 84.784 104.95C82.684 106.883 79.8173 107.85 76.184 107.85H60.484ZM64.484 104.1H76.184C78.5507 104.1 80.434 103.483 81.834 102.25C83.2673 100.983 83.984 99.2496 83.984 97.0496C83.984 94.8829 83.2673 93.1663 81.834 91.8996C80.434 90.5996 78.5507 89.9496 76.184 89.9496H64.484V104.1ZM64.484 86.3496H75.834C77.834 86.3496 79.434 85.7663 80.634 84.5996C81.8673 83.4329 82.484 81.9329 82.484 80.0996C82.484 78.2329 81.8673 76.8163 80.634 75.8496C79.434 74.8496 77.834 74.3496 75.834 74.3496H64.484V86.3496Z" fill="#669B40"/>
<path d="M17.7758 107.849V81.0492H21.5258V86.2492L20.6758 86.0492C21.3424 84.3159 22.4258 82.9492 23.9258 81.9492C25.4591 80.9492 27.2258 80.4492 29.2258 80.4492C31.1258 80.4492 32.8258 80.8826 34.3258 81.7492C35.8591 82.6159 37.0591 83.8159 37.9258 85.3492C38.8258 86.8492 39.2758 88.5492 39.2758 90.4492V107.849H35.5258V91.8992C35.5258 90.2659 35.2258 88.8826 34.6258 87.7492C34.0591 86.6159 33.2424 85.7492 32.1758 85.1492C31.1424 84.5159 29.9424 84.1992 28.5758 84.1992C27.2091 84.1992 25.9924 84.5159 24.9258 85.1492C23.8591 85.7492 23.0258 86.6326 22.4258 87.7992C21.8258 88.9326 21.5258 90.2992 21.5258 91.8992V107.849H17.7758Z" fill="#669B40"/>
<path d="M3.84998 107.85V81.0496H7.59998V107.85H3.84998ZM3.84998 76.0996V70.5996H7.59998V76.0996H3.84998Z" fill="#669B40"/>
<path d="M212.877 48.8488C212.343 48.8488 211.793 48.7988 211.227 48.6988C210.693 48.6322 210.16 48.4988 209.627 48.2988V44.7988C209.96 44.8322 210.377 44.8822 210.877 44.9488C211.41 45.0488 211.943 45.0988 212.477 45.0988C214.11 45.0988 215.36 44.7488 216.227 44.0488C217.093 43.3822 217.943 42.0822 218.777 40.1488L220.477 36.1488L220.377 39.4488L209.027 11.0488H213.077L222.377 34.4988H221.327L230.577 11.0488H234.727L222.477 41.2488C221.943 42.5488 221.26 43.7822 220.427 44.9488C219.627 46.1155 218.61 47.0488 217.377 47.7488C216.143 48.4822 214.643 48.8488 212.877 48.8488Z" fill="#669B40"/>
<path d="M198.401 37.85V0H202.151V37.85H198.401Z" fill="#669B40"/>
<path d="M186.766 38.1496C184.366 38.1496 182.516 37.4496 181.216 36.0496C179.916 34.6496 179.266 32.6496 179.266 30.0496V14.7996H174.316V11.0496H175.566C176.699 11.0496 177.599 10.6829 178.266 9.94961C178.933 9.18294 179.266 8.23294 179.266 7.09961V4.84961H183.016V11.0496H188.916V14.7996H183.016V30.0496C183.016 30.9496 183.149 31.7496 183.416 32.4496C183.683 33.1163 184.133 33.6496 184.766 34.0496C185.433 34.4496 186.316 34.6496 187.416 34.6496C187.683 34.6496 187.999 34.6329 188.366 34.5996C188.733 34.5663 189.049 34.5329 189.316 34.4996V37.8496C188.916 37.9496 188.466 38.0163 187.966 38.0496C187.466 38.1163 187.066 38.1496 186.766 38.1496Z" fill="#669B40"/>
<path d="M156.286 38.4492C153.652 38.4492 151.336 37.8326 149.336 36.5992C147.336 35.3659 145.769 33.6992 144.636 31.5992C143.502 29.4659 142.936 27.0659 142.936 24.3992C142.936 21.7326 143.502 19.3492 144.636 17.2492C145.769 15.1492 147.336 13.4992 149.336 12.2992C151.336 11.0659 153.652 10.4492 156.286 10.4492C157.952 10.4492 159.519 10.7492 160.986 11.3492C162.452 11.9492 163.752 12.7659 164.886 13.7992C166.019 14.7992 166.869 15.9659 167.436 17.2992L164.036 19.0492C163.369 17.6159 162.352 16.4492 160.986 15.5492C159.619 14.6492 158.052 14.1992 156.286 14.1992C154.519 14.1992 152.919 14.6492 151.486 15.5492C150.086 16.4159 148.969 17.6326 148.136 19.1992C147.336 20.7326 146.936 22.4826 146.936 24.4492C146.936 26.3826 147.336 28.1326 148.136 29.6992C148.969 31.2326 150.086 32.4492 151.486 33.3492C152.919 34.2492 154.519 34.6992 156.286 34.6992C158.052 34.6992 159.602 34.2492 160.936 33.3492C162.302 32.4492 163.336 31.2492 164.036 29.7492L167.436 31.5992C166.869 32.8992 166.019 34.0659 164.886 35.0992C163.752 36.1326 162.452 36.9492 160.986 37.5492C159.519 38.1492 157.952 38.4492 156.286 38.4492Z" fill="#669B40"/>
<path d="M122.974 38.4492C120.474 38.4492 118.207 37.8492 116.174 36.6492C114.174 35.4159 112.59 33.7326 111.424 31.5992C110.257 29.4659 109.674 27.0492 109.674 24.3492C109.674 21.6492 110.24 19.2659 111.374 17.1992C112.507 15.0992 114.04 13.4492 115.974 12.2492C117.94 11.0492 120.14 10.4492 122.574 10.4492C124.507 10.4492 126.224 10.8159 127.724 11.5492C129.257 12.2492 130.557 13.2159 131.624 14.4492C132.69 15.6492 133.507 17.0159 134.074 18.5492C134.641 20.0492 134.924 21.5992 134.924 23.1992C134.924 23.5326 134.907 23.9159 134.874 24.3492C134.84 24.7492 134.79 25.1659 134.724 25.5992H112.074V22.0992H132.574L130.774 23.5992C131.074 21.7659 130.857 20.1326 130.124 18.6992C129.424 17.2326 128.407 16.0826 127.074 15.2492C125.74 14.3826 124.24 13.9492 122.574 13.9492C120.907 13.9492 119.357 14.3826 117.924 15.2492C116.524 16.1159 115.424 17.3326 114.624 18.8992C113.824 20.4326 113.507 22.2659 113.674 24.3992C113.507 26.5326 113.84 28.3992 114.674 29.9992C115.54 31.5659 116.707 32.7826 118.174 33.6492C119.674 34.5159 121.274 34.9492 122.974 34.9492C124.94 34.9492 126.59 34.4826 127.924 33.5492C129.257 32.6159 130.34 31.4492 131.174 30.0492L134.374 31.7492C133.84 32.9492 133.024 34.0659 131.924 35.0992C130.824 36.0992 129.507 36.9159 127.974 37.5492C126.474 38.1492 124.807 38.4492 122.974 38.4492Z" fill="#669B40"/>
<path d="M92.9086 37.85V14.8H87.5586V11.05H92.9086V8.65C92.9086 6.78333 93.3253 5.21667 94.1586 3.95C94.9919 2.65 96.0919 1.66667 97.4586 0.999999C98.8253 0.333333 100.292 0 101.859 0C102.192 0 102.575 0.0333327 103.009 0.0999985C103.442 0.133333 103.792 0.183334 104.059 0.25V3.65C103.825 3.58333 103.509 3.55 103.109 3.55C102.709 3.51667 102.425 3.5 102.259 3.5C100.659 3.5 99.3253 3.88333 98.2586 4.65C97.1919 5.41667 96.6586 6.75 96.6586 8.65V11.05H103.209V14.8H96.6586V37.85H92.9086Z" fill="#669B40"/>
<path d="M70.7641 37.8492V11.0492H74.5141V15.4492L74.0141 14.7992C74.6474 13.5326 75.5974 12.5326 76.8641 11.7992C78.1641 11.0659 79.7307 10.6992 81.5641 10.6992H83.2641V14.4492H80.9141C78.9807 14.4492 77.4307 15.0492 76.2641 16.2492C75.0974 17.4492 74.5141 19.1492 74.5141 21.3492V37.8492H70.7641Z" fill="#669B40"/>
<path d="M49.7023 38.4492C47.2023 38.4492 44.9357 37.8492 42.9023 36.6492C40.9023 35.4159 39.319 33.7326 38.1523 31.5992C36.9857 29.4659 36.4023 27.0492 36.4023 24.3492C36.4023 21.6492 36.969 19.2659 38.1023 17.1992C39.2357 15.0992 40.769 13.4492 42.7023 12.2492C44.669 11.0492 46.869 10.4492 49.3023 10.4492C51.2357 10.4492 52.9523 10.8159 54.4523 11.5492C55.9857 12.2492 57.2857 13.2159 58.3523 14.4492C59.419 15.6492 60.2357 17.0159 60.8023 18.5492C61.369 20.0492 61.6523 21.5992 61.6523 23.1992C61.6523 23.5326 61.6357 23.9159 61.6023 24.3492C61.569 24.7492 61.519 25.1659 61.4523 25.5992H38.8023V22.0992H59.3023L57.5023 23.5992C57.8023 21.7659 57.5857 20.1326 56.8523 18.6992C56.1523 17.2326 55.1357 16.0826 53.8023 15.2492C52.469 14.3826 50.969 13.9492 49.3023 13.9492C47.6357 13.9492 46.0857 14.3826 44.6523 15.2492C43.2523 16.1159 42.1523 17.3326 41.3523 18.8992C40.5523 20.4326 40.2357 22.2659 40.4023 24.3992C40.2357 26.5326 40.569 28.3992 41.4023 29.9992C42.269 31.5659 43.4357 32.7826 44.9023 33.6492C46.4023 34.5159 48.0023 34.9492 49.7023 34.9492C51.669 34.9492 53.319 34.4826 54.6523 33.5492C55.9857 32.6159 57.069 31.4492 57.9023 30.0492L61.1023 31.7492C60.569 32.9492 59.7523 34.0659 58.6523 35.0992C57.5523 36.0992 56.2357 36.9159 54.7023 37.5492C53.2023 38.1492 51.5357 38.4492 49.7023 38.4492Z" fill="#669B40"/>
<path d="M4.40002 37.8496V0.599609H17.2C19.6334 0.599609 21.7667 1.08294 23.6 2.04961C25.4334 2.98294 26.85 4.31628 27.85 6.04961C28.8834 7.74961 29.4 9.73295 29.4 11.9996C29.4 14.2663 28.8834 16.2496 27.85 17.9496C26.85 19.6496 25.4334 20.9829 23.6 21.9496C21.8 22.8829 19.6667 23.3496 17.2 23.3496H8.40002V37.8496H4.40002ZM8.40002 19.5996H17.4C19 19.5996 20.4 19.2996 21.6 18.6996C22.8 18.0663 23.7334 17.1829 24.4 16.0496C25.0667 14.8829 25.4 13.5163 25.4 11.9496C25.4 10.3829 25.0667 9.03295 24.4 7.89961C23.7334 6.76628 22.8 5.89961 21.6 5.29961C20.4 4.66628 19 4.34961 17.4 4.34961H8.40002V19.5996Z" fill="#669B40"/>
</svg>
