<svg width="625" height="224" viewBox="0 0 625 224" fill="none" xmlns="http://www.w3.org/2000/svg">
<path d="M588.739 198.27V186.17H597.539V198.27H588.739Z" fill="#669B40"/>
<path d="M539.543 199.59C534.043 199.59 529.056 198.27 524.583 195.63C520.183 192.917 516.7 189.214 514.133 184.52C511.566 179.827 510.283 174.51 510.283 168.57C510.283 162.63 511.53 157.387 514.023 152.84C516.516 148.22 519.89 144.59 524.143 141.95C528.47 139.31 533.31 137.99 538.663 137.99C542.916 137.99 546.693 138.797 549.993 140.41C553.366 141.95 556.226 144.077 558.573 146.79C560.92 149.43 562.716 152.437 563.963 155.81C565.21 159.11 565.833 162.52 565.833 166.04C565.833 166.774 565.796 167.617 565.723 168.57C565.65 169.45 565.54 170.367 565.393 171.32H515.563V163.62H560.663L556.703 166.92C557.363 162.887 556.886 159.294 555.273 156.14C553.733 152.914 551.496 150.384 548.563 148.55C545.63 146.644 542.33 145.69 538.663 145.69C534.996 145.69 531.586 146.644 528.433 148.55C525.353 150.457 522.933 153.134 521.173 156.58C519.413 159.954 518.716 163.987 519.083 168.68C518.716 173.374 519.45 177.48 521.283 181C523.19 184.447 525.756 187.124 528.983 189.03C532.283 190.937 535.803 191.89 539.543 191.89C543.87 191.89 547.5 190.864 550.433 188.81C553.366 186.757 555.75 184.19 557.583 181.11L564.623 184.85C563.45 187.49 561.653 189.947 559.233 192.22C556.813 194.42 553.916 196.217 550.543 197.61C547.243 198.93 543.576 199.59 539.543 199.59Z" fill="#669B40"/>
<path d="M468.196 199.59C462.403 199.59 457.306 198.234 452.906 195.52C448.506 192.807 445.059 189.14 442.566 184.52C440.073 179.827 438.826 174.547 438.826 168.68C438.826 162.814 440.073 157.57 442.566 152.95C445.059 148.33 448.506 144.7 452.906 142.06C457.306 139.347 462.403 137.99 468.196 137.99C471.863 137.99 475.309 138.65 478.536 139.97C481.763 141.29 484.623 143.087 487.116 145.36C489.609 147.56 491.479 150.127 492.726 153.06L485.246 156.91C483.779 153.757 481.543 151.19 478.536 149.21C475.529 147.23 472.083 146.24 468.196 146.24C464.309 146.24 460.789 147.23 457.636 149.21C454.556 151.117 452.099 153.794 450.266 157.24C448.506 160.614 447.626 164.464 447.626 168.79C447.626 173.044 448.506 176.894 450.266 180.34C452.099 183.714 454.556 186.39 457.636 188.37C460.789 190.35 464.309 191.34 468.196 191.34C472.083 191.34 475.493 190.35 478.426 188.37C481.433 186.39 483.706 183.75 485.246 180.45L492.726 184.52C491.479 187.38 489.609 189.947 487.116 192.22C484.623 194.494 481.763 196.29 478.536 197.61C475.309 198.93 471.863 199.59 468.196 199.59Z" fill="#669B40"/>
<path d="M372.689 198.27V139.31H380.939V150.75L379.069 150.31C380.536 146.497 382.919 143.49 386.219 141.29C389.593 139.09 393.479 137.99 397.879 137.99C402.059 137.99 405.799 138.944 409.099 140.85C412.473 142.757 415.113 145.397 417.019 148.77C418.999 152.07 419.989 155.81 419.989 159.99V198.27H411.739V163.18C411.739 159.587 411.079 156.544 409.759 154.05C408.513 151.557 406.716 149.65 404.369 148.33C402.096 146.937 399.456 146.24 396.449 146.24C393.443 146.24 390.766 146.937 388.419 148.33C386.073 149.65 384.239 151.594 382.919 154.16C381.599 156.654 380.939 159.66 380.939 163.18V198.27H372.689Z" fill="#669B40"/>
<path d="M321.29 199.59C317.55 199.59 314.214 198.894 311.28 197.5C308.347 196.034 306.037 194.054 304.35 191.56C302.664 189.067 301.82 186.207 301.82 182.98C301.82 179.9 302.48 177.114 303.8 174.62C305.12 172.054 307.174 169.89 309.96 168.13C312.747 166.37 316.304 165.124 320.63 164.39L343.73 160.54V168.02L322.61 171.54C318.357 172.274 315.277 173.63 313.37 175.61C311.537 177.59 310.62 179.937 310.62 182.65C310.62 185.29 311.647 187.527 313.7 189.36C315.827 191.194 318.54 192.11 321.84 192.11C325.874 192.11 329.394 191.267 332.4 189.58C335.407 187.82 337.754 185.474 339.44 182.54C341.127 179.607 341.97 176.344 341.97 172.75V157.79C341.97 154.27 340.687 151.41 338.12 149.21C335.554 147.01 332.217 145.91 328.11 145.91C324.517 145.91 321.364 146.827 318.65 148.66C315.937 150.42 313.92 152.73 312.6 155.59L305.12 151.52C306.22 149.027 307.944 146.754 310.29 144.7C312.71 142.647 315.46 141.034 318.54 139.86C321.62 138.614 324.81 137.99 328.11 137.99C332.437 137.99 336.25 138.834 339.55 140.52C342.924 142.207 345.527 144.554 347.36 147.56C349.267 150.494 350.22 153.904 350.22 157.79V198.27H341.97V186.5L343.18 187.71C342.154 189.91 340.54 191.927 338.34 193.76C336.214 195.52 333.684 196.95 330.75 198.05C327.89 199.077 324.737 199.59 321.29 199.59Z" fill="#669B40"/>
<path d="M273.604 198.27V115H281.854V198.27H273.604Z" fill="#669B40"/>
<path d="M222.204 199.59C218.464 199.59 215.127 198.894 212.194 197.5C209.261 196.034 206.951 194.054 205.264 191.56C203.577 189.067 202.734 186.207 202.734 182.98C202.734 179.9 203.394 177.114 204.714 174.62C206.034 172.054 208.087 169.89 210.874 168.13C213.661 166.37 217.217 165.124 221.544 164.39L244.644 160.54V168.02L223.524 171.54C219.271 172.274 216.191 173.63 214.284 175.61C212.451 177.59 211.534 179.937 211.534 182.65C211.534 185.29 212.561 187.527 214.614 189.36C216.741 191.194 219.454 192.11 222.754 192.11C226.787 192.11 230.307 191.267 233.314 189.58C236.321 187.82 238.667 185.474 240.354 182.54C242.041 179.607 242.884 176.344 242.884 172.75V157.79C242.884 154.27 241.601 151.41 239.034 149.21C236.467 147.01 233.131 145.91 229.024 145.91C225.431 145.91 222.277 146.827 219.564 148.66C216.851 150.42 214.834 152.73 213.514 155.59L206.034 151.52C207.134 149.027 208.857 146.754 211.204 144.7C213.624 142.647 216.374 141.034 219.454 139.86C222.534 138.614 225.724 137.99 229.024 137.99C233.351 137.99 237.164 138.834 240.464 140.52C243.837 142.207 246.441 144.554 248.274 147.56C250.181 150.494 251.134 153.904 251.134 157.79V198.27H242.884V186.5L244.094 187.71C243.067 189.91 241.454 191.927 239.254 193.76C237.127 195.52 234.597 196.95 231.664 198.05C228.804 199.077 225.651 199.59 222.204 199.59Z" fill="#669B40"/>
<path d="M124.595 198.27V116.32H159.025C163.645 116.32 167.641 117.2 171.015 118.96C174.461 120.647 177.101 123.03 178.935 126.11C180.841 129.19 181.795 132.784 181.795 136.89C181.795 141.144 180.731 144.92 178.605 148.22C176.551 151.447 173.581 153.904 169.695 155.59L169.585 152.95C172.811 154.124 175.561 155.774 177.835 157.9C180.181 160.027 181.978 162.52 183.225 165.38C184.471 168.167 185.095 171.174 185.095 174.4C185.095 181.734 182.748 187.564 178.055 191.89C173.435 196.144 167.128 198.27 159.135 198.27H124.595ZM133.395 190.02H159.135C164.341 190.02 168.485 188.664 171.565 185.95C174.718 183.164 176.295 179.35 176.295 174.51C176.295 169.744 174.718 165.967 171.565 163.18C168.485 160.32 164.341 158.89 159.135 158.89H133.395V190.02ZM133.395 150.97H158.365C162.765 150.97 166.285 149.687 168.925 147.12C171.638 144.554 172.995 141.254 172.995 137.22C172.995 133.114 171.638 129.997 168.925 127.87C166.285 125.67 162.765 124.57 158.365 124.57H133.395V150.97Z" fill="#669B40"/>
<path d="M30.6367 198.27V139.31H38.8867V150.75L37.0167 150.31C38.4834 146.497 40.8667 143.49 44.1667 141.29C47.5401 139.09 51.4267 137.99 55.8267 137.99C60.0067 137.99 63.7467 138.944 67.0467 140.85C70.4201 142.757 73.0601 145.397 74.9667 148.77C76.9467 152.07 77.9367 155.81 77.9367 159.99V198.27H69.6867V163.18C69.6867 159.587 69.0267 156.544 67.7067 154.05C66.4601 151.557 64.6634 149.65 62.3167 148.33C60.0434 146.937 57.4034 146.24 54.3967 146.24C51.39 146.24 48.7134 146.937 46.3667 148.33C44.0201 149.65 42.1867 151.594 40.8667 154.16C39.5467 156.654 38.8867 159.66 38.8867 163.18V198.27H30.6367Z" fill="#669B40"/>
<path d="M0 198.27V139.31H8.25V198.27H0ZM0 128.42V116.32H8.25V128.42H0Z" fill="#669B40"/>
<path d="M459.858 107.469C458.685 107.469 457.475 107.359 456.228 107.139C455.055 106.992 453.882 106.699 452.708 106.259V98.5586C453.442 98.6319 454.358 98.7419 455.458 98.8886C456.632 99.1086 457.805 99.2186 458.978 99.2186C462.572 99.2186 465.322 98.4486 467.228 96.9086C469.135 95.4419 471.005 92.5819 472.838 88.3286L476.578 79.5286L476.358 86.7886L451.388 24.3086H460.298L480.758 75.8986H478.448L498.798 24.3086H507.928L480.978 90.7486C479.805 93.6086 478.302 96.3219 476.468 98.8886C474.708 101.455 472.472 103.509 469.758 105.049C467.045 106.662 463.745 107.469 459.858 107.469Z" fill="#669B40"/>
<path d="M428.011 83.27V0H436.261V83.27H428.011Z" fill="#669B40"/>
<path d="M402.415 83.9299C397.135 83.9299 393.065 82.3899 390.205 79.3099C387.345 76.2299 385.915 71.8299 385.915 66.1099V32.5599H375.025V24.3099H377.775C380.268 24.3099 382.248 23.5033 383.715 21.8899C385.182 20.2033 385.915 18.1133 385.915 15.6199V10.6699H394.165V24.3099H407.145V32.5599H394.165V66.1099C394.165 68.0899 394.458 69.8499 395.045 71.3899C395.632 72.8566 396.622 74.0299 398.015 74.9099C399.482 75.7899 401.425 76.2299 403.845 76.2299C404.432 76.2299 405.128 76.1933 405.935 76.1199C406.742 76.0466 407.438 75.9733 408.025 75.8999V83.2699C407.145 83.4899 406.155 83.6366 405.055 83.7099C403.955 83.8566 403.075 83.9299 402.415 83.9299Z" fill="#669B40"/>
<path d="M335.358 84.5902C329.565 84.5902 324.468 83.2336 320.068 80.5202C315.668 77.8069 312.222 74.1402 309.728 69.5202C307.235 64.8269 305.988 59.5469 305.988 53.6802C305.988 47.8136 307.235 42.5702 309.728 37.9502C312.222 33.3302 315.668 29.7002 320.068 27.0602C324.468 24.3469 329.565 22.9902 335.358 22.9902C339.025 22.9902 342.472 23.6502 345.698 24.9702C348.925 26.2902 351.785 28.0869 354.278 30.3602C356.772 32.5602 358.642 35.1269 359.888 38.0602L352.408 41.9102C350.942 38.7569 348.705 36.1902 345.698 34.2102C342.692 32.2302 339.245 31.2402 335.358 31.2402C331.472 31.2402 327.952 32.2302 324.798 34.2102C321.718 36.1169 319.262 38.7936 317.428 42.2402C315.668 45.6136 314.788 49.4636 314.788 53.7902C314.788 58.0436 315.668 61.8936 317.428 65.3402C319.262 68.7136 321.718 71.3902 324.798 73.3702C327.952 75.3502 331.472 76.3402 335.358 76.3402C339.245 76.3402 342.655 75.3502 345.588 73.3702C348.595 71.3902 350.868 68.7502 352.408 65.4502L359.888 69.5202C358.642 72.3802 356.772 74.9469 354.278 77.2202C351.785 79.4936 348.925 81.2902 345.698 82.6102C342.472 83.9302 339.025 84.5902 335.358 84.5902Z" fill="#669B40"/>
<path d="M262.072 84.5902C256.572 84.5902 251.585 83.2702 247.112 80.6302C242.712 77.9169 239.229 74.2136 236.662 69.5202C234.095 64.8269 232.812 59.5102 232.812 53.5702C232.812 47.6302 234.059 42.3869 236.552 37.8402C239.045 33.2202 242.419 29.5902 246.672 26.9502C250.999 24.3102 255.839 22.9902 261.192 22.9902C265.445 22.9902 269.222 23.7969 272.522 25.4102C275.895 26.9502 278.755 29.0769 281.102 31.7902C283.449 34.4302 285.245 37.4369 286.492 40.8102C287.739 44.1102 288.362 47.5202 288.362 51.0402C288.362 51.7736 288.325 52.6169 288.252 53.5702C288.179 54.4502 288.069 55.3669 287.922 56.3202H238.092V48.6202H283.192L279.232 51.9202C279.892 47.8869 279.415 44.2936 277.802 41.1402C276.262 37.9136 274.025 35.3836 271.092 33.5502C268.159 31.6436 264.859 30.6902 261.192 30.6902C257.525 30.6902 254.115 31.6436 250.962 33.5502C247.882 35.4569 245.462 38.1336 243.702 41.5802C241.942 44.9536 241.245 48.9869 241.612 53.6802C241.245 58.3736 241.979 62.4802 243.812 66.0002C245.719 69.4469 248.285 72.1236 251.512 74.0302C254.812 75.9369 258.332 76.8902 262.072 76.8902C266.399 76.8902 270.029 75.8636 272.962 73.8102C275.895 71.7569 278.279 69.1902 280.112 66.1102L287.152 69.8502C285.979 72.4902 284.182 74.9469 281.762 77.2202C279.342 79.4202 276.445 81.2169 273.072 82.6102C269.772 83.9302 266.105 84.5902 262.072 84.5902Z" fill="#669B40"/>
<path d="M195.929 83.27V32.56H184.159V24.31H195.929V19.03C195.929 14.9233 196.845 11.4767 198.679 8.69C200.512 5.83 202.932 3.66667 205.939 2.2C208.945 0.733333 212.172 0 215.619 0C216.352 0 217.195 0.0733326 218.149 0.219997C219.102 0.293334 219.872 0.403335 220.459 0.55V8.03C219.945 7.88333 219.249 7.81 218.369 7.81C217.489 7.73667 216.865 7.7 216.499 7.7C212.979 7.7 210.045 8.54333 207.699 10.23C205.352 11.9167 204.179 14.85 204.179 19.03V24.31H218.589V32.56H204.179V83.27H195.929Z" fill="#669B40"/>
<path d="M147.211 83.2691V24.3091H155.461V33.9891L154.361 32.5591C155.754 29.7724 157.844 27.5724 160.631 25.9591C163.491 24.3457 166.938 23.5391 170.971 23.5391H174.711V31.7891H169.541C165.288 31.7891 161.878 33.1091 159.311 35.7491C156.744 38.3891 155.461 42.1291 155.461 46.9691V83.2691H147.211Z" fill="#669B40"/>
<path d="M100.875 84.5902C95.3747 84.5902 90.3881 83.2702 85.9147 80.6302C81.5147 77.9169 78.0314 74.2136 75.4647 69.5202C72.8981 64.8269 71.6147 59.5102 71.6147 53.5702C71.6147 47.6302 72.8614 42.3869 75.3547 37.8402C77.8481 33.2202 81.2214 29.5902 85.4747 26.9502C89.8014 24.3102 94.6414 22.9902 99.9947 22.9902C104.248 22.9902 108.025 23.7969 111.325 25.4102C114.698 26.9502 117.558 29.0769 119.905 31.7902C122.251 34.4302 124.048 37.4369 125.295 40.8102C126.541 44.1102 127.165 47.5202 127.165 51.0402C127.165 51.7736 127.128 52.6169 127.055 53.5702C126.981 54.4502 126.871 55.3669 126.725 56.3202H76.8947V48.6202H121.995L118.035 51.9202C118.695 47.8869 118.218 44.2936 116.605 41.1402C115.065 37.9136 112.828 35.3836 109.895 33.5502C106.961 31.6436 103.661 30.6902 99.9947 30.6902C96.3281 30.6902 92.9181 31.6436 89.7647 33.5502C86.6847 35.4569 84.2647 38.1336 82.5047 41.5802C80.7447 44.9536 80.0481 48.9869 80.4147 53.6802C80.0481 58.3736 80.7814 62.4802 82.6147 66.0002C84.5214 69.4469 87.0881 72.1236 90.3147 74.0302C93.6147 75.9369 97.1347 76.8902 100.875 76.8902C105.201 76.8902 108.831 75.8636 111.765 73.8102C114.698 71.7569 117.081 69.1902 118.915 66.1102L125.955 69.8502C124.781 72.4902 122.985 74.9469 120.565 77.2202C118.145 79.4202 115.248 81.2169 111.875 82.6102C108.575 83.9302 104.908 84.5902 100.875 84.5902Z" fill="#669B40"/>
<path d="M1.20996 83.2703V1.32031H29.37C34.7233 1.32031 39.4166 2.38365 43.45 4.51032C47.4833 6.56365 50.6 9.49698 52.8 13.3103C55.0733 17.0503 56.21 21.4136 56.21 26.4003C56.21 31.387 55.0733 35.7503 52.8 39.4903C50.6 43.2303 47.4833 46.1636 43.45 48.2903C39.49 50.3436 34.7966 51.3703 29.37 51.3703H10.01V83.2703H1.20996ZM10.01 43.1203H29.81C33.33 43.1203 36.41 42.4603 39.05 41.1403C41.69 39.747 43.7433 37.8037 45.21 35.3103C46.6766 32.7437 47.41 29.737 47.41 26.2903C47.41 22.8437 46.6766 19.8737 45.21 17.3803C43.7433 14.887 41.69 12.9803 39.05 11.6603C36.41 10.267 33.33 9.57032 29.81 9.57032H10.01V43.1203Z" fill="#669B40"/>
</svg>
